<?xml version="1.0" encoding="UTF-8"?>
<svg xmlns="http://www.w3.org/2000/svg" xmlns:xlink="http://www.w3.org/1999/xlink" viewBox="0 0 6800 2000">
  <defs>
    <style>.cls-1{isolation:isolate;}.cls-2{fill:url(#_ÂÁ_Ï_ÌÌ_È_ËÂÌÚ_2);}.cls-14,.cls-3,.cls-8{fill:#5c49cc;}.cls-3,.cls-44{opacity:0.26;}.cls-14,.cls-3,.cls-42,.cls-45,.cls-48,.cls-51,.cls-54,.cls-56{mix-blend-mode:screen;}.cls-22,.cls-4,.cls-5{fill:#f0588d;}.cls-4{opacity:0.6;}.cls-5{opacity:0.09;}.cls-6{fill:#170c2a;}.cls-7{fill:url(#_ÂÁ_Ï_ÌÌ_È_ËÂÌÚ_111);}.cls-9{fill:url(#_ÂÁ_Ï_ÌÌ_È_ËÂÌÚ_111-2);}.cls-10{fill:#c2b9fa;}.cls-11{fill:url(#_ÂÁ_Ï_ÌÌ_È_ËÂÌÚ_111-3);}.cls-12{fill:#bebbf8;}.cls-13,.cls-26{fill:#fff;}.cls-14,.cls-25{opacity:0.22;}.cls-15,.cls-16,.cls-88,.cls-98{mix-blend-mode:multiply;}.cls-15{fill:url(#_ÂÁ_Ï_ÌÌ_È_ËÂÌÚ_119);}.cls-16{fill:url(#_ÂÁ_Ï_ÌÌ_È_ËÂÌÚ_119-2);}.cls-17{fill:url(#_ÂÁ_Ï_ÌÌ_È_ËÂÌÚ_119-3);}.cls-18{fill:url(#_ÂÁ_Ï_ÌÌ_È_ËÂÌÚ_119-4);}.cls-19{fill:url(#_ÂÁ_Ï_ÌÌ_È_ËÂÌÚ_119-5);}.cls-20{opacity:0.85;}.cls-21{fill:url(#_ÂÁ_Ï_ÌÌ_È_ËÂÌÚ_111-4);}.cls-23{fill:#f1f2f2;}.cls-24{fill:#c0baf9;}.cls-25{fill:url(#_ÂÁ_Ï_ÌÌ_È_ËÂÌÚ_111-5);}.cls-26{opacity:0.5;}.cls-27{fill:#a7a5f9;}.cls-28{fill:url(#_ÂÁ_Ï_ÌÌ_È_ËÂÌÚ_111-6);}.cls-29{fill:url(#_ÂÁ_Ï_ÌÌ_È_ËÂÌÚ_111-7);}.cls-30{fill:url(#_ÂÁ_Ï_ÌÌ_È_ËÂÌÚ_111-8);}.cls-31{fill:url(#_ÂÁ_Ï_ÌÌ_È_ËÂÌÚ_111-9);}.cls-32{fill:url(#_ÂÁ_Ï_ÌÌ_È_ËÂÌÚ_111-10);}.cls-33{fill:url(#_ÂÁ_Ï_ÌÌ_È_ËÂÌÚ_111-11);}.cls-34{opacity:0.43;}.cls-35{fill:#1d1ba4;}.cls-36{fill:url(#_ÂÁ_Ï_ÌÌ_È_ËÂÌÚ_111-12);}.cls-37{fill:url(#_ÂÁ_Ï_ÌÌ_È_ËÂÌÚ_111-13);}.cls-38{fill:url(#_ÂÁ_Ï_ÌÌ_È_ËÂÌÚ_101);}.cls-39{fill:#574bcf;}.cls-40{opacity:0.56;}.cls-41{fill:url(#_ÂÁ_Ï_ÌÌ_È_ËÂÌÚ_119-6);}.cls-42{fill:url(#_ÂÁ_Ï_ÌÌ_È_ËÂÌÚ_119-7);}.cls-43{opacity:0.67;}.cls-45{fill:url(#_ÂÁ_Ï_ÌÌ_È_ËÂÌÚ_30);}.cls-46,.cls-49,.cls-52,.cls-55,.cls-57{opacity:0.75;}.cls-46{fill:url(#_ÂÁ_Ï_ÌÌ_È_ËÂÌÚ_30-2);}.cls-47{opacity:0.15;}.cls-48{fill:url(#_ÂÁ_Ï_ÌÌ_È_ËÂÌÚ_30-3);}.cls-49{fill:url(#_ÂÁ_Ï_ÌÌ_È_ËÂÌÚ_30-4);}.cls-50{opacity:0.1;}.cls-51{fill:url(#_ÂÁ_Ï_ÌÌ_È_ËÂÌÚ_30-5);}.cls-52{fill:url(#_ÂÁ_Ï_ÌÌ_È_ËÂÌÚ_30-6);}.cls-53{opacity:0.2;}.cls-54{fill:url(#_ÂÁ_Ï_ÌÌ_È_ËÂÌÚ_30-7);}.cls-55{fill:url(#_ÂÁ_Ï_ÌÌ_È_ËÂÌÚ_30-8);}.cls-56{fill:url(#_ÂÁ_Ï_ÌÌ_È_ËÂÌÚ_30-9);}.cls-57{fill:url(#_ÂÁ_Ï_ÌÌ_È_ËÂÌÚ_30-10);}.cls-58{opacity:0.13;fill:url(#_ÂÁ_Ï_ÌÌ_È_ËÂÌÚ_111-14);}.cls-59{opacity:0.95;}.cls-60{fill:url(#_ÂÁ_Ï_ÌÌ_È_ËÂÌÚ_119-8);}.cls-61{fill:url(#_ÂÁ_Ï_ÌÌ_È_ËÂÌÚ_111-15);}.cls-62{fill:url(#_ÂÁ_Ï_ÌÌ_È_ËÂÌÚ_111-16);}.cls-63{fill:url(#_ÂÁ_Ï_ÌÌ_È_ËÂÌÚ_111-17);}.cls-64{fill:url(#_ÂÁ_Ï_ÌÌ_È_ËÂÌÚ_111-18);}.cls-65{fill:url(#_ÂÁ_Ï_ÌÌ_È_ËÂÌÚ_111-19);}.cls-66{fill:url(#_ÂÁ_Ï_ÌÌ_È_ËÂÌÚ_111-20);}.cls-67{fill:url(#_ÂÁ_Ï_ÌÌ_È_ËÂÌÚ_111-21);}.cls-68{fill:url(#_ÂÁ_Ï_ÌÌ_È_ËÂÌÚ_111-22);}.cls-69{fill:url(#_ÂÁ_Ï_ÌÌ_È_ËÂÌÚ_111-23);}.cls-70{fill:url(#_ÂÁ_Ï_ÌÌ_È_ËÂÌÚ_111-24);}.cls-105,.cls-71{opacity:0.83;}.cls-71{fill:url(#_ÂÁ_Ï_ÌÌ_È_ËÂÌÚ_119-9);}.cls-72{fill:url(#_ÂÁ_Ï_ÌÌ_È_ËÂÌÚ_101-2);}.cls-73{fill:url(#_ÂÁ_Ï_ÌÌ_È_ËÂÌÚ_119-10);}.cls-74{fill:url(#_ÂÁ_Ï_ÌÌ_È_ËÂÌÚ_119-11);}.cls-75{fill:url(#_ÂÁ_Ï_ÌÌ_È_ËÂÌÚ_119-12);}.cls-76{fill:url(#_ÂÁ_Ï_ÌÌ_È_ËÂÌÚ_119-13);}.cls-77{fill:#564bcf;}.cls-78{fill:url(#_ÂÁ_Ï_ÌÌ_È_ËÂÌÚ_111-25);}.cls-79{fill:#806ab7;}.cls-80{opacity:0.88;}.cls-81{fill:url(#_ÂÁ_Ï_ÌÌ_È_ËÂÌÚ_119-14);}.cls-82{fill:url(#_ÂÁ_Ï_ÌÌ_È_ËÂÌÚ_111-26);}.cls-83{fill:url(#_ÂÁ_Ï_ÌÌ_È_ËÂÌÚ_83);}.cls-84{fill:url(#_ÂÁ_Ï_ÌÌ_È_ËÂÌÚ_83-2);}.cls-85{fill:url(#_ÂÁ_Ï_ÌÌ_È_ËÂÌÚ_63);}.cls-86{fill:url(#_ÂÁ_Ï_ÌÌ_È_ËÂÌÚ_83-3);}.cls-87{fill:url(#_ÂÁ_Ï_ÌÌ_È_ËÂÌÚ_75);}.cls-88,.cls-98{opacity:0.49;}.cls-88{fill:url(#_ÂÁ_Ï_ÌÌ_È_ËÂÌÚ_75-2);}.cls-89{fill:url(#_ÂÁ_Ï_ÌÌ_È_ËÂÌÚ_83-4);}.cls-90{fill:url(#_ÂÁ_Ï_ÌÌ_È_ËÂÌÚ_83-5);}.cls-91{fill:url(#_ÂÁ_Ï_ÌÌ_È_ËÂÌÚ_83-6);}.cls-92{fill:url(#_ÂÁ_Ï_ÌÌ_È_ËÂÌÚ_83-7);}.cls-93{fill:url(#_ÂÁ_Ï_ÌÌ_È_ËÂÌÚ_83-8);}.cls-94{fill:url(#_ÂÁ_Ï_ÌÌ_È_ËÂÌÚ_83-9);}.cls-95{fill:url(#_ÂÁ_Ï_ÌÌ_È_ËÂÌÚ_83-10);}.cls-96{fill:url(#_ÂÁ_Ï_ÌÌ_È_ËÂÌÚ_83-11);}.cls-97{fill:url(#_ÂÁ_Ï_ÌÌ_È_ËÂÌÚ_63-2);}.cls-98{fill:url(#_ÂÁ_Ï_ÌÌ_È_ËÂÌÚ_75-3);}.cls-99{fill:url(#_ÂÁ_Ï_ÌÌ_È_ËÂÌÚ_111-27);}.cls-100{fill:url(#_ÂÁ_Ï_ÌÌ_È_ËÂÌÚ_111-28);}.cls-101{fill:url(#_ÂÁ_Ï_ÌÌ_È_ËÂÌÚ_111-29);}.cls-102{fill:url(#_ÂÁ_Ï_ÌÌ_È_ËÂÌÚ_111-30);}.cls-103{fill:url(#_ÂÁ_Ï_ÌÌ_È_ËÂÌÚ_111-31);}.cls-104{fill:url(#_ÂÁ_Ï_ÌÌ_È_ËÂÌÚ_111-32);}.cls-105{fill:url(#_ÂÁ_Ï_ÌÌ_È_ËÂÌÚ_119-15);}.cls-106{fill:url(#_ÂÁ_Ï_ÌÌ_È_ËÂÌÚ_101-3);}.cls-107{opacity:0.57;}</style>
    <linearGradient id="_ÂÁ_Ï_ÌÌ_È_ËÂÌÚ_2" x1="2786.14" y1="2891.2" x2="5420.47" y2="-5224.67" gradientUnits="userSpaceOnUse">
      <stop offset="0" stop-color="#15134f"></stop>
      <stop offset="1" stop-color="#332782"></stop>
    </linearGradient>
    <linearGradient id="_ÂÁ_Ï_ÌÌ_È_ËÂÌÚ_111" x1="850.06" y1="1289.47" x2="2052.38" y2="1289.47" gradientUnits="userSpaceOnUse">
      <stop offset="0" stop-color="#d9d5ff"></stop>
      <stop offset="1" stop-color="#f9f9ff"></stop>
    </linearGradient>
    <linearGradient id="_ÂÁ_Ï_ÌÌ_È_ËÂÌÚ_111-2" x1="1451.22" y1="1362.16" x2="1451.22" y2="1516.81" xlink:href="#_ÂÁ_Ï_ÌÌ_È_ËÂÌÚ_111"></linearGradient>
    <linearGradient id="_ÂÁ_Ï_ÌÌ_È_ËÂÌÚ_111-3" x1="1451.22" y1="1477.71" x2="1451.22" y2="1862.94" xlink:href="#_ÂÁ_Ï_ÌÌ_È_ËÂÌÚ_111"></linearGradient>
    <linearGradient id="_ÂÁ_Ï_ÌÌ_È_ËÂÌÚ_119" x1="1492.14" y1="772.07" x2="1715.24" y2="772.07" gradientUnits="userSpaceOnUse">
      <stop offset="0" stop-color="#c1c0ff"></stop>
      <stop offset="1" stop-color="#d7d5ff"></stop>
    </linearGradient>
    <linearGradient id="_ÂÁ_Ï_ÌÌ_È_ËÂÌÚ_119-2" x1="1730.59" y1="772.07" x2="1953.69" y2="772.07" xlink:href="#_ÂÁ_Ï_ÌÌ_È_ËÂÌÚ_119"></linearGradient>
    <linearGradient id="_ÂÁ_Ï_ÌÌ_È_ËÂÌÚ_119-3" x1="11018.52" y1="-291.16" x2="11068.07" y2="-291.16" gradientTransform="translate(1309.53 -10271.22) rotate(90)" xlink:href="#_ÂÁ_Ï_ÌÌ_È_ËÂÌÚ_119"></linearGradient>
    <linearGradient id="_ÂÁ_Ï_ÌÌ_È_ËÂÌÚ_119-4" x1="1803.27" y1="771.64" x2="1817.07" y2="771.64" xlink:href="#_ÂÁ_Ï_ÌÌ_È_ËÂÌÚ_119"></linearGradient>
    <linearGradient id="_ÂÁ_Ï_ÌÌ_È_ËÂÌÚ_119-5" x1="1865.01" y1="771.64" x2="1878.75" y2="771.64" xlink:href="#_ÂÁ_Ï_ÌÌ_È_ËÂÌÚ_119"></linearGradient>
    <linearGradient id="_ÂÁ_Ï_ÌÌ_È_ËÂÌÚ_111-4" x1="1492.14" y1="1016.58" x2="1953.69" y2="1016.58" xlink:href="#_ÂÁ_Ï_ÌÌ_È_ËÂÌÚ_111"></linearGradient>
    <linearGradient id="_ÂÁ_Ï_ÌÌ_È_ËÂÌÚ_111-5" x1="1722.91" y1="518.38" x2="1722.91" y2="427.37" xlink:href="#_ÂÁ_Ï_ÌÌ_È_ËÂÌÚ_111"></linearGradient>
    <linearGradient id="_ÂÁ_Ï_ÌÌ_È_ËÂÌÚ_111-6" x1="1052.43" y1="394.76" x2="1182.15" y2="394.76" xlink:href="#_ÂÁ_Ï_ÌÌ_È_ËÂÌÚ_111"></linearGradient>
    <linearGradient id="_ÂÁ_Ï_ÌÌ_È_ËÂÌÚ_111-7" x1="1052.43" y1="402.54" x2="1117.29" y2="402.54" xlink:href="#_ÂÁ_Ï_ÌÌ_È_ËÂÌÚ_111"></linearGradient>
    <linearGradient id="_ÂÁ_Ï_ÌÌ_È_ËÂÌÚ_111-8" x1="1053.17" y1="438.1" x2="1182.89" y2="438.1" xlink:href="#_ÂÁ_Ï_ÌÌ_È_ËÂÌÚ_111"></linearGradient>
    <linearGradient id="_ÂÁ_Ï_ÌÌ_È_ËÂÌÚ_111-9" x1="1053.17" y1="445.88" x2="1118.03" y2="445.88" xlink:href="#_ÂÁ_Ï_ÌÌ_È_ËÂÌÚ_111"></linearGradient>
    <linearGradient id="_ÂÁ_Ï_ÌÌ_È_ËÂÌÚ_111-10" x1="1053.17" y1="481.43" x2="1182.89" y2="481.43" xlink:href="#_ÂÁ_Ï_ÌÌ_È_ËÂÌÚ_111"></linearGradient>
    <linearGradient id="_ÂÁ_Ï_ÌÌ_È_ËÂÌÚ_111-11" x1="1053.17" y1="489.21" x2="1118.03" y2="489.21" xlink:href="#_ÂÁ_Ï_ÌÌ_È_ËÂÌÚ_111"></linearGradient>
    <linearGradient id="_ÂÁ_Ï_ÌÌ_È_ËÂÌÚ_111-12" x1="708.8" y1="954.68" x2="1380.23" y2="954.68" xlink:href="#_ÂÁ_Ï_ÌÌ_È_ËÂÌÚ_111"></linearGradient>
    <linearGradient id="_ÂÁ_Ï_ÌÌ_È_ËÂÌÚ_111-13" x1="3126.77" y1="942.65" x2="3696.37" y2="942.65" xlink:href="#_ÂÁ_Ï_ÌÌ_È_ËÂÌÚ_111"></linearGradient>
    <linearGradient id="_ÂÁ_Ï_ÌÌ_È_ËÂÌÚ_101" x1="3569.42" y1="1302.02" x2="3122.76" y2="377.47" gradientUnits="userSpaceOnUse">
      <stop offset="0" stop-color="#5d2594"></stop>
      <stop offset="1" stop-color="#5351e1"></stop>
    </linearGradient>
    <linearGradient id="_ÂÁ_Ï_ÌÌ_È_ËÂÌÚ_119-6" x1="3172.77" y1="1268.67" x2="3435.08" y2="1088.84" xlink:href="#_ÂÁ_Ï_ÌÌ_È_ËÂÌÚ_119"></linearGradient>
    <linearGradient id="_ÂÁ_Ï_ÌÌ_È_ËÂÌÚ_119-7" x1="3178.37" y1="1263.07" x2="3440.68" y2="1083.24" xlink:href="#_ÂÁ_Ï_ÌÌ_È_ËÂÌÚ_119"></linearGradient>
    <linearGradient id="_ÂÁ_Ï_ÌÌ_È_ËÂÌÚ_30" x1="3169.97" y1="1105.32" x2="3432.28" y2="925.49" gradientUnits="userSpaceOnUse">
      <stop offset="0" stop-color="#008dc9"></stop>
      <stop offset="0.16" stop-color="#0694cb"></stop>
      <stop offset="0.4" stop-color="#17a7d1"></stop>
      <stop offset="0.68" stop-color="#32c6db"></stop>
      <stop offset="0.99" stop-color="#57f1e9"></stop>
      <stop offset="1" stop-color="#58f2e9"></stop>
    </linearGradient>
    <linearGradient id="_ÂÁ_Ï_ÌÌ_È_ËÂÌÚ_30-2" x1="3175.57" y1="1099.72" x2="3437.88" y2="919.88" xlink:href="#_ÂÁ_Ï_ÌÌ_È_ËÂÌÚ_30"></linearGradient>
    <linearGradient id="_ÂÁ_Ï_ÌÌ_È_ËÂÌÚ_30-3" x1="3325.25" y1="1268.67" x2="3587.56" y2="1088.84" xlink:href="#_ÂÁ_Ï_ÌÌ_È_ËÂÌÚ_30"></linearGradient>
    <linearGradient id="_ÂÁ_Ï_ÌÌ_È_ËÂÌÚ_30-4" x1="3330.85" y1="1263.07" x2="3593.16" y2="1083.24" xlink:href="#_ÂÁ_Ï_ÌÌ_È_ËÂÌÚ_30"></linearGradient>
    <linearGradient id="_ÂÁ_Ï_ÌÌ_È_ËÂÌÚ_30-5" x1="3491.35" y1="1271.47" x2="3753.66" y2="1091.64" xlink:href="#_ÂÁ_Ï_ÌÌ_È_ËÂÌÚ_30"></linearGradient>
    <linearGradient id="_ÂÁ_Ï_ÌÌ_È_ËÂÌÚ_30-6" x1="3496.95" y1="1265.87" x2="3759.26" y2="1086.04" xlink:href="#_ÂÁ_Ï_ÌÌ_È_ËÂÌÚ_30"></linearGradient>
    <linearGradient id="_ÂÁ_Ï_ÌÌ_È_ËÂÌÚ_30-7" x1="3479.65" y1="660.68" x2="3741.96" y2="480.84" xlink:href="#_ÂÁ_Ï_ÌÌ_È_ËÂÌÚ_30"></linearGradient>
    <linearGradient id="_ÂÁ_Ï_ÌÌ_È_ËÂÌÚ_30-8" x1="3485.25" y1="655.07" x2="3747.56" y2="475.24" xlink:href="#_ÂÁ_Ï_ÌÌ_È_ËÂÌÚ_30"></linearGradient>
    <linearGradient id="_ÂÁ_Ï_ÌÌ_È_ËÂÌÚ_30-9" x1="3325.25" y1="663.48" x2="3587.56" y2="483.65" xlink:href="#_ÂÁ_Ï_ÌÌ_È_ËÂÌÚ_30"></linearGradient>
    <linearGradient id="_ÂÁ_Ï_ÌÌ_È_ËÂÌÚ_30-10" x1="3330.85" y1="657.88" x2="3593.16" y2="478.04" xlink:href="#_ÂÁ_Ï_ÌÌ_È_ËÂÌÚ_30"></linearGradient>
    <linearGradient id="_ÂÁ_Ï_ÌÌ_È_ËÂÌÚ_111-14" x1="3411.57" y1="1416.22" x2="3411.57" y2="1306.56" gradientTransform="translate(4218.68 -2222.01) rotate(80.94)" xlink:href="#_ÂÁ_Ï_ÌÌ_È_ËÂÌÚ_111"></linearGradient>
    <linearGradient id="_ÂÁ_Ï_ÌÌ_È_ËÂÌÚ_119-8" x1="2921.51" y1="729.03" x2="3322.8" y2="729.03" xlink:href="#_ÂÁ_Ï_ÌÌ_È_ËÂÌÚ_119"></linearGradient>
    <linearGradient id="_ÂÁ_Ï_ÌÌ_È_ËÂÌÚ_111-15" x1="2952.85" y1="610.11" x2="3287.74" y2="610.11" xlink:href="#_ÂÁ_Ï_ÌÌ_È_ËÂÌÚ_111"></linearGradient>
    <linearGradient id="_ÂÁ_Ï_ÌÌ_È_ËÂÌÚ_111-16" x1="3041.46" y1="805.88" x2="3091.26" y2="805.88" xlink:href="#_ÂÁ_Ï_ÌÌ_È_ËÂÌÚ_111"></linearGradient>
    <linearGradient id="_ÂÁ_Ï_ÌÌ_È_ËÂÌÚ_111-17" x1="3101.33" y1="805.88" x2="3194.82" y2="805.88" xlink:href="#_ÂÁ_Ï_ÌÌ_È_ËÂÌÚ_111"></linearGradient>
    <linearGradient id="_ÂÁ_Ï_ÌÌ_È_ËÂÌÚ_111-18" x1="2952.85" y1="681.47" x2="3287.74" y2="681.47" xlink:href="#_ÂÁ_Ï_ÌÌ_È_ËÂÌÚ_111"></linearGradient>
    <linearGradient id="_ÂÁ_Ï_ÌÌ_È_ËÂÌÚ_111-19" x1="3473.05" y1="889.29" x2="3656.8" y2="889.29" xlink:href="#_ÂÁ_Ï_ÌÌ_È_ËÂÌÚ_111"></linearGradient>
    <linearGradient id="_ÂÁ_Ï_ÌÌ_È_ËÂÌÚ_111-20" x1="3473.05" y1="906.51" x2="3564.92" y2="906.51" xlink:href="#_ÂÁ_Ï_ÌÌ_È_ËÂÌÚ_111"></linearGradient>
    <linearGradient id="_ÂÁ_Ï_ÌÌ_È_ËÂÌÚ_111-21" x1="3474.1" y1="985.24" x2="3657.85" y2="985.24" xlink:href="#_ÂÁ_Ï_ÌÌ_È_ËÂÌÚ_111"></linearGradient>
    <linearGradient id="_ÂÁ_Ï_ÌÌ_È_ËÂÌÚ_111-22" x1="3474.1" y1="1002.46" x2="3565.97" y2="1002.46" xlink:href="#_ÂÁ_Ï_ÌÌ_È_ËÂÌÚ_111"></linearGradient>
    <linearGradient id="_ÂÁ_Ï_ÌÌ_È_ËÂÌÚ_111-23" x1="3474.1" y1="1081.19" x2="3657.85" y2="1081.19" xlink:href="#_ÂÁ_Ï_ÌÌ_È_ËÂÌÚ_111"></linearGradient>
    <linearGradient id="_ÂÁ_Ï_ÌÌ_È_ËÂÌÚ_111-24" x1="3474.1" y1="1098.41" x2="3565.97" y2="1098.41" xlink:href="#_ÂÁ_Ï_ÌÌ_È_ËÂÌÚ_111"></linearGradient>
    <linearGradient id="_ÂÁ_Ï_ÌÌ_È_ËÂÌÚ_119-9" x1="3370.26" y1="695.11" x2="3776.76" y2="695.11" xlink:href="#_ÂÁ_Ï_ÌÌ_È_ËÂÌÚ_119"></linearGradient>
    <linearGradient id="_ÂÁ_Ï_ÌÌ_È_ËÂÌÚ_101-2" x1="3510.43" y1="695.11" x2="3662.92" y2="695.11" xlink:href="#_ÂÁ_Ï_ÌÌ_È_ËÂÌÚ_101"></linearGradient>
    <linearGradient id="_ÂÁ_Ï_ÌÌ_È_ËÂÌÚ_119-10" x1="3399.57" y1="897.94" x2="3433.97" y2="897.94" xlink:href="#_ÂÁ_Ï_ÌÌ_È_ËÂÌÚ_119"></linearGradient>
    <linearGradient id="_ÂÁ_Ï_ÌÌ_È_ËÂÌÚ_119-11" x1="3399.57" y1="992.61" x2="3433.97" y2="992.61" xlink:href="#_ÂÁ_Ï_ÌÌ_È_ËÂÌÚ_119"></linearGradient>
    <linearGradient id="_ÂÁ_Ï_ÌÌ_È_ËÂÌÚ_119-12" x1="3399.57" y1="1089.8" x2="3433.97" y2="1089.8" gradientTransform="translate(667.19 -1212.76) rotate(22.25)" xlink:href="#_ÂÁ_Ï_ÌÌ_È_ËÂÌÚ_119"></linearGradient>
    <linearGradient id="_ÂÁ_Ï_ÌÌ_È_ËÂÌÚ_119-13" x1="4657.72" y1="969.14" x2="5949.69" y2="969.14" xlink:href="#_ÂÁ_Ï_ÌÌ_È_ËÂÌÚ_119"></linearGradient>
    <linearGradient id="_ÂÁ_Ï_ÌÌ_È_ËÂÌÚ_111-25" x1="5303.7" y1="1374.16" x2="5303.7" y2="1485.45" xlink:href="#_ÂÁ_Ï_ÌÌ_È_ËÂÌÚ_111"></linearGradient>
    <linearGradient id="_ÂÁ_Ï_ÌÌ_È_ËÂÌÚ_119-14" x1="5040.07" y1="845.41" x2="5567.34" y2="845.41" xlink:href="#_ÂÁ_Ï_ÌÌ_È_ËÂÌÚ_119"></linearGradient>
    <linearGradient id="_ÂÁ_Ï_ÌÌ_È_ËÂÌÚ_111-26" x1="5141.36" y1="671.84" x2="5466.04" y2="671.84" gradientTransform="translate(2028.48 -3553.51) rotate(45)" xlink:href="#_ÂÁ_Ï_ÌÌ_È_ËÂÌÚ_111"></linearGradient>
    <linearGradient id="_ÂÁ_Ï_ÌÌ_È_ËÂÌÚ_83" x1="5126.3" y1="1129.57" x2="5481.11" y2="1129.57" gradientUnits="userSpaceOnUse">
      <stop offset="0" stop-color="#fe5294"></stop>
      <stop offset="1" stop-color="#b94287"></stop>
    </linearGradient>
    <linearGradient id="_ÂÁ_Ï_ÌÌ_È_ËÂÌÚ_83-2" x1="5326.45" y1="1210.97" x2="5339.37" y2="1210.97" xlink:href="#_ÂÁ_Ï_ÌÌ_È_ËÂÌÚ_83"></linearGradient>
    <linearGradient id="_ÂÁ_Ï_ÌÌ_È_ËÂÌÚ_63" x1="5303.7" y1="608.64" x2="5430.11" y2="608.64" gradientUnits="userSpaceOnUse">
      <stop offset="0" stop-color="#53aafc"></stop>
      <stop offset="1" stop-color="#a2ccff"></stop>
    </linearGradient>
    <linearGradient id="_ÂÁ_Ï_ÌÌ_È_ËÂÌÚ_83-3" x1="5177.3" y1="671.84" x2="5358.02" y2="671.84" xlink:href="#_ÂÁ_Ï_ÌÌ_È_ËÂÌÚ_83"></linearGradient>
    <linearGradient id="_ÂÁ_Ï_ÌÌ_È_ËÂÌÚ_75" x1="5317.3" y1="728.92" x2="5430.11" y2="728.92" gradientUnits="userSpaceOnUse">
      <stop offset="0" stop-color="#3f4b89"></stop>
      <stop offset="1" stop-color="#594482"></stop>
    </linearGradient>
    <linearGradient id="_ÂÁ_Ï_ÌÌ_È_ËÂÌÚ_75-2" x1="4931.59" y1="964.15" x2="4537.64" y2="1212.23" xlink:href="#_ÂÁ_Ï_ÌÌ_È_ËÂÌÚ_75"></linearGradient>
    <linearGradient id="_ÂÁ_Ï_ÌÌ_È_ËÂÌÚ_83-4" x1="4581.73" y1="1132.81" x2="4532.17" y2="1164.02" xlink:href="#_ÂÁ_Ï_ÌÌ_È_ËÂÌÚ_83"></linearGradient>
    <linearGradient id="_ÂÁ_Ï_ÌÌ_È_ËÂÌÚ_83-5" x1="4640.85" y1="1111.17" x2="4578.55" y2="1150.4" xlink:href="#_ÂÁ_Ï_ÌÌ_È_ËÂÌÚ_83"></linearGradient>
    <linearGradient id="_ÂÁ_Ï_ÌÌ_È_ËÂÌÚ_83-6" x1="4706.85" y1="1067" x2="4618.54" y2="1122.62" xlink:href="#_ÂÁ_Ï_ÌÌ_È_ËÂÌÚ_83"></linearGradient>
    <linearGradient id="_ÂÁ_Ï_ÌÌ_È_ËÂÌÚ_83-7" x1="4752.66" y1="1088.94" x2="4677.27" y2="1136.42" xlink:href="#_ÂÁ_Ï_ÌÌ_È_ËÂÌÚ_83"></linearGradient>
    <linearGradient id="_ÂÁ_Ï_ÌÌ_È_ËÂÌÚ_83-8" x1="4821.76" y1="1034.64" x2="4714.39" y2="1102.26" xlink:href="#_ÂÁ_Ï_ÌÌ_È_ËÂÌÚ_83"></linearGradient>
    <linearGradient id="_ÂÁ_Ï_ÌÌ_È_ËÂÌÚ_83-9" x1="4868.24" y1="1054.4" x2="4772.5" y2="1114.69" xlink:href="#_ÂÁ_Ï_ÌÌ_È_ËÂÌÚ_83"></linearGradient>
    <linearGradient id="_ÂÁ_Ï_ÌÌ_È_ËÂÌÚ_83-10" x1="4906.58" y1="1100.8" x2="4838.17" y2="1143.88" xlink:href="#_ÂÁ_Ï_ÌÌ_È_ËÂÌÚ_83"></linearGradient>
    <linearGradient id="_ÂÁ_Ï_ÌÌ_È_ËÂÌÚ_83-11" x1="4949.67" y1="1131.64" x2="4899.43" y2="1163.28" xlink:href="#_ÂÁ_Ï_ÌÌ_È_ËÂÌÚ_83"></linearGradient>
    <linearGradient id="_ÂÁ_Ï_ÌÌ_È_ËÂÌÚ_63-2" x1="5622.74" y1="831.46" x2="5723.02" y2="831.46" xlink:href="#_ÂÁ_Ï_ÌÌ_È_ËÂÌÚ_63"></linearGradient>
    <linearGradient id="_ÂÁ_Ï_ÌÌ_È_ËÂÌÚ_75-3" x1="5622.74" y1="955.44" x2="5723.02" y2="955.44" xlink:href="#_ÂÁ_Ï_ÌÌ_È_ËÂÌÚ_75"></linearGradient>
    <linearGradient id="_ÂÁ_Ï_ÌÌ_È_ËÂÌÚ_111-27" x1="5745.63" y1="696.29" x2="5983.18" y2="696.29" xlink:href="#_ÂÁ_Ï_ÌÌ_È_ËÂÌÚ_111"></linearGradient>
    <linearGradient id="_ÂÁ_Ï_ÌÌ_È_ËÂÌÚ_111-28" x1="5745.63" y1="718.55" x2="5864.4" y2="718.55" xlink:href="#_ÂÁ_Ï_ÌÌ_È_ËÂÌÚ_111"></linearGradient>
    <linearGradient id="_ÂÁ_Ï_ÌÌ_È_ËÂÌÚ_111-29" x1="5746.99" y1="820.33" x2="5984.53" y2="820.33" xlink:href="#_ÂÁ_Ï_ÌÌ_È_ËÂÌÚ_111"></linearGradient>
    <linearGradient id="_ÂÁ_Ï_ÌÌ_È_ËÂÌÚ_111-30" x1="5746.99" y1="842.59" x2="5865.76" y2="842.59" xlink:href="#_ÂÁ_Ï_ÌÌ_È_ËÂÌÚ_111"></linearGradient>
    <linearGradient id="_ÂÁ_Ï_ÌÌ_È_ËÂÌÚ_111-31" x1="5746.99" y1="944.36" x2="5984.53" y2="944.36" xlink:href="#_ÂÁ_Ï_ÌÌ_È_ËÂÌÚ_111"></linearGradient>
    <linearGradient id="_ÂÁ_Ï_ÌÌ_È_ËÂÌÚ_111-32" x1="5746.99" y1="966.63" x2="5865.76" y2="966.63" xlink:href="#_ÂÁ_Ï_ÌÌ_È_ËÂÌÚ_111"></linearGradient>
    <linearGradient id="_ÂÁ_Ï_ÌÌ_È_ËÂÌÚ_119-15" x1="5655.47" y1="1142.94" x2="5986.61" y2="1142.94" xlink:href="#_ÂÁ_Ï_ÌÌ_È_ËÂÌÚ_119"></linearGradient>
    <linearGradient id="_ÂÁ_Ï_ÌÌ_È_ËÂÌÚ_101-3" x1="5769.66" y1="1142.94" x2="5893.88" y2="1142.94" xlink:href="#_ÂÁ_Ï_ÌÌ_È_ËÂÌÚ_101"></linearGradient>
  </defs>
  <g class="cls-1">
    <g id="_ÎÓÈ_1" data-name="—ÎÓÈ_1">
      <rect class="cls-2" width="6800" height="2000"></rect>
      <rect class="cls-3" x="1053.17" y="1202.26" width="177.98" height="258.7"></rect>
      <rect class="cls-3" x="1034" y="1182.07" width="177.98" height="258.7"></rect>
      <rect class="cls-3" x="1433.44" y="357.45" width="422.04" height="302.59"></rect>
      <path class="cls-4" d="M2217.43,919.59a125.55,125.55,0,0,0-19.35-46.71l9.27-13.34-29.88-29.88-13.34,9.27a125.55,125.55,0,0,0-46.71-19.35l-2.71-16.94h-42.58l-2.72,16.94a125.62,125.62,0,0,0-46.71,19.35l-13.34-9.27-29.88,29.88,9.27,13.34a125.55,125.55,0,0,0-19.35,46.71l-16.94,2.71v42.58l16.94,2.72a125.62,125.62,0,0,0,19.35,46.71l-9.27,13.34,29.88,29.87,13.34-9.26a125.62,125.62,0,0,0,46.71,19.35l2.72,16.94h42.58l2.71-16.94a125.55,125.55,0,0,0,46.71-19.35l13.34,9.26,29.88-29.87-9.27-13.34a125.62,125.62,0,0,0,19.35-46.71l16.94-2.72V922.3Zm-124,75.64a51.64,51.64,0,1,1,51.64-51.64A51.65,51.65,0,0,1,2093.42,995.23Z"></path>
      <path class="cls-5" d="M1082.81,586.93a98.79,98.79,0,0,0-15.21-36.71l7.28-10.49-23.48-23.49-10.49,7.28a98.84,98.84,0,0,0-36.72-15.21L1002.05,495H968.58l-2.14,13.31a98.79,98.79,0,0,0-36.71,15.21l-10.49-7.28-23.49,23.49L903,550.22a98.79,98.79,0,0,0-15.21,36.71l-13.31,2.14v33.47l13.31,2.14A98.84,98.84,0,0,0,903,661.4l-7.28,10.49,23.49,23.48,10.49-7.28a98.79,98.79,0,0,0,36.71,15.21l2.14,13.32h33.47l2.14-13.32a98.84,98.84,0,0,0,36.72-15.21l10.49,7.28,23.48-23.48-7.28-10.49a98.84,98.84,0,0,0,15.21-36.72l13.32-2.14V589.07ZM985.32,646.4a40.6,40.6,0,1,1,40.59-40.59A40.59,40.59,0,0,1,985.32,646.4Z"></path>
      <path class="cls-5" d="M2003.73,543.52a64.32,64.32,0,0,0-9.9-23.91l4.74-6.84-15.3-15.29-6.83,4.74a64.45,64.45,0,0,0-23.92-9.91l-1.39-8.67h-21.8l-1.4,8.67a64.34,64.34,0,0,0-23.91,9.91l-6.83-4.74-15.3,15.29,4.74,6.84a64.34,64.34,0,0,0-9.91,23.91l-8.67,1.39v21.81l8.67,1.39a64.45,64.45,0,0,0,9.91,23.92l-4.74,6.83,15.3,15.3,6.83-4.75a64.17,64.17,0,0,0,23.91,9.91l1.4,8.68h21.8l1.39-8.68a64.29,64.29,0,0,0,23.92-9.91l6.83,4.75,15.3-15.3-4.74-6.83a64.44,64.44,0,0,0,9.9-23.92l8.68-1.39V544.91Zm-63.5,38.74a26.45,26.45,0,1,1,26.44-26.44A26.44,26.44,0,0,1,1940.23,582.26Z"></path>
      <path class="cls-6" d="M2052.38,1244V629.62a29,29,0,0,0-29-29H879.07a29,29,0,0,0-29,29V1244Z"></path>
      <path class="cls-7" d="M850.06,1241v67.94a29,29,0,0,0,29,29h1144.3a29,29,0,0,0,29-29V1241Z"></path>
      <rect class="cls-8" x="874.51" y="624.46" width="1153.43" height="616.54"></rect>
      <path class="cls-9" d="M1600.11,1491.37H1302.33a54.4,54.4,0,0,0,22.23-43.86V1337.94h253.33v109.57A54.39,54.39,0,0,0,1600.11,1491.37Z"></path>
      <rect class="cls-10" x="1324.56" y="1337.94" width="253.33" height="33.42"></rect>
      <path class="cls-11" d="M1281.59,1491.37h339.26a25.18,25.18,0,0,1,25.18,25.18v0a0,0,0,0,1,0,0H1256.41a0,0,0,0,1,0,0v0A25.18,25.18,0,0,1,1281.59,1491.37Z"></path>
      <circle class="cls-12" cx="1451.22" cy="1289.47" r="17.78"></circle>
      <path class="cls-13" d="M2093.42,1216.51a2.92,2.92,0,0,1-2.92-2.92v-11.65a2.92,2.92,0,0,1,5.83,0v11.65A2.92,2.92,0,0,1,2093.42,1216.51Zm0-35a2.92,2.92,0,0,1-2.92-2.92V1167a2.92,2.92,0,1,1,5.83,0v11.65A2.92,2.92,0,0,1,2093.42,1181.55Zm0-35a2.91,2.91,0,0,1-2.92-2.91V1132a2.92,2.92,0,0,1,5.83,0v11.66A2.91,2.91,0,0,1,2093.42,1146.58Zm0-35a2.92,2.92,0,0,1-2.92-2.91v-11.66a2.92,2.92,0,0,1,5.83,0v11.66A2.92,2.92,0,0,1,2093.42,1111.62Zm0-35a2.92,2.92,0,0,1-2.92-2.92v-11.65a2.92,2.92,0,1,1,5.83,0v11.65A2.92,2.92,0,0,1,2093.42,1076.66Zm0-35a2.91,2.91,0,0,1-2.92-2.91v-11.66a2.92,2.92,0,0,1,5.83,0v11.66A2.91,2.91,0,0,1,2093.42,1041.69Zm0-35a2.92,2.92,0,0,1-2.92-2.91V992.16a2.92,2.92,0,0,1,5.83,0v11.66A2.92,2.92,0,0,1,2093.42,1006.73Zm0-35a2.92,2.92,0,0,1-2.92-2.92V957.2a2.92,2.92,0,1,1,5.83,0v11.65A2.92,2.92,0,0,1,2093.42,971.77Zm0-35a2.91,2.91,0,0,1-2.92-2.91V922.24a2.92,2.92,0,1,1,5.83,0v11.65A2.91,2.91,0,0,1,2093.42,936.8Zm0-35a2.91,2.91,0,0,1-2.92-2.91V887.27a2.92,2.92,0,0,1,5.83,0v11.66A2.91,2.91,0,0,1,2093.42,901.84Zm0-35a2.92,2.92,0,0,1-2.92-2.92V852.31a2.92,2.92,0,0,1,5.83,0V864A2.92,2.92,0,0,1,2093.42,866.88Zm0-35a2.91,2.91,0,0,1-2.92-2.91V817.35a2.92,2.92,0,1,1,5.83,0V829A2.91,2.91,0,0,1,2093.42,831.91Zm0-35a2.91,2.91,0,0,1-2.92-2.91V782.38a2.92,2.92,0,0,1,5.83,0V794A2.91,2.91,0,0,1,2093.42,797Zm0-35a2.92,2.92,0,0,1-2.92-2.92V747.42a2.92,2.92,0,0,1,5.83,0v11.65A2.92,2.92,0,0,1,2093.42,762Zm0-35a2.91,2.91,0,0,1-2.92-2.91V712.46a2.92,2.92,0,1,1,5.83,0v11.65A2.91,2.91,0,0,1,2093.42,727Zm0-35a2.91,2.91,0,0,1-2.92-2.91V677.49a2.92,2.92,0,0,1,5.83,0v11.66A2.91,2.91,0,0,1,2093.42,692.06Zm0-35a2.92,2.92,0,0,1-2.92-2.92V642.53a2.92,2.92,0,0,1,5.83,0v11.65A2.92,2.92,0,0,1,2093.42,657.1Zm0-35a2.91,2.91,0,0,1-2.92-2.91V607.57a2.92,2.92,0,1,1,5.83,0v11.65A2.91,2.91,0,0,1,2093.42,622.13Zm-.31-34.94a2.92,2.92,0,0,1-2.89-2.52,29.71,29.71,0,0,0-3.25-10,2.91,2.91,0,1,1,5.13-2.75,35.59,35.59,0,0,1,3.9,12,2.92,2.92,0,0,1-2.5,3.28ZM2072.48,561a2.84,2.84,0,0,1-1.06-.2,30,30,0,0,0-10.36-2,2.92,2.92,0,0,1,.05-5.83h.06a35.49,35.49,0,0,1,12.37,2.46,2.91,2.91,0,0,1-1.06,5.62Zm-34.68-2.26h-11.65a2.92,2.92,0,0,1,0-5.83h11.65a2.92,2.92,0,1,1,0,5.83Zm-35,0h-11.65a2.92,2.92,0,1,1,0-5.83h11.65a2.92,2.92,0,0,1,0,5.83Zm-35,0h-11.66a2.92,2.92,0,0,1,0-5.83h11.66a2.92,2.92,0,0,1,0,5.83Zm-35,0h-11.65a2.92,2.92,0,0,1,0-5.83h11.65a2.92,2.92,0,1,1,0,5.83Zm-35,0H1886.3a2.92,2.92,0,1,1,0-5.83H1898a2.92,2.92,0,0,1,0,5.83Zm-35,0h-11.66a2.92,2.92,0,0,1,0-5.83H1863a2.92,2.92,0,0,1,0,5.83Zm-35,0h-11.65a2.92,2.92,0,0,1,0-5.83H1828a2.92,2.92,0,1,1,0,5.83Zm-35,0h-11.65a2.92,2.92,0,1,1,0-5.83h11.65a2.92,2.92,0,1,1,0,5.83Zm-35,0h-11.66a2.92,2.92,0,0,1,0-5.83h11.66a2.92,2.92,0,0,1,0,5.83Zm-35,0h-11.66a2.92,2.92,0,0,1,0-5.83h11.66a2.92,2.92,0,0,1,0,5.83Zm-35,0h-11.65a2.92,2.92,0,1,1,0-5.83h11.65a2.92,2.92,0,1,1,0,5.83Zm-35,0h-11.66a2.92,2.92,0,0,1,0-5.83h11.66a2.92,2.92,0,0,1,0,5.83Zm-35,0h-11.66a2.92,2.92,0,0,1,0-5.83h11.66a2.92,2.92,0,0,1,0,5.83Zm-35,0h-11.65a2.92,2.92,0,1,1,0-5.83h11.65a2.92,2.92,0,1,1,0,5.83Zm-35,0h-11.65a2.92,2.92,0,1,1,0-5.83h11.65a2.92,2.92,0,0,1,0,5.83Zm-35,0H1501.7a2.92,2.92,0,0,1,0-5.83h11.66a2.92,2.92,0,0,1,0,5.83Zm-35,0h-11.65a2.92,2.92,0,0,1,0-5.83h11.65a2.92,2.92,0,1,1,0,5.83Zm-35,0h-11.65a2.92,2.92,0,1,1,0-5.83h11.65a2.92,2.92,0,0,1,0,5.83Zm-35,0h-11.66a2.92,2.92,0,0,1,0-5.83h11.66a2.92,2.92,0,0,1,0,5.83Zm-35,0h-11.65a2.92,2.92,0,0,1,0-5.83h11.65a2.92,2.92,0,1,1,0,5.83Zm-35,0h-11.65a2.92,2.92,0,1,1,0-5.83h11.65a2.92,2.92,0,0,1,0,5.83Zm-35,0h-11.66a2.92,2.92,0,0,1,0-5.83h11.66a2.92,2.92,0,0,1,0,5.83Zm-35,0H1257a2.92,2.92,0,0,1,0-5.83h11.65a2.92,2.92,0,1,1,0,5.83Zm-35,0H1222a2.92,2.92,0,1,1,0-5.83h11.65a2.92,2.92,0,0,1,0,5.83Zm-35,0H1187a2.92,2.92,0,0,1,0-5.83h11.66a2.92,2.92,0,0,1,0,5.83Zm-35,0h-11.66a2.92,2.92,0,0,1,0-5.83h11.66a2.92,2.92,0,0,1,0,5.83Zm-35,0h-11.65a2.92,2.92,0,1,1,0-5.83h11.65a2.92,2.92,0,1,1,0,5.83Zm-35,0h-11.66a2.92,2.92,0,0,1,0-5.83h11.66a2.92,2.92,0,0,1,0,5.83Zm-35,0h-11.66a2.92,2.92,0,0,1,0-5.83h11.66a2.92,2.92,0,0,1,0,5.83Zm-35,0h-11.65a2.92,2.92,0,1,1,0-5.83h11.65a2.92,2.92,0,1,1,0,5.83Zm-35,0H977.25a2.92,2.92,0,0,1,0-5.83h11.66a2.92,2.92,0,0,1,0,5.83Z"></path>
      <polygon class="cls-14" points="874.51 1241 2027.94 1241 2027.94 624.46 874.51 1241 874.51 1241"></polygon>
      <rect class="cls-15" x="1492.14" y="720.79" width="223.1" height="102.57"></rect>
      <rect class="cls-16" x="1730.59" y="720.79" width="223.1" height="102.57"></rect>
      <path class="cls-17" d="M1587,748.06l33.11,19.12a5.66,5.66,0,0,1,0,9.79L1587,796.08a5.65,5.65,0,0,1-8.48-4.89V753A5.66,5.66,0,0,1,1587,748.06Z"></path>
      <path class="cls-18" d="M1811.45,770.14a1.59,1.59,0,1,0,0,3,5.93,5.93,0,0,1,.65,3.11v11q0,3.91,3.71,3.91h1.26v4h-2.21c-2.51,0-4.4-.62-5.67-1.88a7.45,7.45,0,0,1-1.9-5.54V776.16c0-1.68-.76-2.51-2.26-2.51h-1.76v-4H1805c1.5,0,2.26-.84,2.26-2.51V755.59a7.46,7.46,0,0,1,1.9-5.54,7.77,7.77,0,0,1,5.67-1.88h2.21v4h-1.26q-3.7,0-3.71,3.92v11A5.93,5.93,0,0,1,1811.45,770.14Z"></path>
      <path class="cls-19" d="M1878.75,769.64v4h-1.7c-1.48,0-2.21.83-2.21,2.51v11.53a7.42,7.42,0,0,1-1.93,5.54,7.83,7.83,0,0,1-5.69,1.88H1865v-4h1.2q3.82,0,3.82-3.91v-11a6.27,6.27,0,0,1,.62-3.14,3.55,3.55,0,0,1,2.09-1.48,3.51,3.51,0,0,1-2.09-1.48A6.23,6.23,0,0,1,1870,767v-11q0-3.91-3.82-3.92H1865v-4h2.21a7.87,7.87,0,0,1,5.69,1.88,7.43,7.43,0,0,1,1.93,5.54v11.54c0,1.67.73,2.51,2.21,2.51Z"></path>
      <g class="cls-20">
        <rect class="cls-21" x="1492.14" y="880.43" width="461.56" height="272.3"></rect>
        <path class="cls-22" d="M1503.32,856.07h439.19a11.19,11.19,0,0,1,11.19,11.19v13.18a0,0,0,0,1,0,0H1492.14a0,0,0,0,1,0,0V867.26A11.19,11.19,0,0,1,1503.32,856.07Z"></path>
        <circle class="cls-23" cx="1519.25" cy="868.88" r="4.39"></circle>
        <circle class="cls-23" cx="1533.42" cy="868.88" r="4.39"></circle>
        <circle class="cls-23" cx="1547.58" cy="868.88" r="4.39"></circle>
        <rect class="cls-24" x="1522.4" y="912.99" width="191.59" height="12.02"></rect>
        <rect class="cls-24" x="1522.4" y="940.58" width="191.59" height="12.02"></rect>
        <rect class="cls-24" x="1731.84" y="911.75" width="191.59" height="95.98"></rect>
        <rect class="cls-24" x="1522.4" y="1025.43" width="191.59" height="95.98"></rect>
        <rect class="cls-24" x="1522.4" y="968.17" width="191.59" height="12.02"></rect>
        <rect class="cls-24" x="1522.4" y="995.75" width="191.59" height="12.02"></rect>
        <rect class="cls-24" x="1731.84" y="1026.03" width="191.59" height="12.02"></rect>
        <rect class="cls-24" x="1731.84" y="1053.62" width="191.59" height="12.02"></rect>
        <rect class="cls-24" x="1731.84" y="1081.21" width="191.59" height="12.02"></rect>
        <rect class="cls-24" x="1731.84" y="1108.79" width="191.59" height="12.02"></rect>
      </g>
      <rect class="cls-25" x="1631.8" y="398.65" width="182.22" height="121.94"></rect>
      <rect class="cls-26" x="1040.08" y="385.6" width="226.76" height="26.11"></rect>
      <rect class="cls-26" x="1040.08" y="428.93" width="226.76" height="26.11"></rect>
      <rect class="cls-26" x="1040.08" y="472.26" width="226.76" height="26.11"></rect>
      <rect class="cls-22" x="985.32" y="385.6" width="54.76" height="26.15"></rect>
      <rect class="cls-8" x="985.32" y="428.91" width="54.76" height="26.15"></rect>
      <rect class="cls-27" x="985.32" y="472.23" width="54.76" height="26.15"></rect>
      <rect class="cls-28" x="1052.43" y="393.1" width="129.72" height="3.33"></rect>
      <rect class="cls-29" x="1052.43" y="400.88" width="64.86" height="3.33"></rect>
      <rect class="cls-30" x="1053.17" y="436.43" width="129.72" height="3.33"></rect>
      <rect class="cls-31" x="1053.17" y="444.21" width="64.86" height="3.33"></rect>
      <rect class="cls-32" x="1053.17" y="479.76" width="129.72" height="3.33"></rect>
      <rect class="cls-33" x="1053.17" y="487.54" width="64.86" height="3.33"></rect>
      <circle class="cls-24" cx="1674.08" cy="438.12" r="26.69" transform="translate(944.29 2007.16) rotate(-79.72)"></circle>
      <path class="cls-26" d="M1443.67,335.17h401.59a10.23,10.23,0,0,1,10.23,10.23v12.05a0,0,0,0,1,0,0h-422a0,0,0,0,1,0,0V345.4A10.23,10.23,0,0,1,1443.67,335.17Z"></path>
      <path class="cls-24" d="M1462.25,346.89a4,4,0,1,1-4-4A4,4,0,0,1,1462.25,346.89Z"></path>
      <path class="cls-24" d="M1475.2,346.89a4,4,0,1,1-4-4A4,4,0,0,1,1475.2,346.89Z"></path>
      <path class="cls-24" d="M1488.15,346.89a4,4,0,1,1-4-4A4,4,0,0,1,1488.15,346.89Z"></path>
      <g class="cls-34">
        <circle class="cls-13" cx="1674.08" cy="425.91" r="8.08" transform="translate(-46.61 273.66) rotate(-9.22)"></circle>
        <path class="cls-13" d="M1674.07,435.3h0a15.24,15.24,0,0,1,15.24,15.24v1a0,0,0,0,1,0,0h-30.48a0,0,0,0,1,0,0v-1a15.24,15.24,0,0,1,15.24-15.24Z"></path>
      </g>
      <rect class="cls-35" x="1326.97" y="508.75" width="12.41" height="12.41"></rect>
      <rect class="cls-35" x="1345.67" y="508.75" width="12.41" height="12.41"></rect>
      <rect class="cls-35" x="1364.37" y="508.75" width="12.41" height="12.41"></rect>
      <rect class="cls-22" x="858.8" y="1396.06" width="12.41" height="12.41"></rect>
      <rect class="cls-22" x="877.5" y="1396.06" width="12.41" height="12.41"></rect>
      <rect class="cls-22" x="896.21" y="1396.06" width="12.41" height="12.41"></rect>
      <rect class="cls-27" x="1643.96" y="1383.65" width="12.41" height="12.41"></rect>
      <rect class="cls-27" x="1662.66" y="1383.65" width="12.41" height="12.41"></rect>
      <rect class="cls-27" x="1681.37" y="1383.65" width="12.41" height="12.41"></rect>
      <rect class="cls-27" x="1700.07" y="1383.65" width="12.41" height="12.41"></rect>
      <rect class="cls-27" x="1718.77" y="1383.65" width="12.41" height="12.41"></rect>
      <rect class="cls-27" x="1737.48" y="1383.65" width="12.41" height="12.41"></rect>
      <rect class="cls-27" x="1757.75" y="1383.65" width="264.4" height="12.41"></rect>
      <rect class="cls-26" x="1454.22" y="398.65" width="158.67" height="3.61"></rect>
      <rect class="cls-26" x="1454.22" y="439.76" width="158.67" height="3.61"></rect>
      <rect class="cls-26" x="1454.22" y="447.17" width="158.67" height="3.61"></rect>
      <rect class="cls-26" x="1454.22" y="454.58" width="52.93" height="3.61"></rect>
      <rect class="cls-26" x="1454.22" y="406.06" width="158.67" height="3.61"></rect>
      <rect class="cls-26" x="1454.22" y="413.47" width="158.67" height="3.61"></rect>
      <rect class="cls-26" x="1454.22" y="420.88" width="109.97" height="3.61"></rect>
      <rect class="cls-26" x="1454.22" y="470.97" width="158.67" height="3.61"></rect>
      <rect class="cls-26" x="1454.22" y="478.38" width="158.67" height="3.61"></rect>
      <rect class="cls-26" x="1454.22" y="485.78" width="158.67" height="3.61"></rect>
      <rect class="cls-26" x="1454.22" y="493.19" width="109.97" height="3.61"></rect>
      <g class="cls-20">
        <rect class="cls-36" x="708.8" y="756.62" width="671.43" height="396.11"></rect>
        <path class="cls-22" d="M725.08,721.61H1364a16.27,16.27,0,0,1,16.27,16.27v19.17a0,0,0,0,1,0,0H708.8a0,0,0,0,1,0,0V737.89A16.27,16.27,0,0,1,725.08,721.61Z"></path>
        <path class="cls-23" d="M754.63,740.25a6.39,6.39,0,1,1-6.38-6.39A6.39,6.39,0,0,1,754.63,740.25Z"></path>
        <path class="cls-23" d="M775.24,740.25a6.39,6.39,0,1,1-6.39-6.39A6.39,6.39,0,0,1,775.24,740.25Z"></path>
        <path class="cls-23" d="M795.85,740.25a6.39,6.39,0,1,1-6.39-6.39A6.39,6.39,0,0,1,795.85,740.25Z"></path>
        <rect class="cls-24" x="743.81" y="800.89" width="296.27" height="87.71"></rect>
        <rect class="cls-24" x="743.81" y="901.27" width="139.9" height="9.55"></rect>
        <rect class="cls-24" x="900.18" y="901.27" width="139.9" height="9.55"></rect>
        <rect class="cls-24" x="743.81" y="922.84" width="139.9" height="9.55"></rect>
        <rect class="cls-24" x="900.18" y="922.84" width="139.9" height="9.55"></rect>
        <rect class="cls-24" x="743.81" y="944.42" width="139.9" height="9.55"></rect>
        <rect class="cls-24" x="900.18" y="944.42" width="139.9" height="9.55"></rect>
        <rect class="cls-24" x="743.81" y="966" width="139.9" height="9.55"></rect>
        <rect class="cls-24" x="900.18" y="966" width="139.9" height="9.55"></rect>
        <rect class="cls-24" x="1048.95" y="901.27" width="139.9" height="9.55"></rect>
        <rect class="cls-24" x="1205.32" y="901.27" width="139.9" height="9.55"></rect>
        <rect class="cls-24" x="1048.95" y="922.84" width="139.9" height="9.55"></rect>
        <rect class="cls-24" x="1205.32" y="922.84" width="139.9" height="9.55"></rect>
        <rect class="cls-24" x="1048.95" y="944.42" width="139.9" height="9.55"></rect>
        <rect class="cls-24" x="1205.32" y="944.42" width="139.9" height="9.55"></rect>
        <rect class="cls-24" x="1048.95" y="966" width="139.9" height="9.55"></rect>
        <rect class="cls-24" x="1205.32" y="966" width="139.9" height="9.55"></rect>
        <path class="cls-13" d="M823.87,840.33l-10.56,3.87L823.87,848v4l-15.09-5.74v-4.12l15.09-5.74Z"></path>
        <path class="cls-13" d="M836.73,854.21a11.09,11.09,0,0,1-4.31-4.09,11.93,11.93,0,0,1,0-11.83,11,11,0,0,1,4.31-4.09,12.76,12.76,0,0,1,6.17-1.48,12.9,12.9,0,0,1,5.22,1,10.4,10.4,0,0,1,3.91,2.91l-3.29,3.05a7.1,7.1,0,0,0-5.58-2.6,7.4,7.4,0,0,0-3.68.9,6.43,6.43,0,0,0-2.52,2.52,7.9,7.9,0,0,0,0,7.36,6.36,6.36,0,0,0,2.52,2.52,7.41,7.41,0,0,0,3.68.91,7,7,0,0,0,5.58-2.64l3.29,3.05a10.21,10.21,0,0,1-3.93,2.95,13.15,13.15,0,0,1-5.23,1A12.81,12.81,0,0,1,836.73,854.21Z"></path>
        <path class="cls-13" d="M863.34,854.19a11,11,0,0,1-4.34-4.11,11.33,11.33,0,0,1,4.34-15.87,13.75,13.75,0,0,1,12.45,0,11.29,11.29,0,0,1,4.34,4.11,11.33,11.33,0,0,1-4.34,15.87,13.75,13.75,0,0,1-12.45,0Zm9.78-3.79a6.42,6.42,0,0,0,2.49-2.52,7.9,7.9,0,0,0,0-7.36,6.49,6.49,0,0,0-2.49-2.52,7.45,7.45,0,0,0-7.1,0,6.49,6.49,0,0,0-2.49,2.52,8,8,0,0,0,0,7.36A6.42,6.42,0,0,0,866,850.4a7.38,7.38,0,0,0,7.1,0Z"></path>
        <path class="cls-13" d="M889.39,833.1h10.09a14.17,14.17,0,0,1,6.39,1.38,10.36,10.36,0,0,1,4.31,3.89,11.82,11.82,0,0,1,0,11.67,10.34,10.34,0,0,1-4.31,3.88,14.17,14.17,0,0,1-6.39,1.38H889.39Zm9.83,18a7.44,7.44,0,0,0,5.31-1.85,7.34,7.34,0,0,0,0-10.05,7.44,7.44,0,0,0-5.31-1.86h-4.69v13.76Z"></path>
        <path class="cls-13" d="M936.58,851.18v4.12H919.39V833.1h16.78v4.13H924.5v4.82h10.3v4H924.5v5.14Z"></path>
        <path class="cls-13" d="M951.26,828.6h4.41L945.2,858.47h-4.4Z"></path>
        <path class="cls-13" d="M975.14,842.14v4.12L960,852v-4l10.56-3.84L960,840.33V836.4Z"></path>
        <rect class="cls-22" x="1048.95" y="800.89" width="296.27" height="87.71"></rect>
        <rect class="cls-22" x="743.81" y="989.88" width="296.27" height="87.71"></rect>
        <rect class="cls-24" x="1048.95" y="989.88" width="296.27" height="87.71"></rect>
        <path class="cls-13" d="M1138.3,840.33l-10.56,3.87L1138.3,848v4l-15.09-5.74v-4.12l15.09-5.74Z"></path>
        <path class="cls-13" d="M1167,833.1v22.2h-5.13v-9.1h-10.09v9.1h-5.13V833.1h5.13v8.76h10.09V833.1Z"></path>
        <path class="cls-13" d="M1180.7,837.29h-7.1V833.1h19.34v4.19h-7.1v18h-5.14Z"></path>
        <path class="cls-13" d="M1219.71,855.3l0-13.32-6.54,11h-2.31l-6.5-10.68v13h-4.82V833.1h4.25l8.31,13.8,8.18-13.8h4.21l.07,22.2Z"></path>
        <path class="cls-13" d="M1233.6,833.1h5.13v18h11.14v4.18H1233.6Z"></path>
        <path class="cls-13" d="M1271,842.14v4.12l-15.1,5.74v-4l10.56-3.84-10.56-3.87V836.4Z"></path>
        <path class="cls-13" d="M1102.72,1027.74l-10.56,3.87,10.56,3.83v4l-15.09-5.74v-4.13l15.09-5.74Z"></path>
        <path class="cls-13" d="M1117.88,1016h4.41l-10.47,29.88h-4.4Z"></path>
        <path class="cls-13" d="M1147.69,1020.51v22.19h-5.14v-9.1h-10.08v9.1h-5.14v-22.19h5.14v8.75h10.08v-8.75Z"></path>
        <path class="cls-13" d="M1174,1038.58v4.12h-17.19v-22.19h16.78v4.12h-11.67v4.82h10.3v4h-10.3v5.14Z"></path>
        <path class="cls-13" d="M1196.46,1038h-10.3l-2,4.75h-5.26l9.89-22.19h5.07l9.93,22.19h-5.39Zm-1.61-3.9-3.52-8.5-3.52,8.5Z"></path>
        <path class="cls-13" d="M1209.94,1020.51H1220a14.14,14.14,0,0,1,6.39,1.38,10.3,10.3,0,0,1,4.32,3.88,11.82,11.82,0,0,1,0,11.67,10.39,10.39,0,0,1-4.32,3.89,14.27,14.27,0,0,1-6.39,1.37h-10.08Zm9.83,18a7.44,7.44,0,0,0,5.31-1.86,7.34,7.34,0,0,0,0-10.05,7.44,7.44,0,0,0-5.31-1.86h-4.69v13.77Z"></path>
        <path class="cls-13" d="M1257.13,1038.58v4.12h-17.19v-22.19h16.78v4.12h-11.67v4.82h10.3v4h-10.3v5.14Z"></path>
        <path class="cls-13" d="M1279.17,1042.7l-4.28-6.18h-4.73v6.18H1265v-22.19h9.61a12.21,12.21,0,0,1,5.12,1,7.53,7.53,0,0,1,3.35,2.79,7.69,7.69,0,0,1,1.17,4.28,7.5,7.5,0,0,1-1.19,4.27,7.61,7.61,0,0,1-3.37,2.74l5,7.13Zm-1.3-17a5.39,5.39,0,0,0-3.52-1h-4.19v7.74h4.19a5.39,5.39,0,0,0,3.52-1,4,4,0,0,0,0-5.73Z"></path>
        <path class="cls-13" d="M1306.57,1029.54v4.13l-15.1,5.74v-4l10.56-3.83-10.56-3.87v-3.94Z"></path>
        <path class="cls-13" d="M831.64,1027.74l-10.56,3.87,10.56,3.83v4l-15.09-5.74v-4.13l15.09-5.74Z"></path>
        <path class="cls-13" d="M859.3,1033.17a5.63,5.63,0,0,1,1.07,3.48,5.11,5.11,0,0,1-2.26,4.48c-1.51,1-3.72,1.57-6.61,1.57H840v-22.19h10.84a10.58,10.58,0,0,1,6.23,1.55,4.92,4.92,0,0,1,2.17,4.22,5.35,5.35,0,0,1-.77,2.88,5.45,5.45,0,0,1-2.17,2A5.88,5.88,0,0,1,859.3,1033.17Zm-14.18-8.79v5.23h5.11a5.07,5.07,0,0,0,2.88-.67,2.44,2.44,0,0,0,0-3.92,5.25,5.25,0,0,0-2.88-.64Zm9,13.79a2.28,2.28,0,0,0,1-2.06q0-2.76-4.1-2.76h-6v5.49h6A5.69,5.69,0,0,0,854.17,1038.17Z"></path>
        <path class="cls-13" d="M872.6,1041.59a11,11,0,0,1-4.34-4.1,11.81,11.81,0,0,1,0-11.77,11,11,0,0,1,4.34-4.1,13.67,13.67,0,0,1,12.45,0,11.32,11.32,0,0,1,0,20,13.75,13.75,0,0,1-12.45,0Zm9.78-3.79a6.42,6.42,0,0,0,2.49-2.52,7.88,7.88,0,0,0,0-7.35,6.42,6.42,0,0,0-2.49-2.52,7.38,7.38,0,0,0-7.1,0,6.42,6.42,0,0,0-2.49,2.52,8,8,0,0,0,0,7.35,6.42,6.42,0,0,0,2.49,2.52,7.38,7.38,0,0,0,7.1,0Z"></path>
        <path class="cls-13" d="M898.65,1020.51h10.09a14.17,14.17,0,0,1,6.39,1.38,10.27,10.27,0,0,1,4.31,3.88,11.82,11.82,0,0,1,0,11.67,10.36,10.36,0,0,1-4.31,3.89,14.3,14.3,0,0,1-6.39,1.37H898.65Zm9.83,18a7.44,7.44,0,0,0,5.31-1.86,7.34,7.34,0,0,0,0-10.05,7.44,7.44,0,0,0-5.31-1.86h-4.69v13.77Z"></path>
        <path class="cls-13" d="M938.35,1034.84v7.86h-5.13v-7.92l-8.6-14.27h5.46l5.93,9.86,5.93-9.86h5Z"></path>
        <path class="cls-13" d="M967.37,1029.54v4.13l-15.09,5.74v-4l10.56-3.83-10.56-3.87v-3.94Z"></path>
      </g>
      <rect class="cls-3" x="3017.04" y="992.61" width="242.06" height="387.27"></rect>
      <rect class="cls-3" x="3041.04" y="966.58" width="242.06" height="387.27"></rect>
      <rect class="cls-3" x="3501.73" y="356.75" width="242.06" height="387.27" transform="translate(4173.14 -3072.38) rotate(90)"></rect>
      <rect class="cls-3" x="3527.76" y="380.75" width="242.06" height="387.27" transform="translate(4223.18 -3074.41) rotate(90)"></rect>
      <path class="cls-4" d="M3852.3,1235.14a102.94,102.94,0,0,0-28.45-30.09l3.19-12.92L3795.45,1178l-7.5,11a102.85,102.85,0,0,0-41.4-1.16l-7-12.17-32.59,12.44,2.87,13.75a102.94,102.94,0,0,0-30.09,28.45l-12.91-3.19-14.14,31.59,11,7.5a102.85,102.85,0,0,0-1.17,41.4l-12.17,7,12.44,32.59,13.76-2.87a102.68,102.68,0,0,0,28.45,30.09l-3.2,12.91,31.59,14.14,7.5-11a103,103,0,0,0,41.4,1.17l7,12.17,32.58-12.44-2.87-13.76a102.68,102.68,0,0,0,30.09-28.45l12.92,3.2,14.13-31.59-11-7.51a102.81,102.81,0,0,0,1.16-41.39l12.17-7-12.44-32.58Zm-72.81,94.11a42.3,42.3,0,1,1,24.43-54.6A42.3,42.3,0,0,1,3779.49,1329.25Z"></path>
      <path class="cls-13" d="M3095,1447.43a2.79,2.79,0,0,1-2.79-2.79v-11.15a2.79,2.79,0,0,1,5.57,0v11.15A2.78,2.78,0,0,1,3095,1447.43Zm0-33.45a2.79,2.79,0,0,1-2.79-2.79V1400a2.79,2.79,0,1,1,5.57,0v11.15A2.78,2.78,0,0,1,3095,1414Zm0-33.45a2.79,2.79,0,0,1-2.79-2.79v-11.15a2.79,2.79,0,1,1,5.57,0v11.15A2.78,2.78,0,0,1,3095,1380.53Zm0-33.45a2.79,2.79,0,0,1-2.79-2.79v-11.15a2.79,2.79,0,1,1,5.57,0v11.15A2.78,2.78,0,0,1,3095,1347.08Zm0-33.45a2.79,2.79,0,0,1-2.79-2.79v-11.15a2.79,2.79,0,1,1,5.57,0v11.15A2.78,2.78,0,0,1,3095,1313.63Zm0-33.45a2.79,2.79,0,0,1-2.79-2.79v-11.15a2.79,2.79,0,1,1,5.57,0v11.15A2.78,2.78,0,0,1,3095,1280.18Zm0-33.46a2.78,2.78,0,0,1-2.79-2.78v-11.15a2.79,2.79,0,1,1,5.57,0v11.15A2.77,2.77,0,0,1,3095,1246.72Zm0-33.45a2.78,2.78,0,0,1-2.79-2.78v-11.15a2.79,2.79,0,1,1,5.57,0v11.15A2.77,2.77,0,0,1,3095,1213.27Zm0-33.45a2.78,2.78,0,0,1-2.79-2.78v-11.15a2.79,2.79,0,1,1,5.57,0V1177A2.77,2.77,0,0,1,3095,1179.82Zm0-33.45a2.79,2.79,0,0,1-2.79-2.79v-11.15a2.79,2.79,0,0,1,5.57,0v11.15A2.78,2.78,0,0,1,3095,1146.37Zm0-33.45a2.79,2.79,0,0,1-2.79-2.79V1099a2.79,2.79,0,0,1,5.57,0v11.15A2.78,2.78,0,0,1,3095,1112.92Zm0-33.45a2.79,2.79,0,0,1-2.79-2.79v-11.15a2.79,2.79,0,0,1,5.57,0v11.15A2.78,2.78,0,0,1,3095,1079.47Zm0-33.45a2.79,2.79,0,0,1-2.79-2.79v-11.15a2.79,2.79,0,1,1,5.57,0v11.15A2.78,2.78,0,0,1,3095,1046Zm0-33.45a2.79,2.79,0,0,1-2.79-2.79V998.63a2.79,2.79,0,1,1,5.57,0v11.15A2.78,2.78,0,0,1,3095,1012.57Zm0-33.45a2.79,2.79,0,0,1-2.79-2.79V965.18a2.79,2.79,0,1,1,5.57,0v11.15A2.78,2.78,0,0,1,3095,979.12Zm0-33.45a2.79,2.79,0,0,1-2.79-2.79V931.73a2.79,2.79,0,1,1,5.57,0v11.15A2.78,2.78,0,0,1,3095,945.67Zm0-33.45a2.79,2.79,0,0,1-2.79-2.79V898.28a2.79,2.79,0,1,1,5.57,0v11.15A2.78,2.78,0,0,1,3095,912.22Zm0-33.45a2.79,2.79,0,0,1-2.79-2.79V864.83a2.79,2.79,0,1,1,5.57,0V876A2.78,2.78,0,0,1,3095,878.77Zm0-33.46a2.78,2.78,0,0,1-2.79-2.78V831.38a2.79,2.79,0,1,1,5.57,0v11.15A2.77,2.77,0,0,1,3095,845.31Zm0-33.45a2.78,2.78,0,0,1-2.79-2.78V797.93a2.79,2.79,0,1,1,5.57,0v11.15A2.77,2.77,0,0,1,3095,811.86Zm0-33.45a2.78,2.78,0,0,1-2.79-2.78V764.48a2.79,2.79,0,1,1,5.57,0v11.15A2.77,2.77,0,0,1,3095,778.41Zm0-33.45a2.79,2.79,0,0,1-2.79-2.78V731a2.79,2.79,0,0,1,5.57,0v11.16A2.78,2.78,0,0,1,3095,745Zm0-33.45a2.79,2.79,0,0,1-2.79-2.79V697.57a2.79,2.79,0,0,1,5.57,0v11.15A2.78,2.78,0,0,1,3095,711.51Zm0-33.45a2.79,2.79,0,0,1-2.79-2.79V664.12a2.79,2.79,0,0,1,5.57,0v11.15A2.78,2.78,0,0,1,3095,678.06Zm0-33.45a2.79,2.79,0,0,1-2.79-2.79V630.67a2.79,2.79,0,1,1,5.57,0v11.15A2.78,2.78,0,0,1,3095,644.61Zm0-33.45a2.79,2.79,0,0,1-2.79-2.79V597.22a2.79,2.79,0,1,1,5.57,0v11.15A2.78,2.78,0,0,1,3095,611.16Zm0-33.45a2.79,2.79,0,0,1-2.79-2.79V563.77a2.79,2.79,0,1,1,5.57,0v11.15A2.78,2.78,0,0,1,3095,577.71Zm0-33.45a2.79,2.79,0,0,1-2.79-2.79V530.32a2.79,2.79,0,1,1,5.57,0v11.15A2.78,2.78,0,0,1,3095,544.26Zm0-33.45a2.79,2.79,0,0,1-2.79-2.79V496.87a2.79,2.79,0,1,1,5.57,0V508A2.78,2.78,0,0,1,3095,510.81Zm0-33.45a2.79,2.79,0,0,1-2.79-2.79V463.42a2.79,2.79,0,1,1,5.57,0v11.15A2.78,2.78,0,0,1,3095,477.36Zm0-33.45a2.79,2.79,0,0,1-2.79-2.79V430a2.79,2.79,0,1,1,5.57,0v11.15A2.78,2.78,0,0,1,3095,443.91Zm2.93-33.17a2.74,2.74,0,0,1-.79-.11,2.78,2.78,0,0,1-1.88-3.46,75.22,75.22,0,0,1,4.11-10.82,2.79,2.79,0,1,1,5,2.38,70.83,70.83,0,0,0-3.81,10A2.77,2.77,0,0,1,3098,410.74Zm16.41-28.8a2.75,2.75,0,0,1-1.89-.75,2.78,2.78,0,0,1-.15-3.94,75.84,75.84,0,0,1,8.49-7.84,2.79,2.79,0,1,1,3.46,4.37,69.3,69.3,0,0,0-7.86,7.27A2.8,2.8,0,0,1,3114.37,381.94Zm27.51-18.5a2.79,2.79,0,0,1-1-5.4A75.17,75.17,0,0,1,3152,354.8a2.79,2.79,0,0,1,1.14,5.46,70.33,70.33,0,0,0-10.28,3A2.63,2.63,0,0,1,3141.88,363.44Zm534.74-4.65a2.83,2.83,0,0,1-2.84-2.79,2.74,2.74,0,0,1,2.74-2.78h.1a2.79,2.79,0,1,1,0,5.57Zm-22.4,0h-11.15a2.79,2.79,0,1,1,0-5.57h11.15a2.79,2.79,0,1,1,0,5.57Zm-33.45,0h-11.15a2.79,2.79,0,1,1,0-5.57h11.15a2.79,2.79,0,1,1,0,5.57Zm-33.45,0h-11.15a2.79,2.79,0,1,1,0-5.57h11.15a2.79,2.79,0,1,1,0,5.57Zm-33.45,0h-11.15a2.79,2.79,0,1,1,0-5.57h11.15a2.79,2.79,0,0,1,0,5.57Zm-33.45,0h-11.15a2.79,2.79,0,1,1,0-5.57h11.15a2.79,2.79,0,0,1,0,5.57Zm-33.45,0h-11.15a2.79,2.79,0,1,1,0-5.57H3487a2.79,2.79,0,0,1,0,5.57Zm-33.46,0h-11.15a2.79,2.79,0,0,1,0-5.57h11.15a2.79,2.79,0,1,1,0,5.57Zm-33.45,0h-11.15a2.79,2.79,0,0,1,0-5.57h11.15a2.79,2.79,0,1,1,0,5.57Zm-33.45,0h-11.15a2.79,2.79,0,0,1,0-5.57h11.15a2.79,2.79,0,1,1,0,5.57Zm-33.45,0H3342a2.79,2.79,0,1,1,0-5.57h11.15a2.79,2.79,0,1,1,0,5.57Zm-33.45,0h-11.15a2.79,2.79,0,1,1,0-5.57h11.15a2.79,2.79,0,1,1,0,5.57Zm-33.45,0h-11.15a2.79,2.79,0,1,1,0-5.57h11.15a2.79,2.79,0,1,1,0,5.57Zm-33.45,0h-11.15a2.79,2.79,0,1,1,0-5.57h11.15a2.79,2.79,0,1,1,0,5.57Zm-33.45,0h-11.15a2.79,2.79,0,1,1,0-5.57h11.15a2.79,2.79,0,1,1,0,5.57Zm-33.45,0h-11.15a2.79,2.79,0,1,1,0-5.57h11.15a2.79,2.79,0,1,1,0,5.57Z"></path>
      <rect class="cls-37" x="3126.77" y="386.8" width="569.59" height="1111.71" rx="53.63"></rect>
      <path class="cls-38" d="M3137.87,498.68v946.19a42.53,42.53,0,0,0,42.54,42.54h462.32a42.53,42.53,0,0,0,42.54-42.54V498.68a12,12,0,0,0-12-12H3149.89A12,12,0,0,0,3137.87,498.68Z"></path>
      <rect class="cls-39" x="3322.8" y="429.33" width="181.23" height="12.95" rx="6.47"></rect>
      <g class="cls-40">
        <rect class="cls-41" x="3195.39" y="1150.5" width="121.82" height="121.82" rx="7.45"></rect>
        <rect class="cls-42" x="3200.99" y="1144.9" width="121.82" height="121.82" rx="7.45"></rect>
      </g>
      <g class="cls-43">
        <path class="cls-13" d="M3242.32,1203.55l-15,5.5,15,5.44v5.63l-21.43-8.15v-5.85l21.43-8.15Z"></path>
        <path class="cls-13" d="M3263.84,1186.9h6.25l-14.85,42.4H3249Z"></path>
        <path class="cls-13" d="M3297.73,1206.12V1212l-21.42,8.15v-5.63l15-5.44-15-5.5V1198Z"></path>
      </g>
      <g class="cls-44">
        <rect class="cls-45" x="3192.59" y="987.15" width="121.82" height="121.82" rx="7.45"></rect>
        <rect class="cls-46" x="3198.19" y="981.55" width="121.82" height="121.82" rx="7.45"></rect>
      </g>
      <g class="cls-47">
        <rect class="cls-48" x="3347.86" y="1150.5" width="121.82" height="121.82" rx="7.45"></rect>
        <rect class="cls-49" x="3353.46" y="1144.9" width="121.82" height="121.82" rx="7.45"></rect>
      </g>
      <g class="cls-50">
        <rect class="cls-51" x="3513.96" y="1153.3" width="121.82" height="121.82" rx="7.45"></rect>
        <rect class="cls-52" x="3519.56" y="1147.7" width="121.82" height="121.82" rx="7.45"></rect>
      </g>
      <g class="cls-53">
        <rect class="cls-54" x="3502.26" y="542.51" width="121.82" height="121.82" rx="7.45"></rect>
        <rect class="cls-55" x="3507.86" y="536.91" width="121.82" height="121.82" rx="7.45"></rect>
      </g>
      <g class="cls-53">
        <rect class="cls-56" x="3347.86" y="545.31" width="121.82" height="121.82" rx="7.45"></rect>
        <rect class="cls-57" x="3353.46" y="539.71" width="121.82" height="121.82" rx="7.45"></rect>
      </g>
      <circle class="cls-58" cx="3411.57" cy="1361.39" r="54.83" transform="matrix(0.16, -0.99, 0.99, 0.16, 1529.87, 4515.98)"></circle>
      <g class="cls-59">
        <rect class="cls-60" x="2921.51" y="539.71" width="401.29" height="378.64"></rect>
        <rect class="cls-61" x="2952.85" y="592.33" width="334.89" height="35.56"></rect>
        <rect class="cls-62" x="3041.46" y="800.62" width="49.81" height="10.53"></rect>
        <rect class="cls-63" x="3101.33" y="800.62" width="93.49" height="10.53"></rect>
        <rect class="cls-64" x="2952.85" y="661.3" width="334.89" height="40.34"></rect>
        <rect class="cls-27" x="2952.85" y="727.76" width="334.89" height="40.34" rx="10.72"></rect>
        <rect class="cls-22" x="2952.85" y="830.24" width="334.89" height="40.34" rx="10.72"></rect>
      </g>
      <rect class="cls-26" x="3455.55" y="868.99" width="321.21" height="57.81"></rect>
      <rect class="cls-26" x="3455.55" y="964.94" width="321.21" height="57.81"></rect>
      <rect class="cls-26" x="3455.55" y="1060.89" width="321.21" height="57.81"></rect>
      <rect class="cls-22" x="3377.98" y="868.99" width="77.57" height="57.89"></rect>
      <rect class="cls-8" x="3377.98" y="964.9" width="77.57" height="57.89"></rect>
      <rect class="cls-27" x="3377.98" y="1060.81" width="77.57" height="57.89"></rect>
      <rect class="cls-65" x="3473.05" y="885.6" width="183.75" height="7.38"></rect>
      <rect class="cls-66" x="3473.05" y="902.82" width="91.87" height="7.38"></rect>
      <rect class="cls-67" x="3474.1" y="981.55" width="183.75" height="7.38"></rect>
      <rect class="cls-68" x="3474.1" y="998.77" width="91.87" height="7.38"></rect>
      <rect class="cls-69" x="3474.1" y="1077.5" width="183.75" height="7.38"></rect>
      <rect class="cls-70" x="3474.1" y="1094.72" width="91.87" height="7.38"></rect>
      <rect class="cls-71" x="3370.26" y="604.18" width="406.5" height="181.86"></rect>
      <path class="cls-72" d="M3561.48,673.78l29.4,17a5,5,0,0,1,0,8.7l-29.4,17a5,5,0,0,1-7.53-4.34v-34A5,5,0,0,1,3561.48,673.78Z"></path>
      <circle class="cls-73" cx="3416.77" cy="897.94" r="17.2"></circle>
      <circle class="cls-74" cx="3416.77" cy="992.61" r="17.2"></circle>
      <circle class="cls-75" cx="3416.77" cy="1089.8" r="17.2" transform="translate(-158.22 1375.1) rotate(-22.25)"></circle>
      <path class="cls-76" d="M4685,571H5922.36a27.33,27.33,0,0,1,27.33,27.33v768.93a0,0,0,0,1,0,0h-1292a0,0,0,0,1,0,0V598.34A27.33,27.33,0,0,1,4685,571Z"></path>
      <rect class="cls-77" x="4688.74" y="602.03" width="1229.93" height="727.72"></rect>
      <path class="cls-78" d="M4607.5,1360.77H5999.91a0,0,0,0,1,0,0v21.66a51.21,51.21,0,0,1-51.21,51.21h-1290a51.21,51.21,0,0,1-51.21-51.21v-21.66A0,0,0,0,1,4607.5,1360.77Z"></path>
      <polygon class="cls-79" points="5381 1389.33 5226.4 1389.33 5214.58 1360.77 5392.82 1360.77 5381 1389.33"></polygon>
      <path class="cls-13" d="M4712.44,1285.49a1.72,1.72,0,0,1-1.72-1.72v-11.5a1.73,1.73,0,0,1,3.45,0v11.5A1.72,1.72,0,0,1,4712.44,1285.49Zm0-28.73a1.72,1.72,0,0,1-1.72-1.72v-11.49a1.73,1.73,0,1,1,3.45,0V1255A1.72,1.72,0,0,1,4712.44,1256.76Zm0-28.73a1.72,1.72,0,0,1-1.72-1.72v-11.49a1.73,1.73,0,0,1,3.45,0v11.49A1.72,1.72,0,0,1,4712.44,1228Zm0-28.72a1.73,1.73,0,0,1-1.72-1.73v-11.49a1.73,1.73,0,0,1,3.45,0v11.49A1.73,1.73,0,0,1,4712.44,1199.31Zm0-28.73a1.72,1.72,0,0,1-1.72-1.73v-11.49a1.73,1.73,0,0,1,3.45,0v11.49A1.72,1.72,0,0,1,4712.44,1170.58Zm0-28.73a1.72,1.72,0,0,1-1.72-1.72v-11.49a1.73,1.73,0,1,1,3.45,0v11.49A1.72,1.72,0,0,1,4712.44,1141.85Zm0-28.73a1.72,1.72,0,0,1-1.72-1.72v-11.49a1.73,1.73,0,1,1,3.45,0v11.49A1.72,1.72,0,0,1,4712.44,1113.12Zm0-28.73a1.72,1.72,0,0,1-1.72-1.72v-11.49a1.73,1.73,0,0,1,3.45,0v11.49A1.72,1.72,0,0,1,4712.44,1084.39Zm0-28.72a1.72,1.72,0,0,1-1.72-1.73v-11.49a1.73,1.73,0,0,1,3.45,0v11.49A1.72,1.72,0,0,1,4712.44,1055.67Zm0-28.73a1.72,1.72,0,0,1-1.72-1.72v-11.5a1.73,1.73,0,0,1,3.45,0v11.5A1.72,1.72,0,0,1,4712.44,1026.94Zm0-28.73a1.72,1.72,0,0,1-1.72-1.72V985a1.73,1.73,0,1,1,3.45,0v11.49A1.72,1.72,0,0,1,4712.44,998.21Zm0-28.73a1.72,1.72,0,0,1-1.72-1.72V956.27a1.73,1.73,0,1,1,3.45,0v11.49A1.72,1.72,0,0,1,4712.44,969.48Zm0-28.72a1.73,1.73,0,0,1-1.72-1.73V927.54a1.73,1.73,0,0,1,3.45,0V939A1.73,1.73,0,0,1,4712.44,940.76Zm0-28.73a1.72,1.72,0,0,1-1.72-1.73V898.81a1.73,1.73,0,0,1,3.45,0V910.3A1.72,1.72,0,0,1,4712.44,912Zm0-28.73a1.72,1.72,0,0,1-1.72-1.72V870.09a1.73,1.73,0,1,1,3.45,0v11.49A1.72,1.72,0,0,1,4712.44,883.3Zm0-28.73a1.72,1.72,0,0,1-1.72-1.72V841.36a1.73,1.73,0,1,1,3.45,0v11.49A1.72,1.72,0,0,1,4712.44,854.57Zm0-28.73a1.72,1.72,0,0,1-1.72-1.72V812.63a1.73,1.73,0,0,1,3.45,0v11.49A1.72,1.72,0,0,1,4712.44,825.84Zm0-28.72a1.72,1.72,0,0,1-1.72-1.73V783.9a1.73,1.73,0,0,1,3.45,0v11.49A1.72,1.72,0,0,1,4712.44,797.12Zm0-28.73a1.72,1.72,0,0,1-1.72-1.73V755.17a1.73,1.73,0,0,1,3.45,0v11.49A1.72,1.72,0,0,1,4712.44,768.39Zm0-28.73a1.72,1.72,0,0,1-1.72-1.72V726.45a1.73,1.73,0,1,1,3.45,0v11.49A1.72,1.72,0,0,1,4712.44,739.66Zm0-28.73a1.72,1.72,0,0,1-1.72-1.72V697.72a1.73,1.73,0,0,1,3.45,0v11.49A1.72,1.72,0,0,1,4712.44,710.93Zm0-28.72a1.73,1.73,0,0,1-1.72-1.73V669a1.73,1.73,0,0,1,3.45,0v11.49A1.73,1.73,0,0,1,4712.44,682.21Zm0-28.73a1.72,1.72,0,0,1-1.72-1.73V640.26a1.73,1.73,0,0,1,3.45,0v11.49A1.72,1.72,0,0,1,4712.44,653.48Zm0-28.73a1.72,1.72,0,0,1-1.72-1.72V611.54a1.73,1.73,0,1,1,3.45,0V623A1.72,1.72,0,0,1,4712.44,624.75Zm0-28.73a1.72,1.72,0,0,1-1.72-1.72V582.81a1.73,1.73,0,1,1,3.45,0V594.3A1.72,1.72,0,0,1,4712.44,596Zm0-28.73h0a1.71,1.71,0,0,1-1.69-1.75,41.07,41.07,0,0,1,2-11.79,1.72,1.72,0,0,1,3.28,1,37.88,37.88,0,0,0-1.79,10.81A1.72,1.72,0,0,1,4712.45,567.29Zm10.58-26a1.72,1.72,0,0,1-1.25-2.91,37.85,37.85,0,0,1,9.53-7.27,1.72,1.72,0,1,1,1.63,3,34.16,34.16,0,0,0-8.66,6.61A1.75,1.75,0,0,1,4723,541.29Zm1186.26-11H5897.8a1.72,1.72,0,0,1,0-3.44h11.49a1.72,1.72,0,1,1,0,3.44Zm-28.73,0h-11.49a1.72,1.72,0,1,1,0-3.44h11.49a1.72,1.72,0,1,1,0,3.44Zm-28.73,0h-11.49a1.72,1.72,0,0,1,0-3.44h11.49a1.72,1.72,0,1,1,0,3.44Zm-28.72,0h-11.49a1.72,1.72,0,1,1,0-3.44h11.49a1.72,1.72,0,1,1,0,3.44Zm-28.73,0h-11.49a1.72,1.72,0,0,1,0-3.44h11.49a1.72,1.72,0,1,1,0,3.44Zm-28.73,0h-11.49a1.72,1.72,0,0,1,0-3.44h11.49a1.72,1.72,0,1,1,0,3.44Zm-28.73,0h-11.49a1.72,1.72,0,0,1,0-3.44h11.49a1.72,1.72,0,1,1,0,3.44Zm-28.72,0h-11.49a1.72,1.72,0,1,1,0-3.44h11.49a1.72,1.72,0,1,1,0,3.44Zm-28.73,0H5668a1.72,1.72,0,1,1,0-3.44h11.49a1.72,1.72,0,0,1,0,3.44Zm-28.73,0h-11.49a1.72,1.72,0,0,1,0-3.44h11.49a1.72,1.72,0,1,1,0,3.44Zm-28.73,0h-11.49a1.72,1.72,0,0,1,0-3.44H5622a1.72,1.72,0,1,1,0,3.44Zm-28.72,0h-11.5a1.72,1.72,0,0,1,0-3.44h11.5a1.72,1.72,0,1,1,0,3.44Zm-28.73,0h-11.49a1.72,1.72,0,1,1,0-3.44h11.49a1.72,1.72,0,0,1,0,3.44Zm-28.73,0h-11.49a1.72,1.72,0,1,1,0-3.44h11.49a1.72,1.72,0,1,1,0,3.44Zm-28.73,0h-11.49a1.72,1.72,0,1,1,0-3.44h11.49a1.72,1.72,0,1,1,0,3.44Zm-28.73,0h-11.49a1.72,1.72,0,0,1,0-3.44h11.49a1.72,1.72,0,1,1,0,3.44Zm-28.72,0h-11.5a1.72,1.72,0,1,1,0-3.44h11.5a1.72,1.72,0,1,1,0,3.44Zm-28.73,0h-11.49a1.72,1.72,0,1,1,0-3.44h11.49a1.72,1.72,0,1,1,0,3.44Zm-28.73,0H5380.7a1.72,1.72,0,0,1,0-3.44h11.49a1.72,1.72,0,1,1,0,3.44Zm-28.73,0H5352a1.72,1.72,0,0,1,0-3.44h11.49a1.72,1.72,0,1,1,0,3.44Zm-28.73,0h-11.49a1.72,1.72,0,1,1,0-3.44h11.49a1.72,1.72,0,1,1,0,3.44Zm-28.72,0h-11.49a1.72,1.72,0,1,1,0-3.44H5306a1.72,1.72,0,0,1,0,3.44Zm-28.73,0h-11.49a1.72,1.72,0,1,1,0-3.44h11.49a1.72,1.72,0,1,1,0,3.44Zm-28.73,0h-11.49a1.72,1.72,0,0,1,0-3.44h11.49a1.72,1.72,0,1,1,0,3.44Zm-28.73,0h-11.49a1.72,1.72,0,0,1,0-3.44h11.49a1.72,1.72,0,1,1,0,3.44Zm-28.72,0h-11.5a1.72,1.72,0,0,1,0-3.44h11.5a1.72,1.72,0,0,1,0,3.44Zm-28.73,0h-11.49a1.72,1.72,0,1,1,0-3.44h11.49a1.72,1.72,0,1,1,0,3.44Zm-28.73,0h-11.49a1.72,1.72,0,1,1,0-3.44h11.49a1.72,1.72,0,0,1,0,3.44Zm-28.73,0h-11.49a1.72,1.72,0,0,1,0-3.44h11.49a1.72,1.72,0,1,1,0,3.44Zm-28.73,0h-11.49a1.72,1.72,0,1,1,0-3.44h11.49a1.72,1.72,0,1,1,0,3.44Zm-28.72,0H5036a1.72,1.72,0,0,1,0-3.44h11.5a1.72,1.72,0,1,1,0,3.44Zm-28.73,0h-11.49a1.72,1.72,0,1,1,0-3.44h11.49a1.72,1.72,0,1,1,0,3.44Zm-28.73,0h-11.49a1.72,1.72,0,0,1,0-3.44H4990a1.72,1.72,0,1,1,0,3.44Zm-28.73,0h-11.49a1.72,1.72,0,1,1,0-3.44h11.49a1.72,1.72,0,1,1,0,3.44Zm-28.73,0h-11.49a1.72,1.72,0,0,1,0-3.44h11.49a1.72,1.72,0,1,1,0,3.44Zm-28.72,0h-11.49a1.72,1.72,0,1,1,0-3.44h11.49a1.72,1.72,0,1,1,0,3.44Zm-28.73,0H4863.6a1.72,1.72,0,0,1,0-3.44h11.49a1.72,1.72,0,1,1,0,3.44Zm-28.73,0h-11.49a1.72,1.72,0,0,1,0-3.44h11.49a1.72,1.72,0,1,1,0,3.44Zm-28.73,0h-11.49a1.72,1.72,0,0,1,0-3.44h11.49a1.72,1.72,0,1,1,0,3.44Zm-28.72,0h-11.49a1.72,1.72,0,1,1,0-3.44h11.49a1.72,1.72,0,1,1,0,3.44Zm-28.73,0h-11.49a1.72,1.72,0,1,1,0-3.44h11.49a1.72,1.72,0,0,1,0,3.44Z"></path>
      <g class="cls-80">
        <rect class="cls-81" x="5040.07" y="418.08" width="527.27" height="854.66"></rect>
        <circle class="cls-82" cx="5303.7" cy="671.84" r="162.34" transform="translate(1078.35 3947.06) rotate(-45)"></circle>
        <rect class="cls-13" x="5172.03" y="880.02" width="263.34" height="19.68"></rect>
        <rect class="cls-13" x="5210.76" y="913.53" width="185.88" height="19.68"></rect>
        <rect class="cls-13" x="5126.3" y="970.03" width="354.81" height="9.84"></rect>
        <rect class="cls-13" x="5126.3" y="993.01" width="354.81" height="9.84"></rect>
        <rect class="cls-13" x="5126.3" y="1015.99" width="354.81" height="9.84"></rect>
        <rect class="cls-13" x="5164.6" y="1038.98" width="278.21" height="9.84"></rect>
        <rect class="cls-83" x="5126.3" y="1102.28" width="354.81" height="54.58" rx="27.29"></rect>
        <path class="cls-13" d="M5297.24,1211a6.47,6.47,0,1,1,6.46,6.46A6.47,6.47,0,0,1,5297.24,1211Z"></path>
        <path class="cls-84" d="M5326.45,1211a6.46,6.46,0,1,1,6.46,6.46A6.47,6.47,0,0,1,5326.45,1211Z"></path>
        <path class="cls-13" d="M5268,1211a6.47,6.47,0,1,1,6.47,6.46A6.47,6.47,0,0,1,5268,1211Z"></path>
        <path class="cls-85" d="M5335.39,671.84h94.72a126.41,126.41,0,0,0-126.41-126.4v94.72A31.68,31.68,0,0,1,5335.39,671.84Z"></path>
        <path class="cls-86" d="M5303.7,703.53a31.69,31.69,0,0,1,0-63.37V545.44A126.41,126.41,0,1,0,5358,786l-40.72-85.57A31.56,31.56,0,0,1,5303.7,703.53Z"></path>
        <path class="cls-87" d="M5430.11,671.84h-94.72a31.65,31.65,0,0,1-18.09,28.59L5358,786A126.42,126.42,0,0,0,5430.11,671.84Z"></path>
      </g>
      <rect class="cls-88" x="4476.61" y="950.72" width="501.36" height="284.16"></rect>
      <rect class="cls-89" x="4547.43" y="1094.69" width="17.19" height="108.6"></rect>
      <rect class="cls-90" x="4599.94" y="1059.74" width="17.19" height="143.55"></rect>
      <rect class="cls-91" x="4652.46" y="988.4" width="17.19" height="214.9"></rect>
      <rect class="cls-92" x="4704.97" y="1023.83" width="17.19" height="179.46"></rect>
      <rect class="cls-93" x="4757.48" y="936.13" width="17.19" height="267.17"></rect>
      <rect class="cls-94" x="4810" y="968.03" width="17.19" height="235.26"></rect>
      <rect class="cls-95" x="4862.51" y="1042.98" width="17.19" height="160.31"></rect>
      <rect class="cls-96" x="4915.02" y="1092.8" width="17.19" height="110.49"></rect>
      <rect class="cls-26" x="5723.02" y="670.05" width="415.24" height="74.74"></rect>
      <rect class="cls-26" x="5723.02" y="794.09" width="415.24" height="74.74"></rect>
      <rect class="cls-26" x="5723.02" y="918.13" width="415.24" height="74.74"></rect>
      <rect class="cls-22" x="5622.74" y="670.05" width="100.28" height="74.84"></rect>
      <rect class="cls-97" x="5622.74" y="794.04" width="100.28" height="74.84"></rect>
      <rect class="cls-98" x="5622.74" y="918.02" width="100.28" height="74.84"></rect>
      <rect class="cls-99" x="5745.63" y="691.52" width="237.54" height="9.54"></rect>
      <rect class="cls-100" x="5745.63" y="713.78" width="118.77" height="9.54"></rect>
      <rect class="cls-101" x="5746.99" y="815.56" width="237.54" height="9.54"></rect>
      <rect class="cls-102" x="5746.99" y="837.82" width="118.77" height="9.54"></rect>
      <rect class="cls-103" x="5746.99" y="939.59" width="237.54" height="9.54"></rect>
      <rect class="cls-104" x="5746.99" y="961.86" width="118.77" height="9.54"></rect>
      <rect class="cls-105" x="5655.47" y="1068.87" width="331.14" height="148.14"></rect>
      <path class="cls-106" d="M5811.24,1125.57l24,13.83a4.09,4.09,0,0,1,0,7.08l-24,13.83a4.09,4.09,0,0,1-6.13-3.54v-27.66A4.08,4.08,0,0,1,5811.24,1125.57Z"></path>
      <g class="cls-107">
        <rect class="cls-13" x="4778.7" y="651.25" width="82.14" height="82.14"></rect>
        <rect class="cls-13" x="4887.49" y="651.25" width="82.14" height="82.14"></rect>
        <rect class="cls-13" x="4778.7" y="759.26" width="190.93" height="7.88"></rect>
        <rect class="cls-13" x="4778.7" y="809.7" width="190.93" height="7.88"></rect>
        <rect class="cls-13" x="4778.7" y="827.51" width="38.04" height="7.88"></rect>
        <rect class="cls-13" x="4822.07" y="827.51" width="147.56" height="7.88"></rect>
        <rect class="cls-13" x="4778.7" y="845.03" width="55.25" height="7.88"></rect>
        <rect class="cls-13" x="4839.45" y="845.03" width="55.25" height="7.88"></rect>
        <rect class="cls-13" x="4899.35" y="845.03" width="7.06" height="7.88"></rect>
        <rect class="cls-13" x="4778.7" y="778.34" width="69.3" height="7.88"></rect>
        <rect class="cls-13" x="4853.05" y="778.34" width="69.3" height="7.88"></rect>
      </g>
    </g>
  </g>
</svg>
