<?xml version="1.0" encoding="UTF-8"?>
<svg xmlns="http://www.w3.org/2000/svg" xmlns:xlink="http://www.w3.org/1999/xlink" viewBox="0 0 517.17 401.25">
  <defs>
    <style>.cls-1,.cls-3,.cls-4{opacity:0.2;}.cls-1{fill:url(#_ÂÁ_Ï_ÌÌ_È_ËÂÌÚ_2851);}.cls-2,.cls-5{opacity:0.19;}.cls-2{fill:url(#_ÂÁ_Ï_ÌÌ_È_ËÂÌÚ_9);}.cls-3{fill:url(#_ÂÁ_Ï_ÌÌ_È_ËÂÌÚ_2851-2);}.cls-4{fill:url(#_ÂÁ_Ï_ÌÌ_È_ËÂÌÚ_2851-3);}.cls-5{fill:url(#_ÂÁ_Ï_ÌÌ_È_ËÂÌÚ_9-2);}.cls-6{fill:url(#_ÂÁ_Ï_ÌÌ_È_ËÂÌÚ_367);}.cls-7{fill:url(#_ÂÁ_Ï_ÌÌ_È_ËÂÌÚ_373);}.cls-8{fill:#9bd5fc;}.cls-132,.cls-84,.cls-86,.cls-9{fill:#fff;}.cls-10{fill:url(#_ÂÁ_Ï_ÌÌ_È_ËÂÌÚ_1984);}.cls-11{fill:url(#_ÂÁ_Ï_ÌÌ_È_ËÂÌÚ_1984-2);}.cls-12{fill:url(#_ÂÁ_Ï_ÌÌ_È_ËÂÌÚ_1984-3);}.cls-13{fill:url(#_ÂÁ_Ï_ÌÌ_È_ËÂÌÚ_1984-4);}.cls-14{fill:#3f36c0;}.cls-15{fill:url(#_ÂÁ_Ï_ÌÌ_È_ËÂÌÚ_1245);}.cls-16{fill:url(#_ÂÁ_Ï_ÌÌ_È_ËÂÌÚ_126);}.cls-17{fill:#f7f6f5;}.cls-18{fill:url(#_ÂÁ_Ï_ÌÌ_È_ËÂÌÚ_1245-2);}.cls-19{fill:url(#_ÂÁ_Ï_ÌÌ_È_ËÂÌÚ_126-2);}.cls-20{fill:url(#_ÂÁ_Ï_ÌÌ_È_ËÂÌÚ_194);}.cls-21{fill:url(#_ÂÁ_Ï_ÌÌ_È_ËÂÌÚ_126-3);}.cls-22{fill:#f0d4c4;}.cls-23{fill:#583e2d;}.cls-24{fill:url(#_ÂÁ_Ï_ÌÌ_È_ËÂÌÚ_276);}.cls-25{fill:#d5b6a8;}.cls-26{fill:#6d4f38;}.cls-27{fill:url(#_ÂÁ_Ï_ÌÌ_È_ËÂÌÚ_1328);}.cls-28{fill:url(#_ÂÁ_Ï_ÌÌ_È_ËÂÌÚ_270);}.cls-29,.cls-30{fill:#0e1140;}.cls-29,.cls-31,.cls-37{opacity:0.46;}.cls-30{opacity:0.15;}.cls-31{fill:#4f4c4f;}.cls-32{fill:#494d7f;}.cls-33{fill:url(#_ÂÁ_Ï_ÌÌ_È_ËÂÌÚ_251);}.cls-34{fill:url(#_ÂÁ_Ï_ÌÌ_È_ËÂÌÚ_251-2);}.cls-35{fill:#892a5f;}.cls-36{fill:url(#_ÂÁ_Ï_ÌÌ_È_ËÂÌÚ_251-3);}.cls-37{fill:#989697;}.cls-38{fill:#493c3e;}.cls-39{fill:url(#_ÂÁ_Ï_ÌÌ_È_ËÂÌÚ_1722);}.cls-40{fill:url(#_ÂÁ_Ï_ÌÌ_È_ËÂÌÚ_1722-2);}.cls-41{fill:url(#_ÂÁ_Ï_ÌÌ_È_ËÂÌÚ_1722-3);}.cls-42{fill:url(#_ÂÁ_Ï_ÌÌ_È_ËÂÌÚ_1722-4);}.cls-43{fill:#66512a;}.cls-44{fill:#e2ddd8;}.cls-45{fill:#a147da;}.cls-46{fill:#eef1f8;}.cls-47{fill:#4b1c6b;}.cls-48{fill:#bababa;}.cls-49{fill:#656565;}.cls-50{fill:#bbb;}.cls-51{fill:url(#_ÂÁ_Ï_ÌÌ_È_ËÂÌÚ_1745);}.cls-52{fill:url(#_ÂÁ_Ï_ÌÌ_È_ËÂÌÚ_1733);}.cls-53{fill:url(#_ÂÁ_Ï_ÌÌ_È_ËÂÌÚ_1752);}.cls-54{fill:#676767;}.cls-55{opacity:0.5;}.cls-56{fill:url(#_ÂÁ_Ï_ÌÌ_È_ËÂÌÚ_1755);}.cls-57{fill:url(#_ÂÁ_Ï_ÌÌ_È_ËÂÌÚ_1755-2);}.cls-58{fill:url(#_ÂÁ_Ï_ÌÌ_È_ËÂÌÚ_1755-3);}.cls-59{fill:url(#_ÂÁ_Ï_ÌÌ_È_ËÂÌÚ_1755-4);}.cls-60{fill:url(#_ÂÁ_Ï_ÌÌ_È_ËÂÌÚ_1739);}.cls-61{fill:url(#_ÂÁ_Ï_ÌÌ_È_ËÂÌÚ_1739-2);}.cls-62{fill:url(#_ÂÁ_Ï_ÌÌ_È_ËÂÌÚ_1739-3);}.cls-63{fill:url(#_ÂÁ_Ï_ÌÌ_È_ËÂÌÚ_1739-4);}.cls-64{fill:url(#_ÂÁ_Ï_ÌÌ_È_ËÂÌÚ_1739-5);}.cls-65{fill:url(#_ÂÁ_Ï_ÌÌ_È_ËÂÌÚ_1739-6);}.cls-66{fill:url(#_ÂÁ_Ï_ÌÌ_È_ËÂÌÚ_1739-7);}.cls-67{fill:url(#_ÂÁ_Ï_ÌÌ_È_ËÂÌÚ_1739-8);}.cls-68{fill:url(#_ÂÁ_Ï_ÌÌ_È_ËÂÌÚ_1739-9);}.cls-69{fill:url(#_ÂÁ_Ï_ÌÌ_È_ËÂÌÚ_1739-10);}.cls-70{fill:#64747e;}.cls-71{fill:#c5d7e0;}.cls-72{fill:url(#_ÂÁ_Ï_ÌÌ_È_ËÂÌÚ_1984-5);}.cls-73{fill:#292476;}.cls-74{fill:url(#_ÂÁ_Ï_ÌÌ_È_ËÂÌÚ_1245-3);}.cls-75{fill:url(#_ÂÁ_Ï_ÌÌ_È_ËÂÌÚ_1245-4);}.cls-76{fill:url(#_ÂÁ_Ï_ÌÌ_È_ËÂÌÚ_1245-5);}.cls-77{fill:url(#_ÂÁ_Ï_ÌÌ_È_ËÂÌÚ_1245-6);}.cls-78{fill:url(#_ÂÁ_Ï_ÌÌ_È_ËÂÌÚ_1245-7);}.cls-79{fill:url(#_ÂÁ_Ï_ÌÌ_È_ËÂÌÚ_1245-8);}.cls-80{fill:url(#_ÂÁ_Ï_ÌÌ_È_ËÂÌÚ_1245-9);}.cls-81{fill:url(#_ÂÁ_Ï_ÌÌ_È_ËÂÌÚ_1245-10);}.cls-82{fill:url(#_ÂÁ_Ï_ÌÌ_È_ËÂÌÚ_1245-11);}.cls-83{fill:#8bc8db;opacity:0.65;}.cls-84{opacity:0.84;}.cls-85{fill:url(#_ÂÁ_Ï_ÌÌ_È_ËÂÌÚ_1739-11);}.cls-86{opacity:0.72;}.cls-87{fill:url(#_ÂÁ_Ï_ÌÌ_È_ËÂÌÚ_1739-12);}.cls-88{fill:#bec1c2;}.cls-89{fill:#eff2f3;}.cls-90{fill:#808182;}.cls-91{fill:#f4dce6;}.cls-92{fill:#a93f7e;}.cls-93{fill:#552a44;}.cls-94{fill:#949fb4;}.cls-95{fill:#3b115e;}.cls-96{fill:url(#_ÂÁ_Ï_ÌÌ_È_ËÂÌÚ_6);}.cls-97{fill:url(#_ÂÁ_Ï_ÌÌ_È_ËÂÌÚ_1);}.cls-98{fill:#a34b9a;}.cls-99{fill:url(#_ÂÁ_Ï_ÌÌ_È_ËÂÌÚ_6-2);}.cls-100{fill:url(#_ÂÁ_Ï_ÌÌ_È_ËÂÌÚ_339);}.cls-101{fill:url(#_ÂÁ_Ï_ÌÌ_È_ËÂÌÚ_5);}.cls-102{fill:url(#_ÂÁ_Ï_ÌÌ_È_ËÂÌÚ_3);}.cls-103{fill:#c38e8e;}.cls-104{fill:#aebbd5;}.cls-105{fill:url(#_ÂÁ_Ï_ÌÌ_È_ËÂÌÚ_336);}.cls-106{fill:#e9beb0;}.cls-107{fill:#e2a5a5;}.cls-108{fill:url(#_ÂÁ_Ï_ÌÌ_È_ËÂÌÚ_330);}.cls-109{fill:#7f4267;opacity:0.39;}.cls-110{fill:#cf9a9a;}.cls-111{fill:#563325;}.cls-112{fill:url(#_ÂÁ_Ï_ÌÌ_È_ËÂÌÚ_339-2);}.cls-113{fill:url(#_ÂÁ_Ï_ÌÌ_È_ËÂÌÚ_3-2);}.cls-114{fill:url(#_ÂÁ_Ï_ÌÌ_È_ËÂÌÚ_339-3);}.cls-115{fill:#ead8e0;}.cls-116{fill:url(#_ÂÁ_Ï_ÌÌ_È_ËÂÌÚ_1697);}.cls-117{fill:url(#_ÂÁ_Ï_ÌÌ_È_ËÂÌÚ_1697-2);}.cls-118{fill:url(#_ÂÁ_Ï_ÌÌ_È_ËÂÌÚ_1697-3);}.cls-119{fill:url(#_ÂÁ_Ï_ÌÌ_È_ËÂÌÚ_1697-4);}.cls-120{fill:url(#_ÂÁ_Ï_ÌÌ_È_ËÂÌÚ_1697-5);}.cls-121{fill:url(#_ÂÁ_Ï_ÌÌ_È_ËÂÌÚ_1697-6);}.cls-122{fill:url(#_ÂÁ_Ï_ÌÌ_È_ËÂÌÚ_1298);}.cls-123{fill:#2c2ca7;}.cls-124{fill:url(#_ÂÁ_Ï_ÌÌ_È_ËÂÌÚ_345);}.cls-125,.cls-127{fill:#831c10;}.cls-126{fill:#6f1111;}.cls-127,.cls-132{opacity:0.78;}.cls-128{opacity:0.98;}.cls-129{fill:#dd5320;}.cls-130{fill:#e3dee6;}.cls-131{fill:url(#_ÂÁ_Ï_ÌÌ_È_ËÂÌÚ_1682);}</style>
    <linearGradient id="_ÂÁ_Ï_ÌÌ_È_ËÂÌÚ_2851" x1="93.59" y1="263.35" x2="104.01" y2="178.54" gradientUnits="userSpaceOnUse">
      <stop offset="0.01" stop-color="#181658"></stop>
      <stop offset="0.22" stop-color="#504f83"></stop>
      <stop offset="0.5" stop-color="#9494b8"></stop>
      <stop offset="0.73" stop-color="#c6c7de"></stop>
      <stop offset="0.9" stop-color="#e5e6f6"></stop>
      <stop offset="1" stop-color="#f1f2ff"></stop>
    </linearGradient>
    <linearGradient id="_ÂÁ_Ï_ÌÌ_È_ËÂÌÚ_9" x1="385.57" y1="320.38" x2="402.84" y2="179.74" gradientUnits="userSpaceOnUse">
      <stop offset="0.01" stop-color="#181658"></stop>
      <stop offset="0.11" stop-color="#222060"></stop>
      <stop offset="0.27" stop-color="#3d3c75"></stop>
      <stop offset="0.48" stop-color="#6a6997"></stop>
      <stop offset="0.73" stop-color="#a7a7c6"></stop>
      <stop offset="1" stop-color="#f1f2ff"></stop>
    </linearGradient>
    <linearGradient id="_ÂÁ_Ï_ÌÌ_È_ËÂÌÚ_2851-2" x1="-777.62" y1="-1670.54" x2="-766.49" y2="-1761.22" gradientTransform="matrix(0.84, -0.27, -0.27, 0.53, 578.98, 1001.98)" xlink:href="#_ÂÁ_Ï_ÌÌ_È_ËÂÌÚ_2851"></linearGradient>
    <linearGradient id="_ÂÁ_Ï_ÌÌ_È_ËÂÌÚ_2851-3" x1="155.74" y1="407.31" x2="168.92" y2="300.02" xlink:href="#_ÂÁ_Ï_ÌÌ_È_ËÂÌÚ_2851"></linearGradient>
    <linearGradient id="_ÂÁ_Ï_ÌÌ_È_ËÂÌÚ_9-2" x1="209.45" y1="355.43" x2="226.08" y2="219.97" xlink:href="#_ÂÁ_Ï_ÌÌ_È_ËÂÌÚ_9"></linearGradient>
    <linearGradient id="_ÂÁ_Ï_ÌÌ_È_ËÂÌÚ_367" x1="314.68" y1="188.4" x2="413.52" y2="82.41" gradientUnits="userSpaceOnUse">
      <stop offset="0" stop-color="#f2d285"></stop>
      <stop offset="0.18" stop-color="#f0c97d"></stop>
      <stop offset="0.47" stop-color="#ecb266"></stop>
      <stop offset="0.84" stop-color="#e58c42"></stop>
      <stop offset="0.99" stop-color="#e27930"></stop>
    </linearGradient>
    <linearGradient id="_ÂÁ_Ï_ÌÌ_È_ËÂÌÚ_373" x1="299.93" y1="248.34" x2="387.97" y2="67.82" gradientUnits="userSpaceOnUse">
      <stop offset="0" stop-color="#e79e5a"></stop>
      <stop offset="0.21" stop-color="#e58d4f"></stop>
      <stop offset="0.72" stop-color="#e06836"></stop>
      <stop offset="0.99" stop-color="#de5a2d"></stop>
    </linearGradient>
    <linearGradient id="_ÂÁ_Ï_ÌÌ_È_ËÂÌÚ_1984" x1="294.1" y1="33.9" x2="316.99" y2="33.9" gradientUnits="userSpaceOnUse">
      <stop offset="0" stop-color="#eaab60"></stop>
      <stop offset="0.11" stop-color="#ebb167"></stop>
      <stop offset="0.28" stop-color="#efc27c"></stop>
      <stop offset="0.48" stop-color="#f5de9e"></stop>
      <stop offset="0.48" stop-color="#f5de9e"></stop>
      <stop offset="0.52" stop-color="#f2cc8d"></stop>
      <stop offset="0.63" stop-color="#eaa166"></stop>
      <stop offset="0.73" stop-color="#e57f48"></stop>
      <stop offset="0.83" stop-color="#e06732"></stop>
      <stop offset="0.92" stop-color="#de5825"></stop>
      <stop offset="0.99" stop-color="#dd5320"></stop>
    </linearGradient>
    <linearGradient id="_ÂÁ_Ï_ÌÌ_È_ËÂÌÚ_1984-2" x1="320.83" y1="49.25" x2="343.72" y2="49.25" xlink:href="#_ÂÁ_Ï_ÌÌ_È_ËÂÌÚ_1984"></linearGradient>
    <linearGradient id="_ÂÁ_Ï_ÌÌ_È_ËÂÌÚ_1984-3" x1="348.27" y1="64.84" x2="371.16" y2="64.84" xlink:href="#_ÂÁ_Ï_ÌÌ_È_ËÂÌÚ_1984"></linearGradient>
    <linearGradient id="_ÂÁ_Ï_ÌÌ_È_ËÂÌÚ_1984-4" x1="376.02" y1="80.36" x2="398.92" y2="80.36" xlink:href="#_ÂÁ_Ï_ÌÌ_È_ËÂÌÚ_1984"></linearGradient>
    <linearGradient id="_ÂÁ_Ï_ÌÌ_È_ËÂÌÚ_1245" x1="-3131.9" y1="-1048.24" x2="-3076.98" y2="-1048.24" gradientTransform="matrix(-0.68, -0.86, -0.43, 0.92, -2318.94, -1565.61)" gradientUnits="userSpaceOnUse">
      <stop offset="0" stop-color="#eac14b"></stop>
      <stop offset="0.18" stop-color="#e9ba4b"></stop>
      <stop offset="0.44" stop-color="#e7a54a"></stop>
      <stop offset="0.75" stop-color="#e38448"></stop>
      <stop offset="0.99" stop-color="#df6647"></stop>
    </linearGradient>
    <linearGradient id="_ÂÁ_Ï_ÌÌ_È_ËÂÌÚ_126" x1="-3131.9" y1="-1037.53" x2="-3122.04" y2="-1037.53" gradientTransform="matrix(-0.68, -0.86, -0.43, 0.92, -2318.94, -1565.61)" gradientUnits="userSpaceOnUse">
      <stop offset="0" stop-color="#fff"></stop>
      <stop offset="1" stop-color="#5e2780"></stop>
    </linearGradient>
    <linearGradient id="_ÂÁ_Ï_ÌÌ_È_ËÂÌÚ_1245-2" x1="-3212.95" y1="-1035.7" x2="-3157.98" y2="-1035.7" xlink:href="#_ÂÁ_Ï_ÌÌ_È_ËÂÌÚ_1245"></linearGradient>
    <linearGradient id="_ÂÁ_Ï_ÌÌ_È_ËÂÌÚ_126-2" x1="-3212.95" y1="-1024.98" x2="-3203.07" y2="-1024.98" xlink:href="#_ÂÁ_Ï_ÌÌ_È_ËÂÌÚ_126"></linearGradient>
    <linearGradient id="_ÂÁ_Ï_ÌÌ_È_ËÂÌÚ_194" x1="-3255.97" y1="-1109.46" x2="-3221.3" y2="-1109.46" gradientTransform="matrix(-0.68, -0.86, -0.43, 0.92, -2318.94, -1565.61)" gradientUnits="userSpaceOnUse">
      <stop offset="0" stop-color="#db8ba5"></stop>
      <stop offset="0.5" stop-color="#ecb5b9"></stop>
      <stop offset="1" stop-color="#eaadc6"></stop>
    </linearGradient>
    <linearGradient id="_ÂÁ_Ï_ÌÌ_È_ËÂÌÚ_126-3" x1="-3255.97" y1="-1102.71" x2="-3249.74" y2="-1102.71" xlink:href="#_ÂÁ_Ï_ÌÌ_È_ËÂÌÚ_126"></linearGradient>
    <linearGradient id="_ÂÁ_Ï_ÌÌ_È_ËÂÌÚ_276" x1="102.84" y1="123.19" x2="62.35" y2="123.19" gradientUnits="userSpaceOnUse">
      <stop offset="0" stop-color="#f8e677"></stop>
      <stop offset="0.42" stop-color="#e8a066"></stop>
      <stop offset="1" stop-color="#a9397c"></stop>
    </linearGradient>
    <linearGradient id="_ÂÁ_Ï_ÌÌ_È_ËÂÌÚ_1328" x1="74.13" y1="195.6" x2="55.81" y2="195.6" gradientUnits="userSpaceOnUse">
      <stop offset="0.06" stop-color="#482ea2"></stop>
      <stop offset="0.11" stop-color="#462b9e"></stop>
      <stop offset="0.37" stop-color="#3d1f8d"></stop>
      <stop offset="0.65" stop-color="#381883"></stop>
      <stop offset="1" stop-color="#361680"></stop>
    </linearGradient>
    <linearGradient id="_ÂÁ_Ï_ÌÌ_È_ËÂÌÚ_270" x1="56.72" y1="120.09" x2="56.72" y2="167.25" gradientUnits="userSpaceOnUse">
      <stop offset="0" stop-color="#ffffc3"></stop>
      <stop offset="0.19" stop-color="#fcf5c8"></stop>
      <stop offset="0.51" stop-color="#f6d9d5"></stop>
      <stop offset="0.92" stop-color="#eaacea"></stop>
      <stop offset="1" stop-color="#e8a2ef"></stop>
    </linearGradient>
    <linearGradient id="_ÂÁ_Ï_ÌÌ_È_ËÂÌÚ_251" x1="61.71" y1="147.5" x2="75.08" y2="145.15" gradientUnits="userSpaceOnUse">
      <stop offset="0" stop-color="#f8e677"></stop>
      <stop offset="0.5" stop-color="#e8a066"></stop>
      <stop offset="1" stop-color="#e17757"></stop>
    </linearGradient>
    <linearGradient id="_ÂÁ_Ï_ÌÌ_È_ËÂÌÚ_251-2" x1="37.08" y1="149.54" x2="64.08" y2="149.54" xlink:href="#_ÂÁ_Ï_ÌÌ_È_ËÂÌÚ_251"></linearGradient>
    <linearGradient id="_ÂÁ_Ï_ÌÌ_È_ËÂÌÚ_251-3" x1="10.12" y1="138.04" x2="44.43" y2="138.04" xlink:href="#_ÂÁ_Ï_ÌÌ_È_ËÂÌÚ_251"></linearGradient>
    <linearGradient id="_ÂÁ_Ï_ÌÌ_È_ËÂÌÚ_1722" x1="4929.28" y1="366.69" x2="4934.27" y2="366.69" gradientTransform="matrix(-1, 0, 0, 1, 5141.51, 0)" gradientUnits="userSpaceOnUse">
      <stop offset="0" stop-color="#6a8fea"></stop>
      <stop offset="0.09" stop-color="#6e96eb"></stop>
      <stop offset="0.22" stop-color="#7ba9ef"></stop>
      <stop offset="0.36" stop-color="#8dc6f4"></stop>
      <stop offset="0.44" stop-color="#85b6eb"></stop>
      <stop offset="0.6" stop-color="#718cd5"></stop>
      <stop offset="0.82" stop-color="#5049b1"></stop>
      <stop offset="1" stop-color="#340e91"></stop>
    </linearGradient>
    <linearGradient id="_ÂÁ_Ï_ÌÌ_È_ËÂÌÚ_1722-2" x1="4859.18" y1="325.64" x2="4864.16" y2="325.64" xlink:href="#_ÂÁ_Ï_ÌÌ_È_ËÂÌÚ_1722"></linearGradient>
    <linearGradient id="_ÂÁ_Ï_ÌÌ_È_ËÂÌÚ_1722-3" x1="5063.23" y1="284.74" x2="5068.22" y2="284.74" xlink:href="#_ÂÁ_Ï_ÌÌ_È_ËÂÌÚ_1722"></linearGradient>
    <linearGradient id="_ÂÁ_Ï_ÌÌ_È_ËÂÌÚ_1722-4" x1="4993.12" y1="243.7" x2="4998.11" y2="243.7" xlink:href="#_ÂÁ_Ï_ÌÌ_È_ËÂÌÚ_1722"></linearGradient>
    <linearGradient id="_ÂÁ_Ï_ÌÌ_È_ËÂÌÚ_1745" x1="4890.01" y1="234.34" x2="4960.21" y2="234.34" gradientTransform="matrix(-1.01, -0.01, 0.01, 1, 5184.64, 25.13)" gradientUnits="userSpaceOnUse">
      <stop offset="0" stop-color="gray"></stop>
      <stop offset="1" stop-color="#171717"></stop>
    </linearGradient>
    <linearGradient id="_ÂÁ_Ï_ÌÌ_È_ËÂÌÚ_1733" x1="4903.02" y1="228.26" x2="4973.64" y2="228.26" gradientTransform="matrix(-1, 0, 0, 1, 5141.51, 0)" gradientUnits="userSpaceOnUse">
      <stop offset="0" stop-color="#d9d9d9"></stop>
      <stop offset="1" stop-color="#666"></stop>
    </linearGradient>
    <linearGradient id="_ÂÁ_Ï_ÌÌ_È_ËÂÌÚ_1752" x1="4903.02" y1="250.83" x2="4973.64" y2="250.83" gradientTransform="matrix(-1, 0, 0, 1, 5141.51, 0)" gradientUnits="userSpaceOnUse">
      <stop offset="0" stop-color="#ebebeb"></stop>
      <stop offset="1" stop-color="#ababab"></stop>
    </linearGradient>
    <linearGradient id="_ÂÁ_Ï_ÌÌ_È_ËÂÌÚ_1755" x1="5245.5" y1="1061.39" x2="5243.08" y2="1077.62" gradientTransform="matrix(-0.87, -0.5, 0, 1.15, 4769.28, 1627.63)" gradientUnits="userSpaceOnUse">
      <stop offset="0" stop-color="#8dc6f4"></stop>
      <stop offset="0.13" stop-color="#85b6eb"></stop>
      <stop offset="0.38" stop-color="#718cd5"></stop>
      <stop offset="0.72" stop-color="#5049b1"></stop>
      <stop offset="1" stop-color="#340e91"></stop>
    </linearGradient>
    <linearGradient id="_ÂÁ_Ï_ÌÌ_È_ËÂÌÚ_1755-2" x1="5250.24" y1="1053.96" x2="5246.72" y2="1077.56" xlink:href="#_ÂÁ_Ï_ÌÌ_È_ËÂÌÚ_1755"></linearGradient>
    <linearGradient id="_ÂÁ_Ï_ÌÌ_È_ËÂÌÚ_1755-3" x1="5253.05" y1="1065.75" x2="5251.27" y2="1077.67" xlink:href="#_ÂÁ_Ï_ÌÌ_È_ËÂÌÚ_1755"></linearGradient>
    <linearGradient id="_ÂÁ_Ï_ÌÌ_È_ËÂÌÚ_1755-4" x1="5258.41" y1="1069.41" x2="5257.15" y2="1077.84" xlink:href="#_ÂÁ_Ï_ÌÌ_È_ËÂÌÚ_1755"></linearGradient>
    <linearGradient id="_ÂÁ_Ï_ÌÌ_È_ËÂÌÚ_1739" x1="4942.15" y1="217.94" x2="4949.99" y2="217.94" gradientTransform="matrix(-1, 0, 0, 1, 5141.51, 0)" gradientUnits="userSpaceOnUse">
      <stop offset="0" stop-color="#e9ab66"></stop>
      <stop offset="1" stop-color="#e06b5f"></stop>
    </linearGradient>
    <linearGradient id="_ÂÁ_Ï_ÌÌ_È_ËÂÌÚ_1739-2" x1="4962.05" y1="205.93" x2="4965.37" y2="205.93" xlink:href="#_ÂÁ_Ï_ÌÌ_È_ËÂÌÚ_1739"></linearGradient>
    <linearGradient id="_ÂÁ_Ï_ÌÌ_È_ËÂÌÚ_1739-3" x1="4954.13" y1="212.92" x2="4960.74" y2="212.92" xlink:href="#_ÂÁ_Ï_ÌÌ_È_ËÂÌÚ_1739"></linearGradient>
    <linearGradient id="_ÂÁ_Ï_ÌÌ_È_ËÂÌÚ_1739-4" x1="4934.82" y1="220.16" x2="4938" y2="220.16" xlink:href="#_ÂÁ_Ï_ÌÌ_È_ËÂÌÚ_1739"></linearGradient>
    <linearGradient id="_ÂÁ_Ï_ÌÌ_È_ËÂÌÚ_1739-5" x1="4928.04" y1="220.69" x2="4935.35" y2="220.69" xlink:href="#_ÂÁ_Ï_ÌÌ_È_ËÂÌÚ_1739"></linearGradient>
    <linearGradient id="_ÂÁ_Ï_ÌÌ_È_ËÂÌÚ_1739-6" x1="4920.2" y1="226.63" x2="4922.63" y2="226.63" xlink:href="#_ÂÁ_Ï_ÌÌ_È_ËÂÌÚ_1739"></linearGradient>
    <linearGradient id="_ÂÁ_Ï_ÌÌ_È_ËÂÌÚ_1739-7" x1="4923.04" y1="231.49" x2="4925.5" y2="231.49" xlink:href="#_ÂÁ_Ï_ÌÌ_È_ËÂÌÚ_1739"></linearGradient>
    <linearGradient id="_ÂÁ_Ï_ÌÌ_È_ËÂÌÚ_1739-8" x1="4956.47" y1="217.26" x2="4958.23" y2="217.26" xlink:href="#_ÂÁ_Ï_ÌÌ_È_ËÂÌÚ_1739"></linearGradient>
    <linearGradient id="_ÂÁ_Ï_ÌÌ_È_ËÂÌÚ_1739-9" x1="4937.32" y1="217.94" x2="4954.82" y2="217.94" xlink:href="#_ÂÁ_Ï_ÌÌ_È_ËÂÌÚ_1739"></linearGradient>
    <linearGradient id="_ÂÁ_Ï_ÌÌ_È_ËÂÌÚ_1739-10" x1="4960.06" y1="205.93" x2="4967.37" y2="205.93" xlink:href="#_ÂÁ_Ï_ÌÌ_È_ËÂÌÚ_1739"></linearGradient>
    <linearGradient id="_ÂÁ_Ï_ÌÌ_È_ËÂÌÚ_1984-5" x1="4917.32" y1="280.19" x2="4917.32" y2="318.34" gradientTransform="matrix(-1, 0, 0, 1, 5141.51, 0)" xlink:href="#_ÂÁ_Ï_ÌÌ_È_ËÂÌÚ_1984"></linearGradient>
    <linearGradient id="_ÂÁ_Ï_ÌÌ_È_ËÂÌÚ_1245-3" x1="4978.96" y1="189.1" x2="4978.96" y2="229.52" gradientTransform="matrix(-1, 0, 0, 1, 5141.51, 0)" xlink:href="#_ÂÁ_Ï_ÌÌ_È_ËÂÌÚ_1245"></linearGradient>
    <linearGradient id="_ÂÁ_Ï_ÌÌ_È_ËÂÌÚ_1245-4" x1="4983.49" y1="173.91" x2="4983.49" y2="226.91" gradientTransform="matrix(-1, 0, 0, 1, 5141.51, 0)" xlink:href="#_ÂÁ_Ï_ÌÌ_È_ËÂÌÚ_1245"></linearGradient>
    <linearGradient id="_ÂÁ_Ï_ÌÌ_È_ËÂÌÚ_1245-5" x1="4988.01" y1="188.96" x2="4988.01" y2="224.3" gradientTransform="matrix(-1, 0, 0, 1, 5141.51, 0)" xlink:href="#_ÂÁ_Ï_ÌÌ_È_ËÂÌÚ_1245"></linearGradient>
    <linearGradient id="_ÂÁ_Ï_ÌÌ_È_ËÂÌÚ_1245-6" x1="4992.54" y1="178.17" x2="4992.54" y2="221.68" gradientTransform="matrix(-1, 0, 0, 1, 5141.51, 0)" xlink:href="#_ÂÁ_Ï_ÌÌ_È_ËÂÌÚ_1245"></linearGradient>
    <linearGradient id="_ÂÁ_Ï_ÌÌ_È_ËÂÌÚ_1245-7" x1="4997.07" y1="195.63" x2="4997.07" y2="219.07" gradientTransform="matrix(-1, 0, 0, 1, 5141.51, 0)" xlink:href="#_ÂÁ_Ï_ÌÌ_È_ËÂÌÚ_1245"></linearGradient>
    <linearGradient id="_ÂÁ_Ï_ÌÌ_È_ËÂÌÚ_1245-8" x1="5001.59" y1="182.33" x2="5001.59" y2="216.46" gradientTransform="matrix(-1, 0, 0, 1, 5141.51, 0)" xlink:href="#_ÂÁ_Ï_ÌÌ_È_ËÂÌÚ_1245"></linearGradient>
    <linearGradient id="_ÂÁ_Ï_ÌÌ_È_ËÂÌÚ_1245-9" x1="5006.12" y1="199.31" x2="5006.12" y2="213.84" gradientTransform="matrix(-1, 0, 0, 1, 5141.51, 0)" xlink:href="#_ÂÁ_Ï_ÌÌ_È_ËÂÌÚ_1245"></linearGradient>
    <linearGradient id="_ÂÁ_Ï_ÌÌ_È_ËÂÌÚ_1245-10" x1="5010.65" y1="158.23" x2="5010.65" y2="211.23" gradientTransform="matrix(-1, 0, 0, 1, 5141.51, 0)" xlink:href="#_ÂÁ_Ï_ÌÌ_È_ËÂÌÚ_1245"></linearGradient>
    <linearGradient id="_ÂÁ_Ï_ÌÌ_È_ËÂÌÚ_1245-11" x1="5015.17" y1="179.58" x2="5015.17" y2="208.62" gradientTransform="matrix(-1, 0, 0, 1, 5141.51, 0)" xlink:href="#_ÂÁ_Ï_ÌÌ_È_ËÂÌÚ_1245"></linearGradient>
    <linearGradient id="_ÂÁ_Ï_ÌÌ_È_ËÂÌÚ_1739-11" x1="4858.04" y1="270.43" x2="4875.28" y2="270.43" xlink:href="#_ÂÁ_Ï_ÌÌ_È_ËÂÌÚ_1739"></linearGradient>
    <linearGradient id="_ÂÁ_Ï_ÌÌ_È_ËÂÌÚ_1739-12" x1="4894.39" y1="218.9" x2="4911.63" y2="218.9" xlink:href="#_ÂÁ_Ï_ÌÌ_È_ËÂÌÚ_1739"></linearGradient>
    <linearGradient id="_ÂÁ_Ï_ÌÌ_È_ËÂÌÚ_6" x1="4472.71" y1="375.57" x2="4486.22" y2="397.19" gradientTransform="matrix(-1, 0, 0, 1, 4584.62, 0)" gradientUnits="userSpaceOnUse">
      <stop offset="0" stop-color="#373782"></stop>
      <stop offset="0.13" stop-color="#3b3c86"></stop>
      <stop offset="0.28" stop-color="#484990"></stop>
      <stop offset="0.44" stop-color="#5e60a1"></stop>
      <stop offset="0.61" stop-color="#7b80b9"></stop>
      <stop offset="0.74" stop-color="#979ed0"></stop>
      <stop offset="0.78" stop-color="#9298cc"></stop>
      <stop offset="0.84" stop-color="#8388c0"></stop>
      <stop offset="0.9" stop-color="#6a6dad"></stop>
      <stop offset="0.97" stop-color="#484892"></stop>
      <stop offset="1" stop-color="#343182"></stop>
    </linearGradient>
    <linearGradient id="_ÂÁ_Ï_ÌÌ_È_ËÂÌÚ_1" x1="4476.78" y1="383.12" x2="4482.16" y2="383.12" gradientTransform="matrix(-1, 0, 0, 1, 4584.62, 0)" gradientUnits="userSpaceOnUse">
      <stop offset="0" stop-color="#543782"></stop>
      <stop offset="0.11" stop-color="#593b84"></stop>
      <stop offset="0.24" stop-color="#664589"></stop>
      <stop offset="0.38" stop-color="#7d5692"></stop>
      <stop offset="0.52" stop-color="#9d6f9e"></stop>
      <stop offset="0.67" stop-color="#c68dad"></stop>
      <stop offset="0.74" stop-color="#dc9eb5"></stop>
      <stop offset="0.77" stop-color="#d699b3"></stop>
      <stop offset="0.82" stop-color="#c68dad"></stop>
      <stop offset="0.88" stop-color="#ab77a3"></stop>
      <stop offset="0.93" stop-color="#855a95"></stop>
      <stop offset="0.99" stop-color="#553484"></stop>
      <stop offset="1" stop-color="#513182"></stop>
    </linearGradient>
    <linearGradient id="_ÂÁ_Ï_ÌÌ_È_ËÂÌÚ_6-2" x1="4477.59" y1="372.76" x2="4481.34" y2="372.76" xlink:href="#_ÂÁ_Ï_ÌÌ_È_ËÂÌÚ_6"></linearGradient>
    <linearGradient id="_ÂÁ_Ï_ÌÌ_È_ËÂÌÚ_339" x1="4516.73" y1="343.78" x2="4437.88" y2="343.78" gradientTransform="matrix(-1, 0, 0, 1, 4584.62, 0)" gradientUnits="userSpaceOnUse">
      <stop offset="0" stop-color="#79c5fc"></stop>
      <stop offset="0.16" stop-color="#78c1fa"></stop>
      <stop offset="0.31" stop-color="#73b6f5"></stop>
      <stop offset="0.45" stop-color="#6ca3ec"></stop>
      <stop offset="0.59" stop-color="#6289e0"></stop>
      <stop offset="0.73" stop-color="#5667d0"></stop>
      <stop offset="0.87" stop-color="#463ebd"></stop>
      <stop offset="1" stop-color="#340ea7"></stop>
    </linearGradient>
    <linearGradient id="_ÂÁ_Ï_ÌÌ_È_ËÂÌÚ_5" x1="4477.59" y1="316.16" x2="4477.59" y2="365.16" gradientTransform="matrix(-1, 0, 0, 1, 4584.62, 0)" gradientUnits="userSpaceOnUse">
      <stop offset="0.06" stop-color="#5f33ab"></stop>
      <stop offset="0.31" stop-color="#5931a6"></stop>
      <stop offset="0.63" stop-color="#482b98"></stop>
      <stop offset="1" stop-color="#2c2182"></stop>
    </linearGradient>
    <linearGradient id="_ÂÁ_Ï_ÌÌ_È_ËÂÌÚ_3" x1="4448.28" y1="332.61" x2="4438.64" y2="349.05" gradientTransform="matrix(-1, 0, 0, 1, 4584.62, 0)" gradientUnits="userSpaceOnUse">
      <stop offset="0.06" stop-color="#5f33ab"></stop>
      <stop offset="0.2" stop-color="#6539ac"></stop>
      <stop offset="0.38" stop-color="#754aaf"></stop>
      <stop offset="0.48" stop-color="#8157b1"></stop>
      <stop offset="0.59" stop-color="#7650ab"></stop>
      <stop offset="0.76" stop-color="#5a3e9c"></stop>
      <stop offset="1" stop-color="#2d2182"></stop>
      <stop offset="1" stop-color="#2c2182"></stop>
    </linearGradient>
    <linearGradient id="_ÂÁ_Ï_ÌÌ_È_ËÂÌÚ_336" x1="105.23" y1="281.17" x2="126.06" y2="281.17" gradientUnits="userSpaceOnUse">
      <stop offset="0.01" stop-color="#992383"></stop>
      <stop offset="0.29" stop-color="#94338f"></stop>
      <stop offset="0.61" stop-color="#913d97"></stop>
      <stop offset="1" stop-color="#90409a"></stop>
    </linearGradient>
    <linearGradient id="_ÂÁ_Ï_ÌÌ_È_ËÂÌÚ_330" x1="90.86" y1="304.24" x2="160.16" y2="306.66" gradientUnits="userSpaceOnUse">
      <stop offset="0.01" stop-color="#992383"></stop>
      <stop offset="0.02" stop-color="#9f2b88"></stop>
      <stop offset="0.08" stop-color="#b84a9b"></stop>
      <stop offset="0.13" stop-color="#cb62a9"></stop>
      <stop offset="0.19" stop-color="#d873b4"></stop>
      <stop offset="0.25" stop-color="#e07dba"></stop>
      <stop offset="0.33" stop-color="#e380bc"></stop>
      <stop offset="0.53" stop-color="#d35ab6"></stop>
      <stop offset="0.62" stop-color="#cb47b3"></stop>
      <stop offset="0.78" stop-color="#b444a9"></stop>
      <stop offset="1" stop-color="#90409a"></stop>
    </linearGradient>
    <linearGradient id="_ÂÁ_Ï_ÌÌ_È_ËÂÌÚ_339-2" x1="4525.94" y1="319" x2="4472.37" y2="319" xlink:href="#_ÂÁ_Ï_ÌÌ_È_ËÂÌÚ_339"></linearGradient>
    <linearGradient id="_ÂÁ_Ï_ÌÌ_È_ËÂÌÚ_3-2" x1="4465.3" y1="342.43" x2="4455.66" y2="358.88" xlink:href="#_ÂÁ_Ï_ÌÌ_È_ËÂÌÚ_3"></linearGradient>
    <linearGradient id="_ÂÁ_Ï_ÌÌ_È_ËÂÌÚ_339-3" x1="4453.84" y1="327.46" x2="4449.35" y2="334.94" xlink:href="#_ÂÁ_Ï_ÌÌ_È_ËÂÌÚ_339"></linearGradient>
    <linearGradient id="_ÂÁ_Ï_ÌÌ_È_ËÂÌÚ_1697" x1="-5157.88" y1="-3302.38" x2="-5157.88" y2="-3288.08" gradientTransform="matrix(-0.77, -0.43, -0.22, 1.18, -4295.95, 1822.47)" gradientUnits="userSpaceOnUse">
      <stop offset="0" stop-color="#f2cf82"></stop>
      <stop offset="0.14" stop-color="#f1c87c"></stop>
      <stop offset="0.35" stop-color="#edb46c"></stop>
      <stop offset="0.61" stop-color="#e89352"></stop>
      <stop offset="0.89" stop-color="#e0652e"></stop>
      <stop offset="0.99" stop-color="#dd5320"></stop>
    </linearGradient>
    <linearGradient id="_ÂÁ_Ï_ÌÌ_È_ËÂÌÚ_1697-2" x1="-5151.02" y1="-3302.38" x2="-5151.02" y2="-3288.08" xlink:href="#_ÂÁ_Ï_ÌÌ_È_ËÂÌÚ_1697"></linearGradient>
    <linearGradient id="_ÂÁ_Ï_ÌÌ_È_ËÂÌÚ_1697-3" x1="-5144.15" y1="-3302.38" x2="-5144.15" y2="-3288.08" xlink:href="#_ÂÁ_Ï_ÌÌ_È_ËÂÌÚ_1697"></linearGradient>
    <linearGradient id="_ÂÁ_Ï_ÌÌ_È_ËÂÌÚ_1697-4" x1="-5137.28" y1="-3302.38" x2="-5137.28" y2="-3288.08" xlink:href="#_ÂÁ_Ï_ÌÌ_È_ËÂÌÚ_1697"></linearGradient>
    <linearGradient id="_ÂÁ_Ï_ÌÌ_È_ËÂÌÚ_1697-5" x1="-5130.42" y1="-3302.38" x2="-5130.42" y2="-3288.08" xlink:href="#_ÂÁ_Ï_ÌÌ_È_ËÂÌÚ_1697"></linearGradient>
    <linearGradient id="_ÂÁ_Ï_ÌÌ_È_ËÂÌÚ_1697-6" x1="-5123.55" y1="-3302.38" x2="-5123.55" y2="-3288.08" xlink:href="#_ÂÁ_Ï_ÌÌ_È_ËÂÌÚ_1697"></linearGradient>
    <linearGradient id="_ÂÁ_Ï_ÌÌ_È_ËÂÌÚ_1298" x1="-4136.17" y1="438.29" x2="-4087.28" y2="438.29" gradientTransform="matrix(-1, 0.09, -0.19, 1.02, -3640.8, 113.44)" gradientUnits="userSpaceOnUse">
      <stop offset="0" stop-color="#4479f7"></stop>
      <stop offset="0.3" stop-color="#5a85f0"></stop>
      <stop offset="0.49" stop-color="#6a8fea"></stop>
      <stop offset="0.81" stop-color="#4940c1"></stop>
      <stop offset="1" stop-color="#340ea7"></stop>
    </linearGradient>
    <linearGradient id="_ÂÁ_Ï_ÌÌ_È_ËÂÌÚ_345" x1="-5168.85" y1="-3310.99" x2="-5112.77" y2="-3310.99" gradientTransform="matrix(-0.77, -0.43, -0.22, 1.18, -4295.95, 1822.47)" gradientUnits="userSpaceOnUse">
      <stop offset="0" stop-color="#ebb260"></stop>
      <stop offset="0.19" stop-color="#f2cf82"></stop>
      <stop offset="0.37" stop-color="#edb069"></stop>
      <stop offset="0.8" stop-color="#e16d35"></stop>
      <stop offset="0.99" stop-color="#dd5320"></stop>
    </linearGradient>
    <linearGradient id="_ÂÁ_Ï_ÌÌ_È_ËÂÌÚ_1682" x1="4795.55" y1="4067.38" x2="4810.67" y2="4067.38" gradientTransform="matrix(-0.84, -0.65, -0.13, 1.09, 4925.59, -1029.01)" gradientUnits="userSpaceOnUse">
      <stop offset="0" stop-color="#ebb260"></stop>
      <stop offset="0.99" stop-color="#db341d"></stop>
    </linearGradient>
  </defs>
  <g id="Layer_2" data-name="Layer 2">
    <g id="layer_1-2" data-name="layer 1">
      <path class="cls-1" d="M164.39,202l-89.72,51.8a35.85,35.85,0,0,1-35.3.31h0a12.53,12.53,0,0,1-.19-21.81l88.1-50.86Z"></path>
      <polygon class="cls-2" points="517.17 259.99 407.44 323.07 271.24 240.13 380.97 177.06 517.17 259.99"></polygon>
      <path class="cls-3" d="M410.79,308.69a16.35,16.35,0,0,1-1.88-8.39,21.39,21.39,0,0,1,.67-5.21l-41.79,24.14c-8.44,4.87-3.67,13.18,2.22,13.36,0,0,10.95-5.37,21.85-11.66l19.32-11.16Q411,309.25,410.79,308.69Z"></path>
      <path class="cls-4" d="M245.3,329.65,131.81,395.17a45.34,45.34,0,0,1-44.66.39h0A15.84,15.84,0,0,1,86.91,368l111.45-64.35Z"></path>
      <polygon class="cls-5" points="336.2 297.26 230.51 358.01 99.34 278.14 205.02 217.39 336.2 297.26"></polygon>
      <path class="cls-6" d="M287.86,163.38,470.68,268.93a9.3,9.3,0,0,0,13.7-10.22l-33.9-141.84L248.93.5Z"></path>
      <path class="cls-7" d="M246.64,205.93,429.56,311.54a9.8,9.8,0,0,0,14.54-6.76l6.38-188.42L248.93,0l-7.5,194.71A10.76,10.76,0,0,0,246.64,205.93Z"></path>
      <path class="cls-8" d="M217.82,214.79l182.91,105.6a9.8,9.8,0,0,0,14.55-6.76l35.2-196.76L248.93.5,212.6,203.56A10.78,10.78,0,0,0,217.82,214.79Z"></path>
      <path class="cls-9" d="M446.25,138.4l3.88-21.7L248.58.34l-4.4,24.58a11.72,11.72,0,0,0,5.68,12.22L434.62,143.81A7.84,7.84,0,0,0,446.25,138.4Z"></path>
      <path class="cls-10" d="M301.73,49.58h0a1.21,1.21,0,0,0-1-1.47c-3-.51-5-3.61-5-8.53,0-7.23,4.39-15.63,9.82-18.76s9.82.19,9.82,7.42a23.69,23.69,0,0,1-2.25,9.64l1.26.65A27.77,27.77,0,0,0,317,27.3c0-8.43-5.12-12.3-11.44-8.65S294.1,32.09,294.1,40.52c0,6,2.57,9.65,6.31,10A1.24,1.24,0,0,0,301.73,49.58Z"></path>
      <path class="cls-11" d="M328.46,64.94h0a1.22,1.22,0,0,0-1-1.48c-3-.51-5-3.61-5-8.52,0-7.24,4.39-15.64,9.82-18.77s9.82.19,9.82,7.42a23.86,23.86,0,0,1-2.25,9.64l1.25.65a27.58,27.58,0,0,0,2.62-11.22c0-8.43-5.12-12.31-11.44-8.66s-11.45,13.44-11.45,21.87c0,6,2.57,9.65,6.31,10A1.24,1.24,0,0,0,328.46,64.94Z"></path>
      <path class="cls-12" d="M355.89,80.52h0a1.21,1.21,0,0,0-1-1.48c-3-.5-5-3.61-5-8.52,0-7.23,4.4-15.64,9.82-18.77s9.82.2,9.82,7.43a23.76,23.76,0,0,1-2.24,9.63l1.25.66a27.66,27.66,0,0,0,2.62-11.23c0-8.43-5.13-12.3-11.45-8.66S348.27,63,348.27,71.46c0,6,2.56,9.65,6.31,10A1.23,1.23,0,0,0,355.89,80.52Z"></path>
      <path class="cls-13" d="M383.65,96.05h0a1.21,1.21,0,0,0-1-1.48c-3-.5-5-3.61-5-8.53,0-7.23,4.4-15.63,9.82-18.76s9.82.19,9.82,7.43A23.69,23.69,0,0,1,395,84.34l1.26.66a27.82,27.82,0,0,0,2.62-11.23c0-8.43-5.13-12.31-11.45-8.66S376,78.56,376,87c0,6,2.57,9.66,6.31,10A1.24,1.24,0,0,0,383.65,96.05Z"></path>
      <polygon class="cls-14" points="342.01 135.55 323.54 124.69 326.79 105.93 345.26 116.8 342.01 135.55"></polygon>
      <polygon class="cls-14" points="367.03 150.27 348.56 139.41 351.81 120.65 370.28 131.52 367.03 150.27"></polygon>
      <polygon class="cls-14" points="392.05 164.99 373.58 154.13 376.83 135.38 395.3 146.24 392.05 164.99"></polygon>
      <polygon class="cls-14" points="417.07 179.72 398.6 168.85 401.85 150.1 420.32 160.96 417.07 179.72"></polygon>
      <polygon class="cls-14" points="266.35 91.04 247.88 80.17 251.13 61.42 269.6 72.28 266.35 91.04"></polygon>
      <polygon class="cls-14" points="291.37 105.76 272.9 94.89 276.15 76.14 294.62 87.01 291.37 105.76"></polygon>
      <polygon class="cls-14" points="316.39 120.48 297.92 109.61 301.18 90.86 319.64 101.73 316.39 120.48"></polygon>
      <polygon class="cls-14" points="336.76 165.79 318.3 154.93 321.55 136.18 340.01 147.04 336.76 165.79"></polygon>
      <polygon class="cls-14" points="361.78 180.51 343.32 169.65 346.57 150.9 365.03 161.76 361.78 180.51"></polygon>
      <polygon class="cls-14" points="386.8 195.24 368.34 184.37 371.59 165.62 390.05 176.49 386.8 195.24"></polygon>
      <polygon class="cls-14" points="411.82 209.96 393.36 199.09 396.61 180.34 415.07 191.21 411.82 209.96"></polygon>
      <polygon class="cls-14" points="261.11 121.28 242.64 110.42 245.89 91.66 264.36 102.53 261.11 121.28"></polygon>
      <polygon class="cls-14" points="286.13 136 267.66 125.14 270.91 106.38 289.38 117.25 286.13 136"></polygon>
      <polygon class="cls-14" points="311.15 150.72 292.68 139.86 295.93 121.11 314.4 131.97 311.15 150.72"></polygon>
      <polygon class="cls-14" points="331.52 196.04 313.05 185.17 316.3 166.42 334.77 177.29 331.52 196.04"></polygon>
      <polygon class="cls-14" points="356.54 210.76 338.07 199.89 341.32 181.14 359.79 192.01 356.54 210.76"></polygon>
      <polygon class="cls-14" points="381.56 225.48 363.09 214.61 366.34 195.86 384.81 206.73 381.56 225.48"></polygon>
      <polygon class="cls-14" points="406.58 240.2 388.11 229.34 391.36 210.59 409.83 221.45 406.58 240.2"></polygon>
      <polygon class="cls-14" points="255.86 151.52 237.4 140.66 240.65 121.91 259.12 132.77 255.86 151.52"></polygon>
      <polygon class="cls-14" points="280.88 166.24 262.42 155.38 265.67 136.63 284.13 147.49 280.88 166.24"></polygon>
      <polygon class="cls-14" points="305.9 180.97 287.44 170.1 290.69 151.35 309.15 162.22 305.9 180.97"></polygon>
      <polygon class="cls-14" points="326.28 226.28 307.81 215.41 311.06 196.66 329.53 207.53 326.28 226.28"></polygon>
      <polygon class="cls-14" points="351.3 241 332.83 230.14 336.08 211.38 354.55 222.25 351.3 241"></polygon>
      <polygon class="cls-14" points="376.32 255.72 357.85 244.86 361.1 226.11 379.57 236.97 376.32 255.72"></polygon>
      <polygon class="cls-14" points="401.34 270.44 382.87 259.58 386.12 240.83 404.59 251.69 401.34 270.44"></polygon>
      <polygon class="cls-14" points="250.62 181.77 232.15 170.9 235.4 152.15 253.87 163.02 250.62 181.77"></polygon>
      <polygon class="cls-14" points="275.64 196.49 257.17 185.62 260.42 166.87 278.89 177.74 275.64 196.49"></polygon>
      <polygon class="cls-14" points="300.66 211.21 282.19 200.34 285.44 181.59 303.91 192.46 300.66 211.21"></polygon>
      <polygon class="cls-15" points="274.73 120.56 268.33 161.29 260.08 156.06 258.19 168.15 230.41 150.51 238.71 97.7 274.73 120.56"></polygon>
      <polygon class="cls-16" points="260.08 156.06 268.33 161.29 258.19 168.15 260.08 156.06"></polygon>
      <polygon class="cls-17" points="240.42 114.17 268.19 131.81 268.79 127.99 241.02 110.36 240.42 114.17"></polygon>
      <polygon class="cls-17" points="239.02 123.08 266.79 140.72 267.39 136.9 239.62 119.27 239.02 123.08"></polygon>
      <polygon class="cls-17" points="237.62 131.99 265.39 149.63 265.99 145.81 238.22 128.18 237.62 131.99"></polygon>
      <polygon class="cls-18" points="324.48 201.63 318.08 242.39 309.82 237.15 307.92 249.25 280.12 231.6 288.43 178.73 324.48 201.63"></polygon>
      <polygon class="cls-19" points="309.82 237.15 318.08 242.39 307.92 249.25 309.82 237.15"></polygon>
      <polygon class="cls-17" points="290.14 195.23 317.94 212.88 318.54 209.06 290.74 191.41 290.14 195.23"></polygon>
      <polygon class="cls-17" points="288.74 204.15 316.54 221.8 317.13 217.98 289.34 200.32 288.74 204.15"></polygon>
      <polygon class="cls-17" points="287.33 213.06 315.13 230.71 315.74 226.89 287.94 209.24 287.33 213.06"></polygon>
      <polygon class="cls-20" points="384.14 184.35 380.11 210.06 374.9 206.76 373.7 214.39 356.17 203.26 361.41 169.92 384.14 184.35"></polygon>
      <polygon class="cls-21" points="374.9 206.76 380.11 210.06 373.7 214.39 374.9 206.76"></polygon>
      <polygon class="cls-17" points="362.49 180.32 380.02 191.45 380.4 189.04 362.86 177.91 362.49 180.32"></polygon>
      <polygon class="cls-17" points="361.6 185.94 379.13 197.07 379.51 194.67 361.98 183.53 361.6 185.94"></polygon>
      <polygon class="cls-17" points="360.72 191.57 378.25 202.7 378.63 200.29 361.1 189.16 360.72 191.57"></polygon>
      <path class="cls-22" d="M96.7,115.12c.86-1,.43-2.19.47-4.36.09-3.89,2.17-6.54,2.66-6.47s.87,1.68-.26,3.48c-.36.57-.41,1-.24,1.19.37.34,2.32-.76,3.59-2.33,2.13-2.64,1.81-6,2.21-5.92.6.08.68,1.45.58,2.87-.2,2.72-1.83,4.37-1.66,4.49s1.37-1,2.08-2.89c1-2.77.18-4.47.73-4.61s1,.84,1,3a8.86,8.86,0,0,1-2,5.23,7.39,7.39,0,0,0,2.39-2.78c1.07-2.19.34-3.8.92-3.85s1,2,.38,4A8.48,8.48,0,0,1,107,110a4.88,4.88,0,0,0,2.3-1.79c1-1.25,1.06-2.55,1.63-2.35s-.28,2.51-.86,3.22a20.14,20.14,0,0,1-4.62,4.51c-1.77.94-2.1.61-3.29,1.55a18,18,0,0,0-2.63,2.94c-1.39,1.73-1.44,2-1.92,2.15-1.82.57-4.77-2.19-4.36-3.41C93.54,115.88,95.53,116.53,96.7,115.12Z"></path>
      <path class="cls-22" d="M14.35,135.41c-.87-1-.43-2.19-.48-4.36-.09-3.89-2.17-6.54-2.66-6.47s-.87,1.68.26,3.48c.37.57.41,1,.24,1.19-.36.34-2.32-.76-3.58-2.33-2.14-2.64-1.82-6-2.22-5.92-.6.08-.68,1.45-.58,2.87.2,2.72,1.83,4.37,1.66,4.48s-1.37-1-2.07-2.89c-1-2.77-.18-4.46-.74-4.6s-1,.84-1,3a8.82,8.82,0,0,0,2,5.22,7.19,7.19,0,0,1-2.39-2.77c-1.07-2.19-.34-3.81-.92-3.85s-1,2-.37,4a8.41,8.41,0,0,0,2.49,3.89,4.87,4.87,0,0,1-2.3-1.8c-1-1.24-1-2.54-1.63-2.34-.42.14.28,2.5.86,3.22a20.14,20.14,0,0,0,4.62,4.51c1.77.94,2.1.61,3.29,1.55a17.37,17.37,0,0,1,2.63,2.93c1.39,1.74,1.44,2,1.92,2.16,1.82.57,4.77-2.19,4.36-3.41C17.51,136.16,15.51,136.81,14.35,135.41Z"></path>
      <path class="cls-23" d="M59.05,228.37a11.4,11.4,0,0,0-1.73,3.77,3,3,0,0,0,1.58,3.53c2.33.72,4.14,1.33,4.7.54s.29-1.21,1-1.26c1.77-.14,2.85-.24,6.93,1.62,3.72,1.68,4.35,1.79,5.15,1.89,2.92.38,7.4-2,6-3C79.85,233.41,62.61,224,59.05,228.37Z"></path>
      <path class="cls-24" d="M62.57,115.9c.31-1.5,3.43-3,5.58-1.83A47.13,47.13,0,0,1,81,123.72c.29.28.91-.06,4.07-2.51,7.5-5.83,9.58-7,11.5-8.58.6-.5.38,1.1,1.51,2.39,1.86,2.14,5.32,1.61,4.71,2.56-1.76,2.71-10,10-19.7,15.87-3.27,2-11-4.06-14.58-6.81C65.78,124.58,61.3,122.12,62.57,115.9Z"></path>
      <path class="cls-25" d="M47.29,111.52c-.31.49,0,.88-.12,3.55-.12,2.25-.37,2.22-.24,2.87.39,1.89,2.59,2.25,6.58,4.7,3.71,2.28,6.32,3.43,6.12,2.41A46,46,0,0,1,59,114.79C59.11,109,48.47,109.66,47.29,111.52Z"></path>
      <path class="cls-26" d="M59.93,225.88c-1.35.73-1.69,2.82-2,4.46-.3,1.87-.29,2.08.3,2.82,1,1.25,4.36,2,5.13,1.37,1.45-1.17,5.11-.06,6.77.61,3.95,1.59,5.17,2.83,7.89,2.8.81,0,4.17-1.12,4.55-2.21.62-1.77-5.65-4.07-6.34-4.49-4.2-2.55-4.24-2.07-11-5C63.09,225.23,61.15,225.22,59.93,225.88Z"></path>
      <path class="cls-23" d="M40.69,249.25c-.08,1.35.54.33.58,2.15a16.92,16.92,0,0,0,.32,3.19c.25,1.2,1,5.29,4.13,7.4,2.23,1.48,6.23,2.15,7.83.41,1.94-2.1-.58-7-.72-7.25-1.51-2.87-3.07-2.76-3.82-5.11-1-3.28,1.34-5.55.23-6.62C48,242.17,40.9,245.66,40.69,249.25Z"></path>
      <path class="cls-27" d="M71.57,162.24c4.52,3.43,2,11.58.56,16.82-2.37,8.93-1.83,10.05-2.31,20-.1,2.15-1.42,6.48-1.91,11.65-1,10.34.49,14,.47,17.38,0,3.07-10,3.66-10.92-.08-1.3-5.26-2.3-7.29-1.12-37.56.76-19.37-.61-25.57,4.07-28.39C63.75,160.06,68.64,160,71.57,162.24Z"></path>
      <path class="cls-28" d="M51.34,122.5c2.89-.87,4,3.32,7.75,2.36,3.32-.85,4.82-5.12,6.06-4.75,2.56.76-1.07,11.17,1.32,25.24.75,4.44,1,9,1.68,13.4.63,3.87,1.07,5.79-.06,7.12-2,2.3-7.42,1.36-10.89-.24-11.89-5.51-14.81-25.48-11-36.43C47,127.23,48.3,123.41,51.34,122.5Z"></path>
      <path class="cls-26" d="M41.75,246.21a10.84,10.84,0,0,0-.48,4.55,16.92,16.92,0,0,0,.32,3.19c.25,1.2,1.06,5,4.23,7.1,2.23,1.48,6.13,2.45,7.73.72,1.94-2.11-.58-7-.72-7.26-1.51-2.87-3.07-2.76-3.82-5.1-1-3.28,1.34-5.56.23-6.62C48,241.53,43.09,243.14,41.75,246.21Z"></path>
      <path class="cls-29" d="M66.07,178.33c-1.25.64-2.47,1.83-4.86,1.63-1.2-.1-3.56-2.23-4.58-1.34-.05,3.28-.11,7.18-.29,11.85-.4,10.31-.55,17.35-.52,22.35.3-1,.68-2.29,1.16-4,1.51-5.43,2.25-8.14,3-11.32,1.28-5.82,1.53-9.23,2.79-13.24C63.62,181.38,67.5,177.6,66.07,178.33Z"></path>
      <path class="cls-29" d="M64.72,135.36c-1.35.35-1.09,6.43-.88,11.25.13,3.12.39,3.55,1,8.69.92,8.37,1.38,12.56,1.11,16.35a46.45,46.45,0,0,0,0,9.89c.25,1.61,3.64-.41,3.91-.56.78-.46,5.74-5.18,6.3-7.82C77,169.27,67.36,134.68,64.72,135.36Z"></path>
      <path class="cls-30" d="M73.64,124c-1.21-3.3-1.4-4.21-3-6.54A9.82,9.82,0,0,0,64.9,114a3.27,3.27,0,0,0-2.18,2c-1.27,6.22,3.21,8.68,5.92,10.74,2.92,2.22,8.47,6.56,12.23,7.13A28.86,28.86,0,0,1,73.64,124Z"></path>
      <path class="cls-31" d="M59,114.76c.67-.07,1.15,1.34,2.36,3.7,2.13,4.2,3.56,7.16,3.56,7.16s-1.22.53-1.23.77,2.48.81,2.48.81l-1.56,19.47a11.24,11.24,0,0,1-1.25-5.36c-.15-8.31.23-8.6-.83-12.5C60.9,123,58.3,114.82,59,114.76Z"></path>
      <path class="cls-32" d="M63.12,166.86c1.06,2.15-1,10.71-4,20.66-3.49,11.48-2.36,15.6-3.74,18.58-1.52,3.25-4.23,7.26-4.39,11.88-.63,18.35.16,22.92-.4,27-.38,2.73-10.61,4.38-11.4,1.35-1.64-6.23-3.9-18,0-30.3,1.53-4.82,2.06-4.66,2.95-8.45,1.74-7.51.67-12.56-.08-20.42-1.44-15-2.15-22.56,1.35-25C47.92,158.89,59.71,160,63.12,166.86Z"></path>
      <path class="cls-33" d="M60.17,115c1.28-1.52,4.3-1.85,6.5-.77a6.48,6.48,0,0,1,3.07,3.62C71.82,123,71.4,126,71.42,134c0,3.81-.68,8.7.49,14.63,1,4.85,1.75,5.58,3.53,13.22,2.12,9.08,1.66,10.86,1,12.14-2,3.92-9.33,8.08-9.19,4.75.08-1.9.41-7.83-1.52-23.53-1-8.14-1.51-7.57-1.11-14.2.48-8.05.06-10.92-1.44-16.74C61.75,118.63,58.77,116.6,60.17,115Z"></path>
      <path class="cls-29" d="M62.08,169.73c2.07,4.42,1.79,10.85.75,11.55-1.44,1-3.73.54-9.92-.62-5.75-1.08-7.7-1.17-10.07-2.83a7.05,7.05,0,0,1-3.33-4.91c-.87-5,3.56-10.81,9.1-11.88C55.1,159.79,60.19,165.68,62.08,169.73Z"></path>
      <path class="cls-34" d="M47.06,117.66c-1.09,0-.65.83-3.5,3.23-4.14,3.48-4.09,3-5.2,4.54-2.81,3.81-.46,10.64,1.79,15.85,3.92,9.07-.69,18.42-1.35,23.83-.61,4.94-.57,7.55.16,8.93,1.74,3.31,7.12,4.18,12.74,5.28,7.47,1.47,11.67,3.43,11.9.84a57.9,57.9,0,0,0,.3-12.32A122.78,122.78,0,0,0,62,151.33c-1.34-9.14-1.44-7.45-7.17-24.7C53.55,122.66,49.39,117.76,47.06,117.66Z"></path>
      <path class="cls-31" d="M46.22,117.45a5.7,5.7,0,0,0-2.66,1.94,7.58,7.58,0,0,0-.64,1.68c-.26.9,1.29,1.22,2.62,2.43,3.23,3,4.5,4.42,5.43,5.85.77,1.18,1.34,2.1,1.34,2.1s1.27-1,1.45-.93a11.78,11.78,0,0,1-1.08,2.27,44.88,44.88,0,0,1,3.83,5.32c2.72,5.24,4.83,8.82,4.83,8.82a50.09,50.09,0,0,0-1.33-9.3c-1.19-4.68-3.11-7.56-6.7-12.94C51,121.16,48,116.9,46.22,117.45Z"></path>
      <path class="cls-35" d="M46.37,117.18a5.7,5.7,0,0,0-2.66,1.94,6.93,6.93,0,0,0-.63,1.68c-.27.9,1.29,1.22,2.62,2.43a31.38,31.38,0,0,1,5.43,5.85c.77,1.18,1.34,2.1,1.34,2.1s1.26-1,1.44-.93S53,132.4,53,132.4a61.07,61.07,0,0,1,3.62,5.44c2.72,5.24,4.63,8.83,4.63,8.83a40.71,40.71,0,0,0-1.13-9.3c-1.18-4.68-3.11-7.57-6.7-13C51.11,120.9,48.19,116.63,46.37,117.18Z"></path>
      <path class="cls-36" d="M44.08,130a8.33,8.33,0,0,1-1.19,7.24c-1.37,1.76-1.89,3.84-10.33,9.39-7.67,5-9.17,4.59-10.59,4.42-3.65-.42-6.37-3.32-7.9-5.2a17.53,17.53,0,0,1-4-8.14c-.07-.77,2.31-1.19,4.19-1.89,1.71-.64,2.67-2,3.23-1.51,2.54,2.17,3.38,4.25,5.31,6.06.68.63,1.16,1.66,4.06-2.32s3.94-5.88,6.38-8.61c2.7-3,5.41-4.53,6-4.57C41.52,124.76,43.46,128,44.08,130Z"></path>
      <path class="cls-37" d="M47.16,115.68c-.22-.27-1.46,1.27-1.8,2.29-.13.39-.12.53,1.3,2.27a40.2,40.2,0,0,0,5.07,4.85c3.48,3.07,6.32,4.95,6.64,3.12.18-1,1.46-3.15.57-3.4C54.89,123.68,51,120.54,47.16,115.68Z"></path>
      <path class="cls-9" d="M47.13,115.68c-.22-.27-1.44,1.25-1.77,2.25-.13.39-.11.52,1.28,2.24a39.76,39.76,0,0,0,5,4.78c3.43,3,6.22,4.88,6.54,3.08.18-1,1.44-3.11.55-3.36C54.75,123.56,51,120.47,47.13,115.68Z"></path>
      <path class="cls-35" d="M59.32,114.19c.68-.07,1.16,1.34,2.37,3.71,2.13,4.19,3.55,7.15,3.55,7.15s-1.21.54-1.22.77,2.48.81,2.48.81l-2,19.26a14,14,0,0,1-.84-5.14c-.15-8.32.23-8.61-.84-12.51A67.32,67.32,0,0,0,58.22,116C58.08,115.71,58.66,114.25,59.32,114.19Z"></path>
      <path class="cls-31" d="M60.61,119.46c-.47-.87-1-2.76-1.45-3.81.18,4.44.51,7.41.18,9.63,0,.29,1.91,1.17,2.5,1.44C63,127.28,62.06,122.16,60.61,119.46Z"></path>
      <path class="cls-9" d="M60.3,119.29c-.45-.83-.92-2.64-1.39-3.64.18,4.25.49,7.09.18,9.21,0,.28,1.82,1.12,2.39,1.38C62.62,126.78,61.69,121.88,60.3,119.29Z"></path>
      <path class="cls-22" d="M42.9,102.86a7.56,7.56,0,0,0-.35,5.94c2.07,5,9.09,8,10.37,8.56,1.94.88,6.13,1.45,6.93.34,2.07-2.87,1.48-9,.16-17.11-.75-4.67-9.94-5.13-13.88-2.67C43.73,99.42,43,102.52,42.9,102.86Z"></path>
      <path class="cls-38" d="M49.05,111.83c1.11-.11-.32-1.91,0-3.74.22-1.1,1.52-1.16,1.52-1.16a1.65,1.65,0,0,0,1.24-1.83c-.15-.81-1.13-1.62-1-1.88s1.7.45,3.35.52a11.53,11.53,0,0,0,3.87-.16c.17,0,2.7-.86,3.07-2.59.5-2.37-3.41-4.68-3.59-4.79A12.44,12.44,0,0,0,48,95.41a10.26,10.26,0,0,0-5,3.67c-2.5,3.28-1.69,7.32-1.35,8.61,1,4,4.3,7,5.1,6.66.37-.19.4-1.19.08-1.88s-1-.73-1.63-1.67c-.18-.27-.82-1.21-.48-2a2,2,0,0,1,2.27-.79C48.58,108.62,48.93,111.85,49.05,111.83Z"></path>
      <path class="cls-30" d="M44.08,130a10.56,10.56,0,0,0-1.49-3,21.84,21.84,0,0,1-.22,4.49c-1.11,6.15-5.84,10.15-9,12.79a55.94,55.94,0,0,1-10.63,6.84c1.35.07,3.48-.35,9.8-4.5,8.44-5.55,9-7.63,10.33-9.39A8.33,8.33,0,0,0,44.08,130Z"></path>
      <path class="cls-30" d="M23.47,143.8a23.54,23.54,0,0,0,.35-2.79c-.43,0-.68-.33-1-.6-1.93-1.81-2.77-3.89-5.31-6.06-.27-.24-.64,0-1.14.3a10.53,10.53,0,0,1,2,2.39C21.31,141.82,23.29,144.84,23.47,143.8Z"></path>
      <polygon class="cls-39" points="208.2 395.94 211.43 395.94 212.23 337.43 207.24 337.43 208.2 395.94"></polygon>
      <polygon class="cls-40" points="278.31 354.89 281.54 354.89 282.33 296.39 277.35 296.39 278.31 354.89"></polygon>
      <polygon class="cls-41" points="74.26 313.99 77.49 313.99 78.28 255.49 73.3 255.49 74.26 313.99"></polygon>
      <polygon class="cls-42" points="144.37 272.95 147.6 272.95 148.39 214.44 143.4 214.44 144.37 272.95"></polygon>
      <path class="cls-43" d="M75.86,262.61,207.8,338.79a5.18,5.18,0,0,0,5.14,0l66.82-38.59a5.14,5.14,0,0,0,0-8.9L147.83,215.13a5.13,5.13,0,0,0-5.14,0L75.86,253.71A5.14,5.14,0,0,0,75.86,262.61Z"></path>
      <path class="cls-44" d="M75.86,260.57,207.8,336.75a5.18,5.18,0,0,0,5.14,0l66.82-38.59a5.14,5.14,0,0,0,0-8.9L147.83,213.09a5.13,5.13,0,0,0-5.14,0L75.86,251.67A5.14,5.14,0,0,0,75.86,260.57Z"></path>
      <path class="cls-45" d="M114.22,247.86l24.28-14a1.81,1.81,0,0,1,1.85,0l20.28,11.7a1.85,1.85,0,0,1,0,3.21l-24.28,14a1.85,1.85,0,0,1-1.85,0l-20.28-11.71A1.86,1.86,0,0,1,114.22,247.86Z"></path>
      <path class="cls-46" d="M116.47,247.59l22.1-12.76a1.26,1.26,0,0,1,1.22,0L159.14,246a.71.71,0,0,1,0,1.23l-22.86,13.2a1.21,1.21,0,0,1-1.22,0L116.47,249.7A1.22,1.22,0,0,1,116.47,247.59Z"></path>
      <path class="cls-47" d="M114.22,250.24l20.28,11.7a1.81,1.81,0,0,0,1.85,0l24.28-14a1.87,1.87,0,0,0,.88-1.2,1.84,1.84,0,0,1-.88,2l-24.28,14a1.85,1.85,0,0,1-1.85,0l-20.28-11.7a1.86,1.86,0,0,1-.88-2A1.85,1.85,0,0,0,114.22,250.24Z"></path>
      <path class="cls-9" d="M116.47,249.7l18.59,10.73a1.21,1.21,0,0,0,1.22,0l22.86-13.2a.71.71,0,0,0,0-1.23l-19.35-11.17a1.26,1.26,0,0,0-1.22,0l-22.1,12.76A1.22,1.22,0,0,0,116.47,249.7Zm1.17-2.1,20.88-12.06a1.18,1.18,0,0,1,1.15,0L158,246.09a.67.67,0,0,1,0,1.16l-21.6,12.47a1.11,1.11,0,0,1-1.14,0l-17.57-10.14A1.14,1.14,0,0,1,117.64,247.6Z"></path>
      <path class="cls-48" d="M137.73,244.42l10.55,6.09a1.94,1.94,0,0,0,1.72-.07l4.79-2.76c.51-.3.56-.75.12-1l-10.55-6.09a1.91,1.91,0,0,0-1.72.07l-4.79,2.76C137.34,243.72,137.28,244.16,137.73,244.42Z"></path>
      <polygon class="cls-9" points="143.3 242.82 152.21 247.97 152.64 247.72 143.73 242.58 143.3 242.82"></polygon>
      <polygon class="cls-9" points="142.24 243.44 151.15 248.58 151.58 248.34 142.66 243.19 142.24 243.44"></polygon>
      <polygon class="cls-9" points="141.18 244.05 150.09 249.2 150.51 248.95 141.6 243.81 141.18 244.05"></polygon>
      <path class="cls-48" d="M118.94,248.92,129.49,255a1.88,1.88,0,0,0,1.72-.07l4.79-2.76c.51-.29.56-.74.12-1l-10.55-6.09a2,2,0,0,0-1.73.07l-4.78,2.77C118.55,248.22,118.49,248.67,118.94,248.92Z"></path>
      <polygon class="cls-9" points="124.51 247.33 133.42 252.48 133.85 252.23 124.94 247.09 124.51 247.33"></polygon>
      <polygon class="cls-9" points="123.45 247.94 132.36 253.09 132.78 252.84 123.88 247.7 123.45 247.94"></polygon>
      <polygon class="cls-9" points="122.39 248.56 131.3 253.7 131.72 253.46 122.81 248.31 122.39 248.56"></polygon>
      <path class="cls-48" d="M136.39,248.15l8.29,4.79a.62.62,0,0,0,.62,0l2-1.14a.47.47,0,0,0,0-.81l-8.52-4.92a.64.64,0,0,0-.63,0l-1.73,1A.62.62,0,0,0,136.39,248.15Z"></path>
      <polygon class="cls-49" points="180.53 257.61 206.47 272.58 236.42 255.29 210.48 240.31 180.53 255.74 180.53 257.61"></polygon>
      <polygon class="cls-50" points="180.53 255.74 206.47 270.71 236.42 253.42 210.48 238.44 180.53 255.74"></polygon>
      <path class="cls-51" d="M171.88,239.32l57.89,33.43a6.6,6.6,0,0,0,10-5.67l-.31-45.87a6.71,6.71,0,0,0-3.37-5.75L178.17,182a6.59,6.59,0,0,0-10,5.67l.3,45.86A6.72,6.72,0,0,0,171.88,239.32Z"></path>
      <path class="cls-52" d="M171.19,241.06l57.35,33.11a6.63,6.63,0,0,0,10-5.74v-46a6.63,6.63,0,0,0-3.32-5.74l-59.95-34.61a4.9,4.9,0,0,0-7.35,4.24v49A6.64,6.64,0,0,0,171.19,241.06Z"></path>
      <path class="cls-9" d="M173.32,237.82l59.85,34.55a17.42,17.42,0,0,1,2.28,1V221.24l-63.53-36.61v52C173,237.52,173.14,237.71,173.32,237.82Z"></path>
      <polygon class="cls-50" points="167.87 227.89 238.49 268.58 238.49 262.14 167.87 221.46 167.87 227.89"></polygon>
      <path class="cls-53" d="M238.09,267.14l.4.21v1.08a6.63,6.63,0,0,1-10,5.74l-57.35-33.11a6.64,6.64,0,0,1-3.32-5.74v-8.73Z"></path>
      <path class="cls-54" d="M195.5,247.45c0-1.64,1-2.39,2.23-1.68A5.34,5.34,0,0,1,200,250c0,1.64-1,2.39-2.22,1.68A5.33,5.33,0,0,1,195.5,247.45Z"></path>
      <g class="cls-55">
        <polygon class="cls-56" points="226.91 249.38 228.55 250.33 228.55 231.51 226.91 230.56 226.91 249.38"></polygon>
        <polygon class="cls-57" points="223.14 247.2 225.06 248.31 225.06 220.84 223.14 219.73 223.14 247.2"></polygon>
        <polygon class="cls-58" points="220.05 245.42 221.77 246.41 221.77 232.68 220.05 231.69 220.05 245.42"></polygon>
        <polygon class="cls-59" points="214.44 242.18 217.66 244.04 217.66 234.72 214.44 232.86 214.44 242.18"></polygon>
      </g>
      <path class="cls-60" d="M196.87,223.49a3.2,3.2,0,0,1-1.6-.48c-2.07-1.2-3.75-4.4-3.75-7.14a3.49,3.49,0,0,1,1.41-3.19,2.6,2.6,0,0,1,2.68.19c2.07,1.19,3.76,4.39,3.76,7.14A3.53,3.53,0,0,1,198,223.2,2.2,2.2,0,0,1,196.87,223.49ZM194,213.07a1.55,1.55,0,0,0-.75.19,2.91,2.91,0,0,0-1.07,2.61c0,2.52,1.53,5.46,3.41,6.55a2,2,0,0,0,2,.19,2.87,2.87,0,0,0,1.06-2.6c0-2.53-1.53-5.47-3.41-6.56A2.59,2.59,0,0,0,194,213.07Z"></path>
      <path class="cls-61" d="M179.46,206.89a4,4,0,0,0-1.66-3.17c-.92-.53-1.66,0-1.66,1.25a4,4,0,0,0,1.66,3.17C178.71,208.67,179.46,208.11,179.46,206.89Z"></path>
      <path class="cls-62" d="M185.36,218a2.6,2.6,0,0,1-1.27-.38l-.54-.32a6.5,6.5,0,0,1-2.78-5.27v-4.18h.68V212a5.9,5.9,0,0,0,2.44,4.69l.54.31a1.47,1.47,0,0,0,1.48.14,2.17,2.17,0,0,0,.79-1.95v-2h.68v2a2.81,2.81,0,0,1-1.13,2.54A1.72,1.72,0,0,1,185.36,218Z"></path>
      <path class="cls-63" d="M204.19,222.79h-.68v-2.65a2.6,2.6,0,0,1,1.06-2.38,2,2,0,0,1,2,.13l.09.06-.33.59-.1-.06a1.33,1.33,0,0,0-1.35-.14,2,2,0,0,0-.72,1.8Z"></path>
      <path class="cls-64" d="M211.14,225.86a2.94,2.94,0,0,1-1.49-.45,8.3,8.3,0,0,1-3.49-6.63,3.29,3.29,0,0,1,1.31-3A2.46,2.46,0,0,1,210,216a8.32,8.32,0,0,1,3.48,6.63,3.3,3.3,0,0,1-1.31,3A2,2,0,0,1,211.14,225.86Zm-2.64-9.65a1.3,1.3,0,0,0-.68.18,2.65,2.65,0,0,0-1,2.39,7.56,7.56,0,0,0,3.15,6,1.82,1.82,0,0,0,1.83.18,2.65,2.65,0,0,0,1-2.39,7.62,7.62,0,0,0-3.14-6.05A2.4,2.4,0,0,0,208.5,216.21Z"></path>
      <path class="cls-65" d="M220.44,228.24a1.09,1.09,0,0,1-.52-.15,2.45,2.45,0,0,1-1-2,1.1,1.1,0,0,1,.47-1,.88.88,0,0,1,.91,0,2.45,2.45,0,0,1,1.05,2,1.1,1.1,0,0,1-.47,1A.79.79,0,0,1,220.44,228.24Zm-.69-2.55-.06,0c-.07,0-.13.18-.13.41a1.82,1.82,0,0,0,.7,1.39c.05,0,.17.08.24,0s.13-.18.13-.41a1.8,1.8,0,0,0-.71-1.39A.38.38,0,0,0,219.75,225.69Z"></path>
      <path class="cls-66" d="M218.47,232.2a3,3,0,0,0-1.23-2.36c-.68-.39-1.23,0-1.23.93a3,3,0,0,0,1.23,2.36C217.92,233.52,218.47,233.11,218.47,232.2Z"></path>
      <path class="cls-67" d="M184.74,216.72c-.36-.64-.92-.91-1.24-.61s-.28,1.06.08,1.7.92.91,1.24.61A1.53,1.53,0,0,0,184.74,216.72Z"></path>
      <path class="cls-68" d="M198.78,230.49a7.09,7.09,0,0,1-3.51-1.05c-4.73-2.73-8.57-10.07-8.57-16.36,0-3.37,1.12-6,3.07-7.09,1.64-.94,3.71-.78,5.84.45,4.73,2.72,8.58,10.06,8.58,16.35,0,3.38-1.12,6-3.08,7.09A4.56,4.56,0,0,1,198.78,230.49Zm-6.68-24.42a4,4,0,0,0-2,.51c-1.74,1-2.73,3.38-2.73,6.5,0,6.08,3.69,13.15,8.23,15.77,1.91,1.1,3.75,1.26,5.16.44,1.74-1,2.74-3.37,2.74-6.5,0-6.07-3.7-13.14-8.24-15.77A6.46,6.46,0,0,0,192.1,206.07Z"></path>
      <path class="cls-69" d="M179.12,211.09a2.93,2.93,0,0,1-1.49-.44,8.32,8.32,0,0,1-3.49-6.63,3.29,3.29,0,0,1,1.31-3,2.48,2.48,0,0,1,2.52.17,8.34,8.34,0,0,1,3.48,6.64,3.3,3.3,0,0,1-1.31,3A2.12,2.12,0,0,1,179.12,211.09Zm-2.64-9.64a1.3,1.3,0,0,0-.68.18,2.63,2.63,0,0,0-1,2.39,7.56,7.56,0,0,0,3.15,6,1.82,1.82,0,0,0,1.83.18,2.65,2.65,0,0,0,1-2.39,7.6,7.6,0,0,0-3.14-6A2.4,2.4,0,0,0,176.48,201.45Z"></path>
      <polygon class="cls-70" points="216.84 320.37 195.32 308 195.33 306.83 225.05 290.07 246.99 301.71 216.86 319.2 216.84 320.37"></polygon>
      <polygon class="cls-71" points="216.85 319.18 195.32 306.8 226.07 289.46 248 301.1 216.85 319.18"></polygon>
      <polygon class="cls-72" points="217.58 318.34 199.66 297.54 230.41 280.19 248.73 300.26 217.58 318.34"></polygon>
      <polygon class="cls-70" points="199.66 297.54 217.58 318.34 248.73 300.26 248.26 300.98 216.9 319.18 199.18 298.61 199.66 297.54"></polygon>
      <polygon class="cls-73" points="248.22 302.16 216.84 320.38 216.86 319.19 248.25 300.97 248.22 302.16"></polygon>
      <polygon class="cls-74" points="161.41 228.21 163.69 229.52 163.69 190.42 161.41 189.1 161.41 228.21"></polygon>
      <polygon class="cls-75" points="156.88 225.59 159.16 226.91 159.16 175.22 156.88 173.91 156.88 225.59"></polygon>
      <polygon class="cls-76" points="152.35 222.98 154.64 224.3 154.64 190.28 152.35 188.96 152.35 222.98"></polygon>
      <polygon class="cls-77" points="147.83 220.37 150.11 221.68 150.11 179.49 147.83 178.17 147.83 220.37"></polygon>
      <polygon class="cls-78" points="143.3 217.75 145.59 219.07 145.59 196.95 143.3 195.63 143.3 217.75"></polygon>
      <polygon class="cls-79" points="138.78 215.14 141.06 216.46 141.06 183.65 138.78 182.33 138.78 215.14"></polygon>
      <polygon class="cls-80" points="134.25 212.52 136.53 213.84 136.53 200.63 134.25 199.31 134.25 212.52"></polygon>
      <polygon class="cls-81" points="129.72 209.91 132.01 211.23 132.01 159.54 129.72 158.23 129.72 209.91"></polygon>
      <polygon class="cls-82" points="125.2 207.3 127.48 208.62 127.48 180.9 125.2 179.59 125.2 207.3"></polygon>
      <polygon class="cls-83" points="233.4 249.75 278.65 275.88 278.65 238.25 233.4 212.12 233.4 249.75"></polygon>
      <path class="cls-9" d="M276.31,254l-.22-.12-19.41-11.21v-10l.22.13,19.41,11.2ZM257,242.46l19,11v-9.38l-19-11Z"></path>
      <path class="cls-9" d="M257,258.13l-.21-.13-21.42-12.36v-9.57l.22.13L257,248.56Zm-21.34-12.66,21.05,12.16v-8.9l-21.05-12.16Z"></path>
      <path class="cls-84" d="M267,256.84l13.69,7.9a4.27,4.27,0,0,1,1.78,3.4v9.13c0,1.31-.8,1.91-1.78,1.34l-.64-.37-1.28,2-1.68-3.7L267,270.71a4.25,4.25,0,0,1-1.77-3.4v-9.12C265.2,256.88,266,256.28,267,256.84Z"></path>
      <path class="cls-9" d="M278.24,270.24a2.44,2.44,0,0,0-1-1.93c-.56-.32-1,0-1,.76a2.42,2.42,0,0,0,1,1.93C277.78,271.32,278.24,271,278.24,270.24Z"></path>
      <path class="cls-9" d="M274.8,268.25a2.4,2.4,0,0,0-1-1.92c-.55-.32-1,0-1,.76a2.44,2.44,0,0,0,1,1.93C274.35,269.34,274.8,269,274.8,268.25Z"></path>
      <path class="cls-9" d="M271.37,266.27a2.4,2.4,0,0,0-1-1.92c-.56-.33-1,0-1,.76a2.4,2.4,0,0,0,1,1.92C270.92,267.36,271.37,267,271.37,266.27Z"></path>
      <path class="cls-85" d="M268,258.84l13.69,7.91a4.24,4.24,0,0,1,1.78,3.39v9.13c0,1.31-.8,1.91-1.78,1.35l-.64-.37-1.28,2-1.68-3.7L268,272.71a4.25,4.25,0,0,1-1.77-3.39v-9.13C266.23,258.88,267,258.28,268,258.84Z"></path>
      <path class="cls-9" d="M279.27,272.24a2.44,2.44,0,0,0-1-1.93c-.56-.32-1,0-1,.76a2.4,2.4,0,0,0,1,1.93C278.81,273.32,279.27,273,279.27,272.24Z"></path>
      <path class="cls-9" d="M275.83,270.25a2.4,2.4,0,0,0-1-1.92c-.55-.32-1,0-1,.76a2.44,2.44,0,0,0,1,1.93C275.38,271.34,275.83,271,275.83,270.25Z"></path>
      <path class="cls-9" d="M272.4,268.27a2.4,2.4,0,0,0-1-1.92c-.56-.32-1,0-1,.76a2.43,2.43,0,0,0,1,1.93C272,269.36,272.4,269,272.4,268.27Z"></path>
      <path class="cls-86" d="M246.37,218.5l-13.68-7.9c-1-.57-1.78,0-1.78,1.34v9.13a4.27,4.27,0,0,0,1.78,3.4l.64.37,1.27,3.46,1.68-1.76,10.09,5.83c1,.56,1.78,0,1.78-1.35V221.9A4.25,4.25,0,0,0,246.37,218.5Z"></path>
      <path class="cls-9" d="M235.11,218.89c0-.74.45-1.08,1-.76a2.4,2.4,0,0,1,1,1.92c0,.74-.45,1.09-1,.76A2.4,2.4,0,0,1,235.11,218.89Z"></path>
      <path class="cls-9" d="M238.55,220.87c0-.74.45-1.08,1-.76a2.4,2.4,0,0,1,1,1.93c0,.74-.45,1.08-1,.76A2.44,2.44,0,0,1,238.55,220.87Z"></path>
      <path class="cls-9" d="M242,222.85c0-.74.45-1.08,1-.76a2.44,2.44,0,0,1,1,1.93c0,.74-.46,1.08-1,.76A2.42,2.42,0,0,1,242,222.85Z"></path>
      <path class="cls-87" d="M245.34,215.92,231.66,208c-1-.57-1.78,0-1.78,1.34v9.13a4.24,4.24,0,0,0,1.78,3.39l.64.37,1.27,3.47,1.68-1.76,10.09,5.83c1,.56,1.78,0,1.78-1.35v-9.12A4.23,4.23,0,0,0,245.34,215.92Z"></path>
      <path class="cls-9" d="M234.08,216.31c0-.74.45-1.09,1-.76a2.4,2.4,0,0,1,1,1.92c0,.74-.45,1.08-1,.76A2.4,2.4,0,0,1,234.08,216.31Z"></path>
      <path class="cls-9" d="M237.52,218.29c0-.74.45-1.08,1-.76a2.4,2.4,0,0,1,1,1.92c0,.75-.45,1.09-1,.76A2.42,2.42,0,0,1,237.52,218.29Z"></path>
      <path class="cls-9" d="M241,220.27c0-.74.45-1.08,1-.76a2.42,2.42,0,0,1,1,1.93c0,.74-.45,1.08-1,.76A2.42,2.42,0,0,1,241,220.27Z"></path>
      <polygon class="cls-9" points="261.14 237.08 275.34 245.28 275.34 244.81 261.14 236.62 261.14 237.08"></polygon>
      <polygon class="cls-9" points="263.75 240.26 275.34 246.95 275.34 246.48 263.75 239.79 263.75 240.26"></polygon>
      <polygon class="cls-9" points="263.75 241.93 275.34 248.62 275.34 248.15 263.75 241.47 263.75 241.93"></polygon>
      <polygon class="cls-9" points="259.03 240.87 275.34 250.29 275.34 249.82 259.03 240.41 259.03 240.87"></polygon>
      <polygon class="cls-9" points="257.57 241.7 275.34 251.96 275.34 251.49 257.57 241.23 257.57 241.7"></polygon>
      <polygon class="cls-9" points="236.5 238.42 256.02 249.69 256.02 249.23 236.5 237.96 236.5 238.42"></polygon>
      <polygon class="cls-9" points="244.44 244.67 256.02 251.36 256.02 250.9 244.44 244.21 244.44 244.67"></polygon>
      <polygon class="cls-9" points="244.44 246.34 256.02 253.03 256.02 252.57 244.44 245.88 244.44 246.34"></polygon>
      <polygon class="cls-9" points="242.36 246.81 256.02 254.7 256.02 254.24 242.36 246.35 242.36 246.81"></polygon>
      <polygon class="cls-9" points="238.25 246.11 256.02 256.37 256.02 255.91 238.25 245.65 238.25 246.11"></polygon>
      <polygon class="cls-88" points="185.73 298.31 141.33 272.68 165.71 258.61 210.11 284.24 185.73 298.31"></polygon>
      <polygon class="cls-89" points="165.44 265.43 162.64 263.82 165.22 262.32 168.02 263.94 165.44 265.43"></polygon>
      <polygon class="cls-89" points="168.69 267.31 165.89 265.69 168.47 264.2 171.27 265.82 168.69 267.31"></polygon>
      <polygon class="cls-89" points="171.94 269.18 169.14 267.57 171.72 266.08 174.52 267.69 171.94 269.18"></polygon>
      <polygon class="cls-89" points="175.19 271.06 172.39 269.44 174.97 267.95 177.77 269.57 175.19 271.06"></polygon>
      <polygon class="cls-89" points="178.43 272.94 175.64 271.32 178.22 269.83 181.02 271.44 178.43 272.94"></polygon>
      <polygon class="cls-89" points="181.68 274.81 178.88 273.19 181.47 271.7 184.27 273.32 181.68 274.81"></polygon>
      <polygon class="cls-89" points="184.93 276.69 182.13 275.07 184.72 273.58 187.52 275.19 184.93 276.69"></polygon>
      <polygon class="cls-89" points="188.18 278.56 185.38 276.95 187.97 275.45 190.76 277.07 188.18 278.56"></polygon>
      <polygon class="cls-89" points="191.43 280.44 188.63 278.82 191.22 277.33 194.01 278.95 191.43 280.44"></polygon>
      <polygon class="cls-89" points="194.68 282.31 191.88 280.7 194.47 279.21 197.26 280.82 194.68 282.31"></polygon>
      <polygon class="cls-89" points="197.93 284.19 195.13 282.57 197.71 281.08 200.51 282.7 197.93 284.19"></polygon>
      <polygon class="cls-89" points="201.18 286.06 198.38 284.45 200.96 282.96 203.76 284.57 201.18 286.06"></polygon>
      <polygon class="cls-89" points="161.69 267.6 158.89 265.98 161.47 264.49 164.27 266.11 161.69 267.6"></polygon>
      <polygon class="cls-89" points="164.94 269.47 162.14 267.86 164.72 266.37 167.52 267.98 164.94 269.47"></polygon>
      <polygon class="cls-89" points="168.19 271.35 165.39 269.73 167.97 268.24 170.77 269.86 168.19 271.35"></polygon>
      <polygon class="cls-89" points="171.43 273.23 168.64 271.61 171.22 270.12 174.02 271.73 171.43 273.23"></polygon>
      <polygon class="cls-89" points="174.68 275.1 171.88 273.49 174.47 271.99 177.27 273.61 174.68 275.1"></polygon>
      <polygon class="cls-89" points="177.93 276.98 175.13 275.36 177.72 273.87 180.51 275.48 177.93 276.98"></polygon>
      <polygon class="cls-89" points="181.18 278.85 178.38 277.24 180.97 275.75 183.76 277.36 181.18 278.85"></polygon>
      <polygon class="cls-89" points="184.43 280.73 181.63 279.11 184.22 277.62 187.01 279.24 184.43 280.73"></polygon>
      <polygon class="cls-89" points="187.68 282.6 184.88 280.99 187.46 279.5 190.26 281.11 187.68 282.6"></polygon>
      <polygon class="cls-89" points="190.93 284.48 188.13 282.86 190.71 281.37 193.51 282.99 190.93 284.48"></polygon>
      <polygon class="cls-89" points="194.18 286.36 191.38 284.74 193.96 283.25 196.76 284.86 194.18 286.36"></polygon>
      <polygon class="cls-89" points="197.42 288.23 194.63 286.62 197.21 285.12 200.01 286.74 197.42 288.23"></polygon>
      <polygon class="cls-89" points="157.94 269.76 155.14 268.15 157.72 266.66 160.52 268.27 157.94 269.76"></polygon>
      <polygon class="cls-89" points="161.18 271.64 158.39 270.02 160.97 268.53 163.77 270.15 161.18 271.64"></polygon>
      <polygon class="cls-89" points="164.43 273.52 161.63 271.9 164.22 270.41 167.02 272.02 164.43 273.52"></polygon>
      <polygon class="cls-89" points="167.68 275.39 164.88 273.78 167.47 272.28 170.27 273.9 167.68 275.39"></polygon>
      <polygon class="cls-89" points="170.93 277.27 168.13 275.65 170.72 274.16 173.51 275.77 170.93 277.27"></polygon>
      <polygon class="cls-89" points="174.18 279.14 171.38 277.53 173.97 276.04 176.76 277.65 174.18 279.14"></polygon>
      <polygon class="cls-89" points="177.43 281.02 174.63 279.4 177.22 277.91 180.01 279.53 177.43 281.02"></polygon>
      <polygon class="cls-89" points="180.68 282.89 177.88 281.28 180.47 279.79 183.26 281.4 180.68 282.89"></polygon>
      <polygon class="cls-89" points="183.93 284.77 181.13 283.15 183.71 281.66 186.51 283.28 183.93 284.77"></polygon>
      <polygon class="cls-89" points="187.18 286.64 184.38 285.03 186.96 283.54 189.76 285.15 187.18 286.64"></polygon>
      <polygon class="cls-89" points="190.42 288.52 187.63 286.91 190.21 285.41 193.01 287.03 190.42 288.52"></polygon>
      <polygon class="cls-89" points="193.67 290.4 190.88 288.78 193.46 287.29 196.26 288.9 193.67 290.4"></polygon>
      <polygon class="cls-89" points="154.18 271.93 151.39 270.31 153.97 268.82 156.77 270.44 154.18 271.93"></polygon>
      <polygon class="cls-89" points="157.43 273.81 154.64 272.19 157.22 270.7 160.02 272.31 157.43 273.81"></polygon>
      <polygon class="cls-89" points="160.68 275.68 157.88 274.07 160.47 272.57 163.27 274.19 160.68 275.68"></polygon>
      <polygon class="cls-89" points="163.93 277.56 161.13 275.94 163.72 274.45 166.51 276.06 163.93 277.56"></polygon>
      <polygon class="cls-89" points="167.18 279.43 164.38 277.82 166.97 276.32 169.76 277.94 167.18 279.43"></polygon>
      <polygon class="cls-89" points="170.43 281.31 167.63 279.69 170.22 278.2 173.01 279.82 170.43 281.31"></polygon>
      <polygon class="cls-89" points="173.68 283.19 170.88 281.57 173.46 280.08 176.26 281.69 173.68 283.19"></polygon>
      <polygon class="cls-89" points="176.93 285.06 174.13 283.44 176.71 281.95 179.51 283.57 176.93 285.06"></polygon>
      <polygon class="cls-89" points="180.18 286.94 177.38 285.32 179.96 283.83 182.76 285.44 180.18 286.94"></polygon>
      <polygon class="cls-89" points="183.42 288.81 180.63 287.2 183.21 285.7 186.01 287.32 183.42 288.81"></polygon>
      <polygon class="cls-89" points="186.67 290.69 183.88 289.07 186.46 287.58 189.26 289.19 186.67 290.69"></polygon>
      <polygon class="cls-89" points="189.92 292.56 187.12 290.95 189.71 289.46 192.51 291.07 189.92 292.56"></polygon>
      <polygon class="cls-89" points="150.43 274.1 147.63 272.48 150.22 270.99 153.02 272.6 150.43 274.1"></polygon>
      <polygon class="cls-89" points="153.68 275.97 150.88 274.36 153.47 272.86 156.27 274.48 153.68 275.97"></polygon>
      <polygon class="cls-89" points="156.93 277.85 154.13 276.23 156.72 274.74 159.51 276.36 156.93 277.85"></polygon>
      <polygon class="cls-89" points="160.18 279.72 157.38 278.11 159.97 276.62 162.76 278.23 160.18 279.72"></polygon>
      <polygon class="cls-89" points="163.43 281.6 160.63 279.98 163.21 278.49 166.01 280.11 163.43 281.6"></polygon>
      <polygon class="cls-89" points="166.68 283.48 163.88 281.86 166.46 280.37 169.26 281.98 166.68 283.48"></polygon>
      <polygon class="cls-89" points="169.93 285.35 167.13 283.74 169.71 282.24 172.51 283.86 169.93 285.35"></polygon>
      <polygon class="cls-89" points="173.18 287.23 170.38 285.61 172.96 284.12 175.76 285.73 173.18 287.23"></polygon>
      <polygon class="cls-89" points="176.42 289.1 173.63 287.49 176.21 285.99 179.01 287.61 176.42 289.1"></polygon>
      <polygon class="cls-89" points="179.67 290.98 176.87 289.36 179.46 287.87 182.26 289.48 179.67 290.98"></polygon>
      <polygon class="cls-89" points="182.92 292.85 180.12 291.24 182.71 289.75 185.5 291.36 182.92 292.85"></polygon>
      <polygon class="cls-89" points="186.17 294.73 183.37 293.11 185.96 291.62 188.75 293.24 186.17 294.73"></polygon>
      <polygon class="cls-90" points="185.77 298.27 210.11 284.24 210.15 286.17 185.77 300.25 141.37 274.61 141.33 272.68 185.77 298.27"></polygon>
      <path class="cls-91" d="M134.08,359.31c-.28.53-.11.33-.23,4.18a9.34,9.34,0,0,1-.82,3.95c-.41,1.94-.94,2-1.22,3.6-.16.94-.53,3.08.69,4.51,1.47,1.72,4.33,1.38,4.95,1.31,1.61-.19,1.58-.74,2.53-.6,1.94.27,2.13,2.55,4.84,3.72a5.16,5.16,0,0,0,2.2.48c1.25,0,2.16-.62,3.93-1.82,2.8-1.88,3.11-2.9,3.19-3.37a1.38,1.38,0,0,0,0-.95c-.52-1-2.61-.22-5.8-.91a6.57,6.57,0,0,1-2.71-1c-1.42-1-1.44-1.83-2.9-3.14s-1.68-1.33-2.21-2.4a5.16,5.16,0,0,1-.71-4.13c.33-1.79,1.57-4.06.4-5.17C138.71,356.18,135.2,357.2,134.08,359.31Z"></path>
      <path class="cls-92" d="M148.91,373.52a2.64,2.64,0,0,1,.06.67c0,.15,0,.83-1.19,1.71a3.59,3.59,0,0,1-3.2.6,11.56,11.56,0,0,1-3.88-1.78c-2.86-1.87-3.71-1.14-5.66-2.8a8.78,8.78,0,0,1-2.46-3,7.28,7.28,0,0,0-.77,2.12c-.16.94-.53,3.08.69,4.51,1.47,1.72,4.23,1.21,4.86,1.13,1.61-.19,1.67-.56,2.62-.42,1.94.27,2.13,2.55,4.84,3.72a5.16,5.16,0,0,0,2.2.48c1.25,0,2.19-.38,4-1.57,2.79-1.88,3.08-3.15,3.16-3.62a1.38,1.38,0,0,0,0-.95C153.65,373.4,151.77,374,148.91,373.52Z"></path>
      <path class="cls-93" d="M131.83,374.28c-.43-.38.59,1.14,1.54,3.26a13.31,13.31,0,0,1,.8,3.85c.13,1.16.08.72.18,1.51.05.42,1.35.43,1.33,0,0-.7-.1-.63-.26-1.94a5.36,5.36,0,0,1,.35-2.89c1.13-1.94,5.15-1.45,5-1.52a2.76,2.76,0,0,0-1.7-.37,12.69,12.69,0,0,1-4.18.16C133,375.87,132.75,375.1,131.83,374.28Z"></path>
      <path class="cls-93" d="M154.17,374.42a5.24,5.24,0,0,1-.49,1.35,6.42,6.42,0,0,1-1.65,1.87,10.37,10.37,0,0,1-3.28,2.19,4.93,4.93,0,0,1-3,.17,9,9,0,0,1-2.39-1.28c-.46-.28-.87-.68-1.15-.82a6.85,6.85,0,0,0,2.62,2.08,5.16,5.16,0,0,0,2.2.48c1.25,0,2.19-.38,4-1.57,2.79-1.88,3.08-3.15,3.16-3.62A1.66,1.66,0,0,0,154.17,374.42Z"></path>
      <path class="cls-94" d="M133,353.77c.1,2.88.3,5.45.53,7.5.19,1.68,7,2.12,7.24.4.41-3.37.06-6.34.41-11.66C138.79,351.66,135.39,352.47,133,353.77Z"></path>
      <path class="cls-95" d="M86.54,387.85c0,5.26,8.34,9.53,18.61,9.53s18.61-4.27,18.61-9.53-8.33-9.52-18.61-9.52S86.54,382.59,86.54,387.85Z"></path>
      <ellipse class="cls-96" cx="105.15" cy="386.38" rx="18.61" ry="9.53"></ellipse>
      <path class="cls-97" d="M107.84,379.12v7.09c0,.5-1.2.91-2.69.91s-2.69-.41-2.69-.91v-7.09Z"></path>
      <path class="cls-98" d="M107.84,379.17c0-.5-1.2-.91-2.69-.91s-2.69.41-2.69.91,1.21.91,2.69.91S107.84,379.67,107.84,379.17Z"></path>
      <path class="cls-99" d="M107,365.89V379h0c0,.35-.83.63-1.86.63s-1.87-.28-1.87-.63h0v-13.1Z"></path>
      <path class="cls-100" d="M110.45,368.44l32.17-18.57a8.24,8.24,0,0,0,0-14.27l-28.57-16.49a12.56,12.56,0,0,0-12.55,0L73.34,335.37a10.92,10.92,0,0,0,0,18.9l24.55,14.17A12.58,12.58,0,0,0,110.45,368.44Z"></path>
      <path class="cls-101" d="M108.19,364.14l33.9-19.57a5.61,5.61,0,0,0,0-9.72l-30.62-17.68a7.66,7.66,0,0,0-7.61,0L73,335a7.6,7.6,0,0,0,0,13.17l27.62,15.95A7.61,7.61,0,0,0,108.19,364.14Z"></path>
      <polygon class="cls-95" points="138.86 351.76 140.16 352.48 140.16 330.37 138.86 329.64 138.86 351.76"></polygon>
      <polygon class="cls-102" points="142.16 351.3 140.16 352.44 140.16 330.36 142.16 329.22 142.16 351.3"></polygon>
      <path class="cls-103" d="M118.75,286l.18-.08c12.07-5.26,17-8.27,17-8.27,1.94-.93,2.54-1.94,5.42-.72,1.39.58,6.63-1.42,6.69-1.67.35-1.24-4.45.59-4.36.11.2-1.06,3.6-1.88,6.58-2.57,2.43-.55,3.43.85,3.74.33.11-.18-1.45-1.79-3.47-1.6a14.25,14.25,0,0,1-3.48.17c0-.18,2-.81,4.71-.88,2.36-.06,3.41,1.23,3.61.45.15-.57-1.47-1.84-3.87-1.68-2.86.2-4.79.83-4.79.54s2.65-1.29,5.46-1.36c2.23-.05,3.27,1.45,3.45.72.07-.29-1.85-1.95-4.4-1.83-2.88.13-5.52,1.26-5.15,1,3.47-2.76,5.42-.89,5.37-1.63,0-.42-1.55-1.38-3.42-.89a24,24,0,0,0-4.31,1.78,24.33,24.33,0,0,0-5,3c-5.68,4.22-10,3.75-17.66,7-4.06,1.74-9.13,3.27-8.6,5.56C112.87,285,116.31,286.84,118.75,286Z"></path>
      <path class="cls-91" d="M157.15,362.47c0,.59.06.33,1.78,3.78a9.65,9.65,0,0,1,1.15,3.87c.55,1.91.12,2.23.63,3.75.3.91,1,3,2.74,3.64,2.1.82,4.46-.83,5-1.19,1.33-.93,1-1.39,1.94-1.72,1.84-.68,3.09,1.24,6,1a5,5,0,0,0,2.18-.62c1.08-.61,1.6-1.57,2.59-3.46,1.57-3,1.36-4,1.22-4.48s-.21-.66-.46-.83c-.92-.62-2.4,1-5.54,1.95a6.54,6.54,0,0,1-2.85.42c-1.73-.2-1.94-1.13-3.85-1.6s-2.3-.16-3.27-.85a5.18,5.18,0,0,1-2.58-3.31c-.56-1.73-.54-4.31-2.1-4.74C159.74,357.52,157.14,360.08,157.15,362.47Z"></path>
      <path class="cls-92" d="M176.94,368a2.61,2.61,0,0,1,.37.55,3.65,3.65,0,0,1,.17,2.92c-.65,1.4-2.33,1.74-3,1.89-1.65.33-2.2-.24-4.17-.41-3.39-.3-4,1.21-6.49.68a7.51,7.51,0,0,1-3.4-1.95,7.65,7.65,0,0,0,.33,2.23c.3.91,1,3,2.74,3.64,2.1.82,4.3-.94,4.82-1.3,1.32-.93,1.2-1.28,2.1-1.61,1.84-.68,3.09,1.24,6,1a5,5,0,0,0,2.18-.62c1.08-.61,1.74-1.36,2.74-3.25,1.57-3,1.21-4.24,1.07-4.69s-.21-.66-.46-.83C181.05,365.61,179.7,367,176.94,368Z"></path>
      <path class="cls-93" d="M162.26,376.72c-.56-.13,1.06.72,2.9,2.14a13.39,13.39,0,0,1,2.53,3l.86,1.24c.25.35,1.4-.26,1.17-.64-.36-.59-.38-.51-1.15-1.58a5.43,5.43,0,0,1-1-2.72c.07-2.24,3.85-3.71,3.71-3.71a2.71,2.71,0,0,0-1.67.48,12.79,12.79,0,0,1-3.61,2.12C164,377.58,163.45,377,162.26,376.72Z"></path>
      <path class="cls-93" d="M182,366.26a5.43,5.43,0,0,1,.22,1.42,6.51,6.51,0,0,1-.57,2.43,10.11,10.11,0,0,1-1.86,3.48,4.87,4.87,0,0,1-2.57,1.57,8.64,8.64,0,0,1-2.7,0c-.54,0-1.09-.17-1.4-.17a6.63,6.63,0,0,0,3.28.59,5,5,0,0,0,2.18-.62c1.08-.61,1.74-1.36,2.74-3.25,1.57-3,1.21-4.24,1.07-4.69A1.59,1.59,0,0,0,182,366.26Z"></path>
      <path class="cls-94" d="M135.12,327.7a1.83,1.83,0,0,1,.27.7c3.45-2.77,6.69-5.73,11-7.14a13,13,0,0,0-.34-2c-.32-1.23-2.07-3.77-4.66-3.37-16.87,2.57-25.79,4.66-43.84,8.13-5.78,1.11-5.06-1.09-7.35,1.74-4.74,5.85-3.12,14.68-.09,17.5,5.63,5.24,17.23.42,21.82-1.49C125.76,336,134.44,326.71,135.12,327.7Z"></path>
      <path class="cls-104" d="M101.07,330.28c-1.89.67-7.55,14.83,3.39,18.3,2.85.9,7.58,4.57,25.6-8.48a95.9,95.9,0,0,1,16.07-9.43c1.19-.59,3.29,9.34,4.86,14.58,3.27,10.93,4.76,14.3,6.34,18.75.5,1.39,6.88-.14,6.52-2.18-1.51-8.63-8.4-41.66-13.36-42.06C134.28,318.47,107.33,328,101.07,330.28Z"></path>
      <path class="cls-105" d="M123.83,276.06c3.47-.73,2.12,6.95,1.09,7.4-3.27,1.44-7.16,3.45-10.76,2.72-1.6-.32-8.77-2.38-8.93-4.95C105,277.93,117.47,277.39,123.83,276.06Z"></path>
      <path class="cls-106" d="M125,253.16c5.21,3.27,4.34,11,4.36,12.76a23.18,23.18,0,0,1-4.16,12.43c-3.32,5-11.91-1.11-14.88-3.77-.85-.76-7.21-6.59-5.55-13.29C106.66,253.49,118.37,249,125,253.16Z"></path>
      <path class="cls-107" d="M155.37,302l.19-.07c12.5-4.13,18.21-5.19,18.21-5.19,2.06-.6,3.17-.25,4.51-3.07.65-1.36,5.89-3.36,6.1-3.23,1.09.7-3.71,2.53-3.32,2.83,1.55,1.2,11.7-5.06,12.2-4.21.21.35-7.48,4.47-7.24,4.71s10.36-4.71,10.76-3.23c.32,1.2-10.34,4.2-10,4.62s10.32-3.92,10.32-2.43c0,.64-9.8,3.51-8.93,3.62s7.6-1.58,8.06-1-3.6,1.54-10.19,3.48a24.56,24.56,0,0,1-5.71,1.09c-7,.64-8.59,5.18-16.46,7.83-4.19,1.41-10.37,2.35-11.51.3C151.59,306.6,153,303,155.37,302Z"></path>
      <path class="cls-108" d="M118,286c1.87,1.2,4.55,1.73,6.77,3,2.76,1.54,4.57,3.42,7.06,4.69,9.83,5,14.79,7.46,17.26,7.44,4.78,0,6.77-2.3,8.93-.75,2.43,1.75,2.92,6.78.82,8.93-.63.64-2.42,2-10.57-.37-12.42-3.58-20.76-10.26-21.87-8.93-.13.16.07.48,1.19,2.68a6.54,6.54,0,0,1-.17,5.43c-1.19,1.91-4.07,3.07-7,2.68-.94-.13.08,2.09.44,5.35.88,7.78.88,10.94-.15,12.65-1.75,2.93-5.71,4.65-9.67,5.6-6.18,1.49-19-.88-20.53-4.86-2.26-5.9,5-12.93,5.36-18,.53-7.31,1-16.13-.52-21.94C93.4,282.2,92.93,278.13,95,276c2.58-2.63,8.1-1,8.85-.81C109.47,276.77,109.45,280.51,118,286Z"></path>
      <path class="cls-109" d="M119,286.62c-.08-.25-.74.95-2.19,1.65a12.63,12.63,0,0,1-5.72.76,6,6,0,0,1-4.36-1.59,5.67,5.67,0,0,1-.79-5.75,5.84,5.84,0,0,1,1.45-2,3.08,3.08,0,0,0-1.78.81,4.06,4.06,0,0,0-.85,2.43,6.23,6.23,0,0,0,1.71,5.32c2.86,2.77,8.24,1.63,10.61.42C118.5,287.94,119.15,287.16,119,286.62Z"></path>
      <path class="cls-110" d="M110.49,270.42c-1.79,1,.26,5.19-2.78,8.93a7.78,7.78,0,0,0-1.78,2.38,5.67,5.67,0,0,0,.79,5.75,6,6,0,0,0,4.36,1.59c4.29.23,8.39-1.1,7.91-2.45-.24-.67-2-2-2.75-3.5-.85-1.87,2.05-3.61,2-6.35C118.13,273,112.51,269.31,110.49,270.42Z"></path>
      <path class="cls-111" d="M127.55,254c1.58,2.11,2.67,5.87.89,8.55s-6.18,3.74-8.11,2.38c-.62-.44-.92-1.08-1.26-1-.59.2-.7,2.47.07,4.39.92,2.28,3.89,6.86,3.82,7.88-.13,1.72-4.88,4-9,4.07-3,0-10.8-3.68-13.54-9.72-2.44-5.37,2.12-13.47,5.06-16.44C111.59,247.9,123.48,248.52,127.55,254Z"></path>
      <path class="cls-112" d="M70.54,343.06l21.4,12.35A13.53,13.53,0,0,0,112,341l-7.26-36.18a18.45,18.45,0,0,0-8.89-12.38l-17.19-9.93A13.29,13.29,0,0,0,59,296.67l8.42,42A6.61,6.61,0,0,0,70.54,343.06Z"></path>
      <path class="cls-95" d="M71.06,342.35,94.72,356A9,9,0,0,0,108,346.49l-6.55-32.66A26,26,0,0,0,89,296.44l-18.21-10.5a7.66,7.66,0,0,0-11.34,8.14l8.92,44.46A5.67,5.67,0,0,0,71.06,342.35Z"></path>
      <polygon class="cls-95" points="121.84 361.58 123.14 362.31 123.14 340.19 121.84 339.47 121.84 361.58"></polygon>
      <polygon class="cls-113" points="125.14 361.12 123.14 362.27 123.14 340.19 125.14 339.04 125.14 361.12"></polygon>
      <path class="cls-95" d="M142.1,324.86l9.45-.87v5.56l-.06,0a2.08,2.08,0,0,1-1,2.31l-26,15a7.83,7.83,0,0,1-7.86,0l-1.12-.65a2,2,0,0,1-1-1.76V339Z"></path>
      <path class="cls-114" d="M150.51,325.78l-26,15a7.88,7.88,0,0,1-7.86,0l-1.12-.65a2,2,0,0,1,0-3.52L142.66,321a5.71,5.71,0,0,1,5.71,0l2.14,1.24A2.07,2.07,0,0,1,150.51,325.78Z"></path>
      <path class="cls-115" d="M357.41,207.43l32.19,18.2c3,1.7,6.13-.66,7-5.26l8.7-46.3c.86-4.6-.87-9.71-3.87-11.41l-32.19-18.2c-3-1.69-6.14.66-7,5.26L353.53,196C352.67,200.63,354.4,205.74,357.41,207.43Z"></path>
      <polygon class="cls-116" points="390.64 190.84 394.6 193.07 397.76 176.23 393.81 174 390.64 190.84"></polygon>
      <polygon class="cls-9" points="392.99 178.38 396.94 180.61 397.76 176.23 393.81 174 392.99 178.38"></polygon>
      <polygon class="cls-117" points="385.37 187.85 389.33 190.09 392.49 173.25 388.53 171.02 385.37 187.85"></polygon>
      <polygon class="cls-9" points="387.2 178.1 391.16 180.34 392.49 173.25 388.53 171.02 387.2 178.1"></polygon>
      <polygon class="cls-118" points="380.1 184.87 384.05 187.11 387.22 170.27 383.26 168.04 380.1 184.87"></polygon>
      <polygon class="cls-9" points="380.86 180.85 384.81 183.08 387.22 170.27 383.26 168.04 380.86 180.85"></polygon>
      <polygon class="cls-119" points="374.82 181.89 378.78 184.13 381.94 167.29 377.99 165.06 374.82 181.89"></polygon>
      <polygon class="cls-9" points="377.02 170.21 380.98 172.44 381.94 167.29 377.99 165.06 377.02 170.21"></polygon>
      <polygon class="cls-120" points="369.55 178.91 373.51 181.15 376.67 164.31 372.71 162.07 369.55 178.91"></polygon>
      <polygon class="cls-9" points="371.36 169.28 375.31 171.52 376.67 164.31 372.71 162.07 371.36 169.28"></polygon>
      <polygon class="cls-121" points="364.28 175.93 368.23 178.17 371.4 161.33 367.44 159.09 364.28 175.93"></polygon>
      <polygon class="cls-9" points="367.07 161.09 371.02 163.32 371.4 161.33 367.44 159.09 367.07 161.09"></polygon>
      <path class="cls-9" d="M355.23,206.2l36.54,20.66c1.8,1,3.68-.39,4.2-3.16l4.31-22.94-43.06-24.35-4.31,23C352.39,202.12,353.43,205.19,355.23,206.2Z"></path>
      <path class="cls-122" d="M393,227.35a2.62,2.62,0,0,1-1.27-.35l-36.54-20.66c-1.85-1.05-2.93-4.19-2.4-7l4.36-23.17,43.35,24.51-4.33,23.06a4.45,4.45,0,0,1-2.18,3.39A2.21,2.21,0,0,1,393,227.35Zm-35.63-50.69-4.27,22.73c-.5,2.69.5,5.69,2.25,6.68l36.54,20.65a2.1,2.1,0,0,0,2,.12,4.25,4.25,0,0,0,2-3.17l4.29-22.83Z"></path>
      <polygon class="cls-123" points="360.54 199.27 371.23 205.32 373.64 192.52 362.94 186.48 360.54 199.27"></polygon>
      <polygon class="cls-123" points="376.54 196.03 391.56 204.51 391.87 202.83 376.86 194.34 376.54 196.03"></polygon>
      <polygon class="cls-123" points="375.78 200.07 390.8 208.56 391.12 206.87 376.1 198.38 375.78 200.07"></polygon>
      <polygon class="cls-123" points="378.83 206.26 390.04 212.6 390.36 210.91 379.15 204.58 378.83 206.26"></polygon>
      <path class="cls-124" d="M369.88,144.2,401,161.8c3.3,1.86,5.2,7.47,4.25,12.52L362.19,150C363.14,144.92,366.58,142.34,369.88,144.2Z"></path>
      <path class="cls-9" d="M400.92,166.81a2.61,2.61,0,0,0-.89-2.63c-.69-.39-1.42.15-1.62,1.22a2.6,2.6,0,0,0,.9,2.63C400,168.42,400.72,167.88,400.92,166.81Z"></path>
      <path class="cls-9" d="M397,164.58a2.59,2.59,0,0,0-.9-2.63c-.69-.4-1.41.15-1.61,1.21a2.61,2.61,0,0,0,.89,2.63C396,166.18,396.77,165.64,397,164.58Z"></path>
      <path class="cls-9" d="M393,162.34a2.61,2.61,0,0,0-.89-2.63c-.69-.39-1.42.15-1.62,1.21a2.59,2.59,0,0,0,.9,2.63C392.09,164,392.81,163.4,393,162.34Z"></path>
      <polygon class="cls-125" points="372.47 266.72 375.62 268.88 377.17 246.61 374.02 244.45 372.47 266.72"></polygon>
      <path class="cls-126" d="M359.69,204c1-14.89,10.9-20.76,22-13.11S401,216.79,400,231.68s-10.9,20.76-22,13.11S358.65,218.87,359.69,204Z"></path>
      <path class="cls-125" d="M387.36,250.9a19.55,19.55,0,0,1-10.95-3.85c-12-8.26-20.57-27.26-19.46-43.26.6-8.62,4.09-15.08,9.58-17.72,5-2.39,10.89-1.49,16.74,2.54,12,8.26,20.57,27.27,19.46,43.26-.61,8.62-4.09,15.08-9.58,17.72A13.12,13.12,0,0,1,387.36,250.9Zm-15.05-60.64a7.75,7.75,0,0,0-3.39.75c-3.67,1.77-6,6.57-6.49,13.16-1,14,6.69,31.21,17.09,38.36,4.15,2.86,8.15,3.61,11.24,2.12,3.67-1.77,6-6.57,6.49-13.16,1-14-6.69-31.21-17.09-38.36A14.23,14.23,0,0,0,372.31,190.26Z"></path>
      <path class="cls-125" d="M375.9,263l1.51,1a8.05,8.05,0,0,1,2.95,6.36l-2.18,61.71c-3.26,6.43-11,.45-11,.45-1.85-1.27-1.32-6.31-1.06-8.73l6.23-58.92C372.62,262.63,374.17,261.79,375.9,263Z"></path>
      <path class="cls-127" d="M376.66,263.5l-.76-.52c-1.73-1.19-3.28-.35-3.52,1.91l-6.23,58.93a8,8,0,0,0,2.92,6.75l2.78,1.91Z"></path>
      <g class="cls-128">
        <path class="cls-125" d="M384.73,211.19c-2.34-3.92-6.69-6.71-10.52-5s-6.94,7.6-4.76,19.09c.79,3.42-.34,2.93-2.35-1.78h0c-2-4.71-2.76-11-2.11-13.46,1.87-8.68,7.35-11.49,12.27-10.12s9.45,6.75,11.45,12.41c.59,1.7-.19,1.94-1.21,1.41h0A7.21,7.21,0,0,1,384.73,211.19Z"></path>
      </g>
      <polygon class="cls-129" points="370.19 266.03 373.34 268.19 374.89 245.93 371.75 243.76 370.19 266.03"></polygon>
      <path class="cls-130" d="M355.05,204c1-14.89,10.9-20.76,22-13.11s19.3,25.92,18.26,40.81-10.89,20.77-22,13.12S354,218.92,355.05,204Z"></path>
      <path class="cls-129" d="M382.72,251a19.59,19.59,0,0,1-11-3.84c-12-8.27-20.56-27.27-19.45-43.27.6-8.61,4.09-15.07,9.58-17.72,4.95-2.38,10.89-1.48,16.74,2.54,12,8.26,20.57,27.27,19.45,43.26-.6,8.62-4.09,15.08-9.57,17.73A13.25,13.25,0,0,1,382.72,251Zm-15.05-60.63a7.63,7.63,0,0,0-3.4.75c-3.66,1.76-6,6.56-6.48,13.15-1,14,6.69,31.22,17.08,38.36,4.16,2.86,8.15,3.62,11.25,2.12,3.66-1.77,6-6.56,6.49-13.16,1-14-6.69-31.21-17.09-38.36A14.28,14.28,0,0,0,367.67,190.32Z"></path>
      <path class="cls-131" d="M371.26,263l1.51,1a8.05,8.05,0,0,1,3,6.36l-2.18,61.71c-.09,2.53-1.7,3.58-3.55,2.31l-5.57-3.83a8,8,0,0,1-2.92-6.75L367.74,265C368,262.68,369.53,261.84,371.26,263Z"></path>
      <path class="cls-132" d="M372,263.55l-.75-.52c-1.73-1.19-3.29-.35-3.52,1.92l-6.24,58.92a8,8,0,0,0,2.92,6.75l2.79,1.92Z"></path>
      <g class="cls-128">
        <path class="cls-9" d="M380.09,211.25c-2.34-3.93-6.69-6.71-10.52-5s-6.94,7.61-4.76,19.09c.78,3.42-.34,2.94-2.35-1.78h0c-2-4.71-2.77-11-2.12-13.45,1.88-8.68,7.36-11.5,12.28-10.12s9.44,6.74,11.45,12.4c.59,1.71-.19,1.94-1.21,1.41h0A7.12,7.12,0,0,1,380.09,211.25Z"></path>
      </g>
    </g>
  </g>
</svg>
