<?xml version="1.0" encoding="UTF-8"?>
<svg xmlns="http://www.w3.org/2000/svg" xmlns:xlink="http://www.w3.org/1999/xlink" viewBox="0 0 221.35 209.05">
  <defs>
    <style>.cls-1{fill:none;}.cls-2{opacity:0.7;fill:url(#linear-gradient);}.cls-3{opacity:0.2;fill:url(#linear-gradient-2);}.cls-4{clip-path:url(#clip-path);}.cls-5{fill:#ffdd81;}.cls-6{fill:#ffbe5c;}.cls-7{fill:#f33;}.cls-8{fill:#ffc40c;}</style>
    <linearGradient id="linear-gradient" y1="127.12" x2="221.35" y2="127.12" gradientUnits="userSpaceOnUse">
      <stop offset="0" stop-color="#ffc40c"></stop>
      <stop offset="1" stop-color="#f33"></stop>
    </linearGradient>
    <linearGradient id="linear-gradient-2" x1="550.87" y1="-1718.83" x2="683.66" y2="-1718.83" gradientTransform="translate(-1124.18 1428.19) rotate(21.77)" xlink:href="#linear-gradient"></linearGradient>
    <clipPath id="clip-path">
      <path class="cls-1" d="M159.37,103.56c-13-3.32-53.13-14.65-76-29.88C40.92,45.44,23.11,88.6,16,112.23,7.67,139.6-2,166.88,37.73,191.1S125,207.45,148,200.18s36.19-25.43,42.28-33.59C195.58,159.41,204.83,115.19,159.37,103.56Z"></path>
    </clipPath>
  </defs>
  <g id="Layer_2" data-name="Layer 2">
    <g id="Layer_2-2" data-name="Layer 2">
      <path class="cls-2" d="M194.61,140.44c-11.09,2.4-11.33-1.34-23.15,4-12.38,5.56-21.3,35.3-47.82,51.81C103,209,55.28,221,21.88,185.93s-26.95-87.17,8.4-98.45c25.63-8.19,47.73-4.59,69-10.31,19.76-5.31,36.81-25.6,55.22-30.31,29.7-7.61,49.94,12.27,60.26,29.21C224.62,92.21,227.28,133.35,194.61,140.44Z"></path>
      <path class="cls-3" d="M105.05,105.89c-24,8.85-48.23,10.32-65.93,7.62-17.89-2.8-29.28-9.76-32-20.1s3.05-23,12.51-36.48a177.28,177.28,0,0,1,38.8-39.39C89.05-5.87,128.3-6.65,151.29,20,174.26,46.52,154.63,88.69,105.05,105.89Z"></path>
      <g class="cls-4">
        <rect class="cls-5" x="0.88" y="71.21" width="204.15" height="2.64"></rect>
        <rect class="cls-5" x="0.88" y="78.24" width="204.15" height="2.63"></rect>
        <rect class="cls-5" x="0.88" y="85.27" width="204.15" height="2.64"></rect>
        <rect class="cls-5" x="0.88" y="92.29" width="204.15" height="2.63"></rect>
        <rect class="cls-5" x="0.88" y="99.32" width="204.15" height="2.64"></rect>
        <rect class="cls-5" x="0.88" y="106.35" width="204.15" height="2.64"></rect>
        <rect class="cls-5" x="0.88" y="113.38" width="204.15" height="2.63"></rect>
        <rect class="cls-5" x="0.88" y="120.4" width="204.15" height="2.63"></rect>
        <rect class="cls-5" x="0.88" y="127.43" width="204.15" height="2.64"></rect>
        <rect class="cls-5" x="0.88" y="134.46" width="204.15" height="2.64"></rect>
        <rect class="cls-5" x="0.88" y="141.49" width="204.15" height="2.64"></rect>
        <rect class="cls-5" x="0.88" y="148.52" width="204.15" height="2.64"></rect>
        <rect class="cls-5" x="0.88" y="155.54" width="204.15" height="2.64"></rect>
        <rect class="cls-5" x="0.88" y="162.57" width="204.15" height="2.64"></rect>
        <rect class="cls-5" x="0.88" y="169.6" width="204.15" height="2.63"></rect>
        <rect class="cls-5" x="0.88" y="176.63" width="204.15" height="2.64"></rect>
        <rect class="cls-5" x="0.88" y="183.65" width="204.15" height="2.64"></rect>
        <rect class="cls-5" x="0.88" y="190.68" width="204.15" height="2.64"></rect>
        <rect class="cls-5" x="0.88" y="197.71" width="204.15" height="2.63"></rect>
        <rect class="cls-5" x="0.88" y="204.74" width="204.15" height="2.64"></rect>
      </g>
      <path class="cls-6" d="M173.33,63.82h-1.84c0-1.65,1.31-2.46,2.28-3s1.4-.92,1.4-1.49-.43-.88-1.41-1.48-2.27-1.4-2.27-3,1.31-2.46,2.28-3,1.4-.92,1.4-1.48-.43-.89-1.4-1.49-2.28-1.4-2.28-3,1.31-2.45,2.27-3,1.41-.93,1.41-1.49-.43-.89-1.41-1.49-2.27-1.4-2.27-3,1.31-2.46,2.27-3,1.41-.92,1.41-1.49H177c0,1.65-1.31,2.46-2.27,3s-1.4.93-1.4,1.49.43.89,1.4,1.49,2.27,1.4,2.27,3-1.31,2.46-2.27,3.05-1.4.92-1.4,1.48.43.89,1.4,1.49,2.27,1.4,2.27,3-1.31,2.45-2.27,3.05-1.4.92-1.4,1.48.43.88,1.4,1.48S177,57.64,177,59.28s-1.31,2.46-2.27,3S173.33,63.25,173.33,63.82Z"></path>
      <path class="cls-7" d="M50.26,40.54A16.77,16.77,0,1,1,67,23.77,16.77,16.77,0,0,1,50.26,40.54Z"></path>
      <rect class="cls-8" x="81.22" y="31.71" width="8" height="9"></rect>
    </g>
  </g>
</svg>
