<?xml version="1.0" encoding="UTF-8"?>
<svg xmlns="http://www.w3.org/2000/svg" xmlns:xlink="http://www.w3.org/1999/xlink" viewBox="0 0 252.86 181.83">
  <defs>
    <style>.cls-1{fill:url(#linear-gradient);}.cls-2{fill:#bcffb5;}.cls-3,.cls-4{opacity:0.4;}.cls-3{fill:url(#linear-gradient-2);}.cls-4{fill:url(#linear-gradient-3);}.cls-5{fill:#b2ebc8;}.cls-6{fill:#5de8cd;}.cls-7{fill:#1cbda7;}</style>
    <linearGradient id="linear-gradient" x1="21.37" y1="98.78" x2="237.67" y2="98.78" gradientUnits="userSpaceOnUse">
      <stop offset="0" stop-color="#1cbda7"></stop>
      <stop offset="1" stop-color="#5de8cd"></stop>
    </linearGradient>
    <linearGradient id="linear-gradient-2" x1="321.99" y1="-2650.7" x2="490.99" y2="-2650.7" gradientTransform="matrix(0.8, 0.6, -0.6, 0.8, -1740.14, 1947.7)" gradientUnits="userSpaceOnUse">
      <stop offset="0" stop-color="#bcffb5"></stop>
      <stop offset="1" stop-color="#5de8cd"></stop>
    </linearGradient>
    <linearGradient id="linear-gradient-3" x1="-7219.74" y1="1776.85" x2="-7192.74" y2="1776.85" gradientTransform="matrix(-0.4, -0.88, 0.83, -0.47, -4339.98, -5402.82)" xlink:href="#linear-gradient-2"></linearGradient>
  </defs>
  <g id="Layer_2" data-name="Layer 2">
    <g id="Layer_2-2" data-name="Layer 2">
      <path class="cls-1" d="M196.51,61.19c-15.1-3.86-61.69-17-88.26-34.7C59-6.31,38.28,43.82,30,71.25,20.36,103,9.15,134.72,55.27,162.84s101.3,19,128,10.54,42-29.53,49.09-39C238.57,126,249.31,74.68,196.51,61.19Z"></path>
      <path class="cls-2" d="M36.6,82H53c-2.66,0-5.39-.76-8.2-.76S39.26,82,36.6,82Z"></path>
      <path class="cls-2" d="M27.26,85c-1.2,1-2.37,1-3.51,2h42.1c-1.14-1-2.31-1-3.5-2Z"></path>
      <path class="cls-2" d="M19.19,90c-.78,0-1.53,1-2.26,1H72.68c-.74,0-1.49-1-2.26-1Z"></path>
      <path class="cls-2" d="M12.07,96H77.54c-.54-1-1.09-1-1.66-2H13.73C13.16,95,12.61,95,12.07,96Z"></path>
      <path class="cls-2" d="M9.66,99c-.44,0-.86,1-1.27,1H81.22c-.41,0-.84-1-1.27-1Z"></path>
      <path class="cls-2" d="M6.52,103c-.34,1-.66,1-1,2H84.06c-.31-1-.64-1-1-2Z"></path>
      <path class="cls-2" d="M4.13,108c-.25,0-.5,1-.74,1H86.22c-.24,0-.49-1-.75-1Z"></path>
      <path class="cls-2" d="M2.35,112c-.19,1-.37,1-.53,2h86c-.16-1-.34-1-.53-2Z"></path>
      <path class="cls-2" d="M1.09,117c-.12,0-.24,1-.34,1H88.86c-.11,0-.22-1-.35-1Z"></path>
      <path class="cls-2" d="M.33,121c-.07,1-.12,1-.17,2H89.45c0-1-.1-1-.17-2Z"></path>
      <path class="cls-2" d="M0,126.5c0,.28,0,.5,0,.5H89.59s0-.22,0-.5,0-.5,0-.5H0S0,126.22,0,126.5Z"></path>
      <path class="cls-2" d="M.16,130c0,1,.1,1,.17,2h89c.07-1,.12-1,.17-2Z"></path>
      <path class="cls-2" d="M.75,135c.1,0,.22,1,.34,1H88.51c.13,0,.24-1,.35-1Z"></path>
      <path class="cls-2" d="M1.82,139c.16,1,.34,1,.53,2H87.26c.19-1,.37-1,.53-2Z"></path>
      <path class="cls-2" d="M3.39,144c.24,0,.49,1,.74,1H85.47c.26,0,.51-1,.75-1Z"></path>
      <path class="cls-2" d="M5.55,148c.31,1,.63,1,1,2H83.09c.34-1,.66-1,1-2Z"></path>
      <path class="cls-2" d="M8.39,153c.41,0,.83,1,1.27,1H80c.43,0,.86-1,1.27-1Z"></path>
      <path class="cls-2" d="M12.07,157c.54,1,1.09,1,1.66,2H75.88c.57-1,1.12-1,1.66-2Z"></path>
      <path class="cls-2" d="M16.93,162c.73,0,1.49,1,2.25,1H70.42c.77,0,1.52-1,2.26-1Z"></path>
      <path class="cls-2" d="M23.75,166c1.14,1,2.31,1,3.51,2H62.35c1.19-1,2.36-1,3.5-2Z"></path>
      <path class="cls-2" d="M53,170H36.6c2.66,1,5.4.76,8.2.76S50.35,171,53,170Z"></path>
      <path class="cls-3" d="M161.32,113.09c-2.94-5.25-3-9.87-17.09-16.08s-34.31-14.25-42.37-20.88c-9.31-7.65-20.1-21-5.39-36.37C116.07,19.33,141.1,17.35,161.08,19c13.69,1.11,23.07,4,31.15,10.1s22.78,15.2,30.44,18,28.38,8.07,29.91,24.66c1.59,17.39-1.29,93.73-67.47,70.16C163.89,134.32,166.9,123,161.32,113.09Z"></path>
      <path class="cls-4" d="M28.4,58.52a24.43,24.43,0,0,1,10.08,7.37c2.12,2.76,2.82,5.32,1.9,7.28s-3.32,3.17-6.32,4A31.09,31.09,0,0,1,23.74,78.3C16.55,78,11,73,11.21,65.85S19.38,54.76,28.4,58.52Z"></path>
      <rect class="cls-2" x="232.06" y="147.02" width="3.45" height="19"></rect>
      <rect class="cls-2" x="232.06" y="147.02" width="3.45" height="19" transform="translate(-18.65 280.73) rotate(-60)"></rect>
      <rect class="cls-2" x="224.28" y="154.79" width="19" height="3.45" transform="translate(-46.95 138.03) rotate(-30.03)"></rect>
      <rect class="cls-5" x="75.57" width="4" height="4"></rect>
      <path class="cls-6" d="M161.3,35.54l-2.23-2.23a6.8,6.8,0,0,1,5.09-2,3.69,3.69,0,0,0,4.07-4.07,6.75,6.75,0,0,1,7.06-7.06,3.69,3.69,0,0,0,4.07-4.08,6.78,6.78,0,0,1,7.07-7.07,3.78,3.78,0,0,0,3-1.06l2.22,2.23a6.8,6.8,0,0,1-5.09,2,3.76,3.76,0,0,0-3,1.06,3.8,3.8,0,0,0-1.07,3,6.77,6.77,0,0,1-7.06,7.07,3.69,3.69,0,0,0-4.07,4.07,6.78,6.78,0,0,1-7.06,7.06A3.78,3.78,0,0,0,161.3,35.54Z"></path>
      <path class="cls-6" d="M141.51,17.32l6.63,6.62,6.23-6.23-6.62-6.62Z"></path>
      <polygon class="cls-7" points="26.05 32.46 24.37 29.23 22.69 26 26.05 26 29.4 26 27.72 29.23 26.05 32.46"></polygon>
    </g>
  </g>
</svg>
