<?xml version="1.0" encoding="UTF-8"?>
<svg xmlns="http://www.w3.org/2000/svg" xmlns:xlink="http://www.w3.org/1999/xlink" viewBox="0 0 1525.57 1181.38">
  <defs>
    <style>.cls-1{isolation:isolate;}.cls-13,.cls-2,.cls-7{fill:#5c49cc;}.cls-2{opacity:0.26;}.cls-13,.cls-2{mix-blend-mode:screen;}.cls-21,.cls-3,.cls-4{fill:#f0588d;}.cls-3{opacity:0.6;}.cls-4{opacity:0.09;}.cls-5{fill:#170c2a;}.cls-6{fill:url(#_ÂÁ_Ï_ÌÌ_È_ËÂÌÚ_111);}.cls-8{fill:url(#_ÂÁ_Ï_ÌÌ_È_ËÂÌÚ_111-2);}.cls-9{fill:#c2b9fa;}.cls-10{fill:url(#_ÂÁ_Ï_ÌÌ_È_ËÂÌÚ_111-3);}.cls-11{fill:#bebbf8;}.cls-12,.cls-25{fill:#fff;}.cls-13,.cls-24{opacity:0.22;}.cls-14,.cls-15{mix-blend-mode:multiply;}.cls-14{fill:url(#_ÂÁ_Ï_ÌÌ_È_ËÂÌÚ_119);}.cls-15{fill:url(#_ÂÁ_Ï_ÌÌ_È_ËÂÌÚ_119-2);}.cls-16{fill:url(#_ÂÁ_Ï_ÌÌ_È_ËÂÌÚ_119-3);}.cls-17{fill:url(#_ÂÁ_Ï_ÌÌ_È_ËÂÌÚ_119-4);}.cls-18{fill:url(#_ÂÁ_Ï_ÌÌ_È_ËÂÌÚ_119-5);}.cls-19{opacity:0.85;}.cls-20{fill:url(#_ÂÁ_Ï_ÌÌ_È_ËÂÌÚ_111-4);}.cls-22{fill:#f1f2f2;}.cls-23{fill:#c0baf9;}.cls-24{fill:url(#_ÂÁ_Ï_ÌÌ_È_ËÂÌÚ_111-5);}.cls-25{opacity:0.5;}.cls-26{fill:#a7a5f9;}.cls-27{fill:url(#_ÂÁ_Ï_ÌÌ_È_ËÂÌÚ_111-6);}.cls-28{fill:url(#_ÂÁ_Ï_ÌÌ_È_ËÂÌÚ_111-7);}.cls-29{fill:url(#_ÂÁ_Ï_ÌÌ_È_ËÂÌÚ_111-8);}.cls-30{fill:url(#_ÂÁ_Ï_ÌÌ_È_ËÂÌÚ_111-9);}.cls-31{fill:url(#_ÂÁ_Ï_ÌÌ_È_ËÂÌÚ_111-10);}.cls-32{fill:url(#_ÂÁ_Ï_ÌÌ_È_ËÂÌÚ_111-11);}.cls-33{opacity:0.43;}.cls-34{fill:#1d1ba4;}.cls-35{fill:url(#_ÂÁ_Ï_ÌÌ_È_ËÂÌÚ_111-12);}</style>
    <linearGradient id="_ÂÁ_Ï_ÌÌ_È_ËÂÌÚ_111" x1="141.26" y1="954.3" x2="1343.58" y2="954.3" gradientUnits="userSpaceOnUse">
      <stop offset="0" stop-color="#d9d5ff"></stop>
      <stop offset="1" stop-color="#f9f9ff"></stop>
    </linearGradient>
    <linearGradient id="_ÂÁ_Ï_ÌÌ_È_ËÂÌÚ_111-2" x1="742.42" y1="1026.99" x2="742.42" y2="1181.64" xlink:href="#_ÂÁ_Ï_ÌÌ_È_ËÂÌÚ_111"></linearGradient>
    <linearGradient id="_ÂÁ_Ï_ÌÌ_È_ËÂÌÚ_111-3" x1="742.42" y1="1142.54" x2="742.42" y2="1527.77" xlink:href="#_ÂÁ_Ï_ÌÌ_È_ËÂÌÚ_111"></linearGradient>
    <linearGradient id="_ÂÁ_Ï_ÌÌ_È_ËÂÌÚ_119" x1="783.33" y1="436.9" x2="1006.43" y2="436.9" gradientUnits="userSpaceOnUse">
      <stop offset="0" stop-color="#c1c0ff"></stop>
      <stop offset="1" stop-color="#d7d5ff"></stop>
    </linearGradient>
    <linearGradient id="_ÂÁ_Ï_ÌÌ_È_ËÂÌÚ_119-2" x1="1021.79" y1="436.9" x2="1244.89" y2="436.9" xlink:href="#_ÂÁ_Ï_ÌÌ_È_ËÂÌÚ_119"></linearGradient>
    <linearGradient id="_ÂÁ_Ï_ÌÌ_È_ËÂÌÚ_119-3" x1="10309.71" y1="-626.33" x2="10359.26" y2="-626.33" gradientTransform="translate(265.56 -9897.59) rotate(90)" xlink:href="#_ÂÁ_Ï_ÌÌ_È_ËÂÌÚ_119"></linearGradient>
    <linearGradient id="_ÂÁ_Ï_ÌÌ_È_ËÂÌÚ_119-4" x1="1094.47" y1="436.47" x2="1108.27" y2="436.47" xlink:href="#_ÂÁ_Ï_ÌÌ_È_ËÂÌÚ_119"></linearGradient>
    <linearGradient id="_ÂÁ_Ï_ÌÌ_È_ËÂÌÚ_119-5" x1="1156.21" y1="436.47" x2="1169.95" y2="436.47" xlink:href="#_ÂÁ_Ï_ÌÌ_È_ËÂÌÚ_119"></linearGradient>
    <linearGradient id="_ÂÁ_Ï_ÌÌ_È_ËÂÌÚ_111-4" x1="783.33" y1="681.41" x2="1244.89" y2="681.41" xlink:href="#_ÂÁ_Ï_ÌÌ_È_ËÂÌÚ_111"></linearGradient>
    <linearGradient id="_ÂÁ_Ï_ÌÌ_È_ËÂÌÚ_111-5" x1="1014.11" y1="183.21" x2="1014.11" y2="92.2" xlink:href="#_ÂÁ_Ï_ÌÌ_È_ËÂÌÚ_111"></linearGradient>
    <linearGradient id="_ÂÁ_Ï_ÌÌ_È_ËÂÌÚ_111-6" x1="343.63" y1="59.59" x2="473.35" y2="59.59" xlink:href="#_ÂÁ_Ï_ÌÌ_È_ËÂÌÚ_111"></linearGradient>
    <linearGradient id="_ÂÁ_Ï_ÌÌ_È_ËÂÌÚ_111-7" x1="343.63" y1="67.37" x2="408.49" y2="67.37" xlink:href="#_ÂÁ_Ï_ÌÌ_È_ËÂÌÚ_111"></linearGradient>
    <linearGradient id="_ÂÁ_Ï_ÌÌ_È_ËÂÌÚ_111-8" x1="344.37" y1="102.93" x2="474.09" y2="102.93" xlink:href="#_ÂÁ_Ï_ÌÌ_È_ËÂÌÚ_111"></linearGradient>
    <linearGradient id="_ÂÁ_Ï_ÌÌ_È_ËÂÌÚ_111-9" x1="344.37" y1="110.71" x2="409.23" y2="110.71" xlink:href="#_ÂÁ_Ï_ÌÌ_È_ËÂÌÚ_111"></linearGradient>
    <linearGradient id="_ÂÁ_Ï_ÌÌ_È_ËÂÌÚ_111-10" x1="344.37" y1="146.26" x2="474.09" y2="146.26" xlink:href="#_ÂÁ_Ï_ÌÌ_È_ËÂÌÚ_111"></linearGradient>
    <linearGradient id="_ÂÁ_Ï_ÌÌ_È_ËÂÌÚ_111-11" x1="344.37" y1="154.04" x2="409.23" y2="154.04" xlink:href="#_ÂÁ_Ï_ÌÌ_È_ËÂÌÚ_111"></linearGradient>
    <linearGradient id="_ÂÁ_Ï_ÌÌ_È_ËÂÌÚ_111-12" x1="0" y1="619.51" x2="671.43" y2="619.51" xlink:href="#_ÂÁ_Ï_ÌÌ_È_ËÂÌÚ_111"></linearGradient>
  </defs>
  <g class="cls-1">
    <g id="Layer_2" data-name="Layer 2">
      <g id="_ÎÓÈ_1" data-name="—ÎÓÈ_1">
        <rect class="cls-2" x="344.37" y="867.09" width="177.98" height="258.7"></rect>
        <rect class="cls-2" x="325.2" y="846.9" width="177.98" height="258.7"></rect>
        <rect class="cls-2" x="724.64" y="22.28" width="422.04" height="302.59"></rect>
        <path class="cls-3" d="M1508.63,584.42a125.55,125.55,0,0,0-19.35-46.71l9.26-13.34-29.87-29.88-13.34,9.27a125.62,125.62,0,0,0-46.71-19.35l-2.72-16.94h-42.58l-2.71,16.94a125.55,125.55,0,0,0-46.71,19.35l-13.34-9.27-29.88,29.88,9.27,13.34a125.55,125.55,0,0,0-19.35,46.71l-16.94,2.71v42.58l16.94,2.72A125.62,125.62,0,0,0,1280,679.14l-9.27,13.34,29.88,29.87,13.34-9.26a125.55,125.55,0,0,0,46.71,19.35l2.71,16.94h42.58l2.72-16.94a125.62,125.62,0,0,0,46.71-19.35l13.34,9.26,29.87-29.87-9.26-13.34a125.62,125.62,0,0,0,19.35-46.71l16.94-2.72V587.13Zm-124,75.64a51.64,51.64,0,1,1,51.64-51.64A51.64,51.64,0,0,1,1384.61,660.06Z"></path>
        <path class="cls-4" d="M374,251.76a98.79,98.79,0,0,0-15.21-36.71l7.28-10.49-23.49-23.49-10.48,7.28a98.84,98.84,0,0,0-36.72-15.21l-2.14-13.31H259.78l-2.14,13.31a98.91,98.91,0,0,0-36.72,15.21l-10.48-7.28L187,204.56l7.28,10.49A98.79,98.79,0,0,0,179,251.76L165.7,253.9v33.47L179,289.51a98.84,98.84,0,0,0,15.21,36.72L187,336.72l23.49,23.48,10.48-7.28a98.91,98.91,0,0,0,36.72,15.21l2.14,13.32h33.47l2.14-13.32a98.84,98.84,0,0,0,36.72-15.21l10.48,7.28,23.49-23.48-7.28-10.49A98.84,98.84,0,0,0,374,289.51l13.32-2.14V253.9Zm-97.49,59.47a40.6,40.6,0,1,1,40.59-40.59A40.59,40.59,0,0,1,276.52,311.23Z"></path>
        <path class="cls-4" d="M1294.93,208.35a64.17,64.17,0,0,0-9.91-23.91l4.75-6.83-15.3-15.3-6.83,4.74a64.45,64.45,0,0,0-23.92-9.91l-1.39-8.67h-21.8l-1.4,8.67a64.34,64.34,0,0,0-23.91,9.91l-6.83-4.74-15.3,15.3,4.74,6.83a64.34,64.34,0,0,0-9.91,23.91l-8.67,1.39v21.81l8.67,1.39a64.45,64.45,0,0,0,9.91,23.92l-4.74,6.83,15.3,15.3,6.83-4.75a64.17,64.17,0,0,0,23.91,9.91l1.4,8.68h21.8l1.39-8.68a64.29,64.29,0,0,0,23.92-9.91l6.83,4.75,15.3-15.3-4.75-6.83a64.29,64.29,0,0,0,9.91-23.92l8.68-1.39V209.74Zm-63.5,38.74a26.45,26.45,0,1,1,26.44-26.44A26.45,26.45,0,0,1,1231.43,247.09Z"></path>
        <path class="cls-5" d="M1343.58,908.79V294.45a29,29,0,0,0-29-29H170.27a29,29,0,0,0-29,29V908.79Z"></path>
        <path class="cls-6" d="M141.26,905.83v67.94a29,29,0,0,0,29,29h1144.3a29,29,0,0,0,29-29V905.83Z"></path>
        <rect class="cls-7" x="165.7" y="289.29" width="1153.43" height="616.54"></rect>
        <path class="cls-8" d="M891.31,1156.2H593.53a54.39,54.39,0,0,0,22.22-43.86V1002.77H869.09v109.57A54.39,54.39,0,0,0,891.31,1156.2Z"></path>
        <rect class="cls-9" x="615.75" y="1002.77" width="253.33" height="33.42"></rect>
        <path class="cls-10" d="M572.79,1156.2H912.05a25.18,25.18,0,0,1,25.18,25.18v0a0,0,0,0,1,0,0H547.61a0,0,0,0,1,0,0v0a25.18,25.18,0,0,1,25.18-25.18Z"></path>
        <circle class="cls-11" cx="742.42" cy="954.3" r="17.78"></circle>
        <path class="cls-12" d="M1384.61,881.34a2.91,2.91,0,0,1-2.91-2.92V866.77a2.92,2.92,0,0,1,5.83,0v11.65A2.92,2.92,0,0,1,1384.61,881.34Zm0-35a2.91,2.91,0,0,1-2.91-2.92V831.81a2.92,2.92,0,1,1,5.83,0v11.65A2.92,2.92,0,0,1,1384.61,846.38Zm0-35a2.91,2.91,0,0,1-2.91-2.91V796.84a2.92,2.92,0,0,1,5.83,0V808.5A2.91,2.91,0,0,1,1384.61,811.41Zm0-35a2.91,2.91,0,0,1-2.91-2.91V761.88a2.92,2.92,0,0,1,5.83,0v11.66A2.92,2.92,0,0,1,1384.61,776.45Zm0-35a2.91,2.91,0,0,1-2.91-2.92V726.92a2.92,2.92,0,1,1,5.83,0v11.65A2.92,2.92,0,0,1,1384.61,741.49Zm0-35a2.91,2.91,0,0,1-2.91-2.91V692a2.92,2.92,0,1,1,5.83,0v11.65A2.91,2.91,0,0,1,1384.61,706.52Zm0-35a2.91,2.91,0,0,1-2.91-2.91V657a2.92,2.92,0,0,1,5.83,0v11.66A2.91,2.91,0,0,1,1384.61,671.56Zm0-35a2.91,2.91,0,0,1-2.91-2.92V622a2.92,2.92,0,1,1,5.83,0v11.65A2.92,2.92,0,0,1,1384.61,636.6Zm0-35a2.91,2.91,0,0,1-2.91-2.91V587.07a2.92,2.92,0,1,1,5.83,0v11.65A2.91,2.91,0,0,1,1384.61,601.63Zm0-35a2.91,2.91,0,0,1-2.91-2.91V552.1a2.92,2.92,0,0,1,5.83,0v11.66A2.91,2.91,0,0,1,1384.61,566.67Zm0-35a2.91,2.91,0,0,1-2.91-2.92V517.14a2.92,2.92,0,0,1,5.83,0v11.65A2.92,2.92,0,0,1,1384.61,531.71Zm0-35a2.91,2.91,0,0,1-2.91-2.91V482.18a2.92,2.92,0,1,1,5.83,0v11.65A2.91,2.91,0,0,1,1384.61,496.74Zm0-35a2.91,2.91,0,0,1-2.91-2.91V447.21a2.92,2.92,0,0,1,5.83,0v11.66A2.91,2.91,0,0,1,1384.61,461.78Zm0-35a2.91,2.91,0,0,1-2.91-2.92V412.25a2.92,2.92,0,0,1,5.83,0V423.9A2.92,2.92,0,0,1,1384.61,426.82Zm0-35a2.91,2.91,0,0,1-2.91-2.91V377.29a2.92,2.92,0,1,1,5.83,0v11.65A2.91,2.91,0,0,1,1384.61,391.85Zm0-35a2.91,2.91,0,0,1-2.91-2.91V342.32a2.92,2.92,0,0,1,5.83,0V354A2.91,2.91,0,0,1,1384.61,356.89Zm0-35a2.91,2.91,0,0,1-2.91-2.92V307.36a2.92,2.92,0,0,1,5.83,0V319A2.92,2.92,0,0,1,1384.61,321.93Zm0-35a2.91,2.91,0,0,1-2.91-2.92V272.4a2.92,2.92,0,1,1,5.83,0v11.65A2.92,2.92,0,0,1,1384.61,287Zm-.31-35a2.92,2.92,0,0,1-2.88-2.52,29.73,29.73,0,0,0-3.26-10.05,2.91,2.91,0,0,1,5.14-2.75,35.59,35.59,0,0,1,3.9,12,2.92,2.92,0,0,1-2.5,3.28A2.6,2.6,0,0,1,1384.3,252Zm-20.62-26.2a2.77,2.77,0,0,1-1.06-.2,30.05,30.05,0,0,0-10.37-2.05,2.92,2.92,0,0,1,.06-5.83h.06a35.53,35.53,0,0,1,12.37,2.46,2.91,2.91,0,0,1-1.06,5.62ZM1329,223.56h-11.65a2.92,2.92,0,1,1,0-5.83H1329a2.92,2.92,0,1,1,0,5.83Zm-35,0h-11.66a2.92,2.92,0,0,1,0-5.83H1294a2.92,2.92,0,0,1,0,5.83Zm-35,0h-11.66a2.92,2.92,0,0,1,0-5.83h11.66a2.92,2.92,0,0,1,0,5.83Zm-35,0h-11.65a2.92,2.92,0,0,1,0-5.83h11.65a2.92,2.92,0,1,1,0,5.83Zm-35,0H1177.5a2.92,2.92,0,1,1,0-5.83h11.65a2.92,2.92,0,0,1,0,5.83Zm-35,0h-11.66a2.92,2.92,0,0,1,0-5.83h11.66a2.92,2.92,0,0,1,0,5.83Zm-35,0h-11.65a2.92,2.92,0,0,1,0-5.83h11.65a2.92,2.92,0,1,1,0,5.83Zm-35,0h-11.65a2.92,2.92,0,1,1,0-5.83h11.65a2.92,2.92,0,0,1,0,5.83Zm-35,0h-11.66a2.92,2.92,0,0,1,0-5.83h11.66a2.92,2.92,0,0,1,0,5.83Zm-35,0h-11.65a2.92,2.92,0,0,1,0-5.83h11.65a2.92,2.92,0,1,1,0,5.83Zm-35,0H967.72a2.92,2.92,0,1,1,0-5.83h11.65a2.92,2.92,0,0,1,0,5.83Zm-35,0H932.75a2.92,2.92,0,0,1,0-5.83h11.66a2.92,2.92,0,0,1,0,5.83Zm-35,0H897.79a2.92,2.92,0,0,1,0-5.83h11.65a2.92,2.92,0,1,1,0,5.83Zm-35,0H862.83a2.92,2.92,0,1,1,0-5.83h11.65a2.92,2.92,0,1,1,0,5.83Zm-35,0H827.86a2.92,2.92,0,0,1,0-5.83h11.66a2.92,2.92,0,0,1,0,5.83Zm-35,0H792.9a2.92,2.92,0,0,1,0-5.83h11.65a2.92,2.92,0,1,1,0,5.83Zm-35,0H757.94a2.92,2.92,0,1,1,0-5.83h11.65a2.92,2.92,0,1,1,0,5.83Zm-35,0H723a2.92,2.92,0,0,1,0-5.83h11.66a2.92,2.92,0,0,1,0,5.83Zm-35,0H688a2.92,2.92,0,0,1,0-5.83h11.66a2.92,2.92,0,0,1,0,5.83Zm-35,0H653.05a2.92,2.92,0,1,1,0-5.83H664.7a2.92,2.92,0,1,1,0,5.83Zm-35,0H618.08a2.92,2.92,0,0,1,0-5.83h11.66a2.92,2.92,0,0,1,0,5.83Zm-35,0H583.12a2.92,2.92,0,0,1,0-5.83h11.66a2.92,2.92,0,0,1,0,5.83Zm-35,0H548.16a2.92,2.92,0,1,1,0-5.83h11.65a2.92,2.92,0,1,1,0,5.83Zm-35,0H513.2a2.92,2.92,0,1,1,0-5.83h11.65a2.92,2.92,0,0,1,0,5.83Zm-35,0H478.23a2.92,2.92,0,0,1,0-5.83h11.66a2.92,2.92,0,0,1,0,5.83Zm-35,0H443.27a2.92,2.92,0,0,1,0-5.83h11.65a2.92,2.92,0,1,1,0,5.83Zm-35,0H408.31a2.92,2.92,0,1,1,0-5.83H420a2.92,2.92,0,0,1,0,5.83Zm-35,0H373.34a2.92,2.92,0,0,1,0-5.83H385a2.92,2.92,0,0,1,0,5.83Zm-35,0H338.38a2.92,2.92,0,0,1,0-5.83H350a2.92,2.92,0,1,1,0,5.83Zm-35,0H303.42a2.92,2.92,0,1,1,0-5.83h11.65a2.92,2.92,0,0,1,0,5.83Zm-35,0H268.45a2.92,2.92,0,0,1,0-5.83h11.66a2.92,2.92,0,0,1,0,5.83Z"></path>
        <polygon class="cls-13" points="165.7 905.83 1319.14 905.83 1319.14 289.29 165.7 905.83 165.7 905.83"></polygon>
        <rect class="cls-14" x="783.33" y="385.62" width="223.1" height="102.57"></rect>
        <rect class="cls-15" x="1021.79" y="385.62" width="223.1" height="102.57"></rect>
        <path class="cls-16" d="M878.16,412.89,911.26,432a5.65,5.65,0,0,1,0,9.79l-33.1,19.11a5.65,5.65,0,0,1-8.48-4.89V417.79A5.66,5.66,0,0,1,878.16,412.89Z"></path>
        <path class="cls-17" d="M1102.65,435a3.64,3.64,0,0,1-2.11,1.5,3.65,3.65,0,0,1,2.11,1.51,6,6,0,0,1,.65,3.11v11q0,3.92,3.71,3.91h1.26v4h-2.21c-2.51,0-4.4-.62-5.67-1.88a7.45,7.45,0,0,1-1.9-5.54V441c0-1.67-.76-2.51-2.26-2.51h-1.76v-4h1.76c1.5,0,2.26-.84,2.26-2.51V420.43a7.47,7.47,0,0,1,1.9-5.55,7.77,7.77,0,0,1,5.67-1.88h2.21v4H1107q-3.71,0-3.71,3.92v11A6,6,0,0,1,1102.65,435Z"></path>
        <path class="cls-18" d="M1170,434.47v4h-1.71c-1.47,0-2.2.84-2.2,2.51v11.53a7.42,7.42,0,0,1-1.93,5.54,7.83,7.83,0,0,1-5.69,1.88h-2.21v-4h1.2c2.54,0,3.82-1.3,3.82-3.91v-11a6.17,6.17,0,0,1,.62-3.14,3.56,3.56,0,0,1,2.08-1.48,3.52,3.52,0,0,1-2.08-1.48,6.12,6.12,0,0,1-.62-3.13v-11c0-2.61-1.28-3.92-3.82-3.92h-1.2v-4h2.21a7.87,7.87,0,0,1,5.69,1.88,7.44,7.44,0,0,1,1.93,5.55V432c0,1.67.73,2.51,2.2,2.51Z"></path>
        <g class="cls-19">
          <rect class="cls-20" x="783.33" y="545.26" width="461.56" height="272.3"></rect>
          <path class="cls-21" d="M794.52,520.9h439.19a11.19,11.19,0,0,1,11.19,11.19v13.18a0,0,0,0,1,0,0H783.33a0,0,0,0,1,0,0V532.09A11.19,11.19,0,0,1,794.52,520.9Z"></path>
          <circle class="cls-22" cx="810.45" cy="533.71" r="4.39"></circle>
          <circle class="cls-22" cx="824.61" cy="533.71" r="4.39"></circle>
          <circle class="cls-22" cx="838.78" cy="533.71" r="4.39"></circle>
          <rect class="cls-23" x="813.59" y="577.82" width="191.59" height="12.02"></rect>
          <rect class="cls-23" x="813.59" y="605.41" width="191.59" height="12.02"></rect>
          <rect class="cls-23" x="1023.04" y="576.58" width="191.59" height="95.98"></rect>
          <rect class="cls-23" x="813.59" y="690.26" width="191.59" height="95.98"></rect>
          <rect class="cls-23" x="813.59" y="633" width="191.59" height="12.02"></rect>
          <rect class="cls-23" x="813.59" y="660.59" width="191.59" height="12.02"></rect>
          <rect class="cls-23" x="1023.04" y="690.86" width="191.59" height="12.02"></rect>
          <rect class="cls-23" x="1023.04" y="718.45" width="191.59" height="12.02"></rect>
          <rect class="cls-23" x="1023.04" y="746.04" width="191.59" height="12.02"></rect>
          <rect class="cls-23" x="1023.04" y="773.62" width="191.59" height="12.02"></rect>
        </g>
        <rect class="cls-24" x="923" y="63.48" width="182.22" height="121.94"></rect>
        <rect class="cls-25" x="331.28" y="50.43" width="226.76" height="26.11"></rect>
        <rect class="cls-25" x="331.28" y="93.76" width="226.76" height="26.11"></rect>
        <rect class="cls-25" x="331.28" y="137.09" width="226.76" height="26.11"></rect>
        <rect class="cls-21" x="276.52" y="50.43" width="54.76" height="26.15"></rect>
        <rect class="cls-7" x="276.52" y="93.74" width="54.76" height="26.15"></rect>
        <rect class="cls-26" x="276.52" y="137.06" width="54.76" height="26.15"></rect>
        <rect class="cls-27" x="343.63" y="57.93" width="129.72" height="3.33"></rect>
        <rect class="cls-28" x="343.63" y="65.71" width="64.86" height="3.33"></rect>
        <rect class="cls-29" x="344.37" y="101.26" width="129.72" height="3.33"></rect>
        <rect class="cls-30" x="344.37" y="109.04" width="64.86" height="3.33"></rect>
        <rect class="cls-31" x="344.37" y="144.59" width="129.72" height="3.33"></rect>
        <rect class="cls-32" x="344.37" y="152.37" width="64.86" height="3.33"></rect>
        <circle class="cls-23" cx="965.27" cy="102.95" r="26.69" transform="translate(691.75 1034.36) rotate(-79.72)"></circle>
        <path class="cls-25" d="M734.87,0h401.59a10.23,10.23,0,0,1,10.23,10.23V22.28a0,0,0,0,1,0,0h-422a0,0,0,0,1,0,0V10.23A10.23,10.23,0,0,1,734.87,0Z"></path>
        <path class="cls-23" d="M753.45,11.72a4,4,0,1,1-4-4A4,4,0,0,1,753.45,11.72Z"></path>
        <path class="cls-23" d="M766.4,11.72a4,4,0,1,1-4-4A4,4,0,0,1,766.4,11.72Z"></path>
        <path class="cls-23" d="M779.35,11.72a4,4,0,1,1-4-4A4,4,0,0,1,779.35,11.72Z"></path>
        <g class="cls-33">
          <circle class="cls-12" cx="965.27" cy="90.74" r="8.08" transform="translate(-2.07 155.79) rotate(-9.22)"></circle>
          <path class="cls-12" d="M965.27,100.13h0a15.24,15.24,0,0,1,15.24,15.24v1a0,0,0,0,1,0,0H950a0,0,0,0,1,0,0v-1A15.24,15.24,0,0,1,965.27,100.13Z"></path>
        </g>
        <rect class="cls-34" x="618.16" y="173.58" width="12.41" height="12.41"></rect>
        <rect class="cls-34" x="636.87" y="173.58" width="12.41" height="12.41"></rect>
        <rect class="cls-34" x="655.57" y="173.58" width="12.41" height="12.41"></rect>
        <rect class="cls-21" x="150" y="1060.89" width="12.41" height="12.41"></rect>
        <rect class="cls-21" x="168.7" y="1060.89" width="12.41" height="12.41"></rect>
        <rect class="cls-21" x="187.4" y="1060.89" width="12.41" height="12.41"></rect>
        <rect class="cls-26" x="935.16" y="1048.48" width="12.41" height="12.41"></rect>
        <rect class="cls-26" x="953.86" y="1048.48" width="12.41" height="12.41"></rect>
        <rect class="cls-26" x="972.56" y="1048.48" width="12.41" height="12.41"></rect>
        <rect class="cls-26" x="991.27" y="1048.48" width="12.41" height="12.41"></rect>
        <rect class="cls-26" x="1009.97" y="1048.48" width="12.41" height="12.41"></rect>
        <rect class="cls-26" x="1028.67" y="1048.48" width="12.41" height="12.41"></rect>
        <rect class="cls-26" x="1048.95" y="1048.48" width="264.4" height="12.41"></rect>
        <rect class="cls-25" x="745.42" y="63.48" width="158.67" height="3.61"></rect>
        <rect class="cls-25" x="745.42" y="104.59" width="158.67" height="3.61"></rect>
        <rect class="cls-25" x="745.42" y="112" width="158.67" height="3.61"></rect>
        <rect class="cls-25" x="745.42" y="119.41" width="52.93" height="3.61"></rect>
        <rect class="cls-25" x="745.42" y="70.89" width="158.67" height="3.61"></rect>
        <rect class="cls-25" x="745.42" y="78.3" width="158.67" height="3.61"></rect>
        <rect class="cls-25" x="745.42" y="85.71" width="109.97" height="3.61"></rect>
        <rect class="cls-25" x="745.42" y="135.8" width="158.67" height="3.61"></rect>
        <rect class="cls-25" x="745.42" y="143.21" width="158.67" height="3.61"></rect>
        <rect class="cls-25" x="745.42" y="150.61" width="158.67" height="3.61"></rect>
        <rect class="cls-25" x="745.42" y="158.02" width="109.97" height="3.61"></rect>
        <g class="cls-19">
          <rect class="cls-35" y="421.45" width="671.43" height="396.11"></rect>
          <path class="cls-21" d="M16.27,386.44H655.15a16.27,16.27,0,0,1,16.27,16.27v19.17a0,0,0,0,1,0,0H0a0,0,0,0,1,0,0V402.72A16.27,16.27,0,0,1,16.27,386.44Z"></path>
          <path class="cls-22" d="M45.83,405.08a6.39,6.39,0,1,1-6.38-6.39A6.39,6.39,0,0,1,45.83,405.08Z"></path>
          <path class="cls-22" d="M66.44,405.08a6.39,6.39,0,1,1-6.39-6.39A6.39,6.39,0,0,1,66.44,405.08Z"></path>
          <path class="cls-22" d="M87,405.08a6.39,6.39,0,1,1-6.38-6.39A6.39,6.39,0,0,1,87,405.08Z"></path>
          <rect class="cls-23" x="35.01" y="465.72" width="296.27" height="87.71"></rect>
          <rect class="cls-23" x="35.01" y="566.1" width="139.9" height="9.55"></rect>
          <rect class="cls-23" x="191.38" y="566.1" width="139.9" height="9.55"></rect>
          <rect class="cls-23" x="35.01" y="587.67" width="139.9" height="9.55"></rect>
          <rect class="cls-23" x="191.38" y="587.67" width="139.9" height="9.55"></rect>
          <rect class="cls-23" x="35.01" y="609.25" width="139.9" height="9.55"></rect>
          <rect class="cls-23" x="191.38" y="609.25" width="139.9" height="9.55"></rect>
          <rect class="cls-23" x="35.01" y="630.83" width="139.9" height="9.55"></rect>
          <rect class="cls-23" x="191.38" y="630.83" width="139.9" height="9.55"></rect>
          <rect class="cls-23" x="340.15" y="566.1" width="139.9" height="9.55"></rect>
          <rect class="cls-23" x="496.52" y="566.1" width="139.9" height="9.55"></rect>
          <rect class="cls-23" x="340.15" y="587.67" width="139.9" height="9.55"></rect>
          <rect class="cls-23" x="496.52" y="587.67" width="139.9" height="9.55"></rect>
          <rect class="cls-23" x="340.15" y="609.25" width="139.9" height="9.55"></rect>
          <rect class="cls-23" x="496.52" y="609.25" width="139.9" height="9.55"></rect>
          <rect class="cls-23" x="340.15" y="630.83" width="139.9" height="9.55"></rect>
          <rect class="cls-23" x="496.52" y="630.83" width="139.9" height="9.55"></rect>
          <path class="cls-12" d="M115.07,505.16,104.51,509l10.56,3.84v4L100,511.09V507l15.09-5.74Z"></path>
          <path class="cls-12" d="M127.93,519a11.09,11.09,0,0,1-4.31-4.09,11.93,11.93,0,0,1,0-11.83,11,11,0,0,1,4.31-4.09,12.76,12.76,0,0,1,6.17-1.48,12.93,12.93,0,0,1,5.22,1,10.32,10.32,0,0,1,3.91,2.92l-3.29,3a7.13,7.13,0,0,0-5.59-2.6,7.39,7.39,0,0,0-3.67.9,6.59,6.59,0,0,0-2.53,2.52,8,8,0,0,0,0,7.36,6.45,6.45,0,0,0,2.53,2.52,7.4,7.4,0,0,0,3.67.91,7.08,7.08,0,0,0,5.59-2.64l3.29,3a10.29,10.29,0,0,1-3.93,3,13.15,13.15,0,0,1-5.23,1A12.81,12.81,0,0,1,127.93,519Z"></path>
          <path class="cls-12" d="M154.54,519a11,11,0,0,1-4.35-4.11A11.32,11.32,0,0,1,154.54,499,13.75,13.75,0,0,1,167,499a11.36,11.36,0,0,1,4.34,4.11,11.67,11.67,0,0,1,0,11.76A11.22,11.22,0,0,1,167,519a13.75,13.75,0,0,1-12.45,0Zm9.78-3.79a6.42,6.42,0,0,0,2.49-2.52,7.9,7.9,0,0,0,0-7.36,6.55,6.55,0,0,0-2.49-2.52,7.45,7.45,0,0,0-7.1,0,6.55,6.55,0,0,0-2.49,2.52,7.9,7.9,0,0,0,0,7.36,6.42,6.42,0,0,0,2.49,2.52,7.38,7.38,0,0,0,7.1,0Z"></path>
          <path class="cls-12" d="M180.59,497.93h10.08a14.17,14.17,0,0,1,6.39,1.38,10.39,10.39,0,0,1,4.32,3.89,11.82,11.82,0,0,1,0,11.67,10.37,10.37,0,0,1-4.32,3.88,14.17,14.17,0,0,1-6.39,1.38H180.59Zm9.83,18a7.44,7.44,0,0,0,5.31-1.85,7.37,7.37,0,0,0,0-10,7.44,7.44,0,0,0-5.31-1.86h-4.69v13.76Z"></path>
          <path class="cls-12" d="M227.78,516v4.12H210.59v-22.2h16.77v4.13H215.69v4.82H226v4H215.69V516Z"></path>
          <path class="cls-12" d="M242.46,493.43h4.41L236.4,523.3H232Z"></path>
          <path class="cls-12" d="M266.34,507v4.12l-15.1,5.74v-4L261.8,509l-10.56-3.87v-3.93Z"></path>
          <rect class="cls-21" x="340.15" y="465.72" width="296.27" height="87.71"></rect>
          <rect class="cls-21" x="35.01" y="654.71" width="296.27" height="87.71"></rect>
          <rect class="cls-23" x="340.15" y="654.71" width="296.27" height="87.71"></rect>
          <path class="cls-12" d="M429.5,505.16,418.94,509l10.56,3.84v4l-15.09-5.74V507l15.09-5.74Z"></path>
          <path class="cls-12" d="M458.23,497.93v22.2H453.1V511H443v9.1h-5.14v-22.2H443v8.76H453.1v-8.76Z"></path>
          <path class="cls-12" d="M471.9,502.12h-7.1v-4.19h19.34v4.19H477v18H471.9Z"></path>
          <path class="cls-12" d="M510.91,520.13l0-13.32-6.53,11H502l-6.5-10.68v13h-4.82v-22.2H495l8.3,13.8,8.19-13.8h4.21l.07,22.2Z"></path>
          <path class="cls-12" d="M524.8,497.93h5.13v18h11.13v4.18H524.8Z"></path>
          <path class="cls-12" d="M562.18,507v4.12l-15.09,5.74v-4L557.65,509l-10.56-3.87v-3.93Z"></path>
          <path class="cls-12" d="M393.92,692.57l-10.56,3.87,10.56,3.83v4l-15.09-5.74v-4.13l15.09-5.74Z"></path>
          <path class="cls-12" d="M409.08,680.83h4.41L403,710.71h-4.41Z"></path>
          <path class="cls-12" d="M438.89,685.34v22.19h-5.14v-9.1H423.67v9.1h-5.14V685.34h5.14v8.75h10.08v-8.75Z"></path>
          <path class="cls-12" d="M465.15,703.41v4.12H448V685.34h16.77v4.12H453.06v4.82h10.31v4H453.06v5.14Z"></path>
          <path class="cls-12" d="M487.66,702.78h-10.3l-2,4.75h-5.27l9.9-22.19h5.07L495,707.53h-5.39Zm-1.62-3.9-3.52-8.5-3.52,8.5Z"></path>
          <path class="cls-12" d="M501.14,685.34h10.08a14.17,14.17,0,0,1,6.39,1.38,10.3,10.3,0,0,1,4.32,3.88,11.89,11.89,0,0,1,0,11.67,10.39,10.39,0,0,1-4.32,3.89,14.3,14.3,0,0,1-6.39,1.37H501.14Zm9.83,18a7.44,7.44,0,0,0,5.31-1.86,7.37,7.37,0,0,0,0-10.05,7.44,7.44,0,0,0-5.31-1.86h-4.69v13.77Z"></path>
          <path class="cls-12" d="M548.33,703.41v4.12H531.14V685.34h16.77v4.12H536.24v4.82h10.31v4H536.24v5.14Z"></path>
          <path class="cls-12" d="M570.37,707.53l-4.29-6.18h-4.72v6.18h-5.14V685.34h9.61a12.25,12.25,0,0,1,5.12,1,7.53,7.53,0,0,1,3.35,2.79,7.69,7.69,0,0,1,1.17,4.28,7.22,7.22,0,0,1-4.57,7l5,7.13Zm-1.3-17a5.39,5.39,0,0,0-3.52-1h-4.19v7.74h4.19a5.39,5.39,0,0,0,3.52-1,4,4,0,0,0,0-5.73Z"></path>
          <path class="cls-12" d="M597.76,694.37v4.13l-15.09,5.74v-4l10.56-3.83-10.56-3.87v-3.94Z"></path>
          <path class="cls-12" d="M122.84,692.57l-10.56,3.87,10.56,3.83v4l-15.09-5.74v-4.13l15.09-5.74Z"></path>
          <path class="cls-12" d="M150.49,698a5.52,5.52,0,0,1,1.08,3.47,5.14,5.14,0,0,1-2.26,4.49c-1.52,1-3.72,1.56-6.62,1.56H131.21V685.34h10.85a10.58,10.58,0,0,1,6.23,1.55,4.92,4.92,0,0,1,2.17,4.22,5.31,5.31,0,0,1-3,4.88A5.75,5.75,0,0,1,150.49,698Zm-14.17-8.8v5.23h5.11a5.09,5.09,0,0,0,2.88-.67,2.45,2.45,0,0,0,0-3.92,5.28,5.28,0,0,0-2.88-.64ZM145.37,703a2.27,2.27,0,0,0,1-2.06q0-2.76-4.09-2.76h-6v5.49h6A5.69,5.69,0,0,0,145.37,703Z"></path>
          <path class="cls-12" d="M163.8,706.42a11.09,11.09,0,0,1-4.35-4.1,11.81,11.81,0,0,1,0-11.77,11.09,11.09,0,0,1,4.35-4.1,13.75,13.75,0,0,1,12.45,0,11.26,11.26,0,0,1,4.34,4.1,11.69,11.69,0,0,1,0,11.77,11.26,11.26,0,0,1-4.34,4.1,13.67,13.67,0,0,1-12.45,0Zm9.78-3.79a6.42,6.42,0,0,0,2.49-2.52,8,8,0,0,0,0-7.35,6.42,6.42,0,0,0-2.49-2.52,7.38,7.38,0,0,0-7.1,0,6.42,6.42,0,0,0-2.49,2.52,7.88,7.88,0,0,0,0,7.35,6.42,6.42,0,0,0,2.49,2.52,7.38,7.38,0,0,0,7.1,0Z"></path>
          <path class="cls-12" d="M189.85,685.34h10.08a14.17,14.17,0,0,1,6.39,1.38,10.3,10.3,0,0,1,4.32,3.88,11.82,11.82,0,0,1,0,11.67,10.39,10.39,0,0,1-4.32,3.89,14.3,14.3,0,0,1-6.39,1.37H189.85Zm9.83,18a7.44,7.44,0,0,0,5.31-1.86,7.37,7.37,0,0,0,0-10.05,7.44,7.44,0,0,0-5.31-1.86H195v13.77Z"></path>
          <path class="cls-12" d="M229.55,699.67v7.86h-5.13v-7.92l-8.6-14.27h5.46l5.93,9.86,5.93-9.86h5Z"></path>
          <path class="cls-12" d="M258.57,694.37v4.13l-15.1,5.74v-4L254,696.44l-10.56-3.87v-3.94Z"></path>
        </g>
      </g>
    </g>
  </g>
</svg>
