<?xml version="1.0" encoding="UTF-8"?>
<svg xmlns="http://www.w3.org/2000/svg" xmlns:xlink="http://www.w3.org/1999/xlink" viewBox="0 0 956.98 1145.29">
  <defs>
    <style>.cls-1{isolation:isolate;}.cls-2,.cls-36{fill:#5c49cc;}.cls-12,.cls-2{opacity:0.26;}.cls-10,.cls-13,.cls-16,.cls-19,.cls-2,.cls-22,.cls-24{mix-blend-mode:screen;}.cls-3,.cls-34{fill:#f0588d;}.cls-3{opacity:0.6;}.cls-35,.cls-4{fill:#fff;}.cls-5{fill:url(#_ÂÁ_Ï_ÌÌ_È_ËÂÌÚ_111);}.cls-6{fill:url(#_ÂÁ_Ï_ÌÌ_È_ËÂÌÚ_101);}.cls-7{fill:#574bcf;}.cls-8{opacity:0.56;}.cls-9{fill:url(#_ÂÁ_Ï_ÌÌ_È_ËÂÌÚ_119);}.cls-10{fill:url(#_ÂÁ_Ï_ÌÌ_È_ËÂÌÚ_119-2);}.cls-11{opacity:0.67;}.cls-13{fill:url(#_ÂÁ_Ï_ÌÌ_È_ËÂÌÚ_30);}.cls-14,.cls-17,.cls-20,.cls-23,.cls-25{opacity:0.75;}.cls-14{fill:url(#_ÂÁ_Ï_ÌÌ_È_ËÂÌÚ_30-2);}.cls-15{opacity:0.15;}.cls-16{fill:url(#_ÂÁ_Ï_ÌÌ_È_ËÂÌÚ_30-3);}.cls-17{fill:url(#_ÂÁ_Ï_ÌÌ_È_ËÂÌÚ_30-4);}.cls-18{opacity:0.1;}.cls-19{fill:url(#_ÂÁ_Ï_ÌÌ_È_ËÂÌÚ_30-5);}.cls-20{fill:url(#_ÂÁ_Ï_ÌÌ_È_ËÂÌÚ_30-6);}.cls-21{opacity:0.2;}.cls-22{fill:url(#_ÂÁ_Ï_ÌÌ_È_ËÂÌÚ_30-7);}.cls-23{fill:url(#_ÂÁ_Ï_ÌÌ_È_ËÂÌÚ_30-8);}.cls-24{fill:url(#_ÂÁ_Ï_ÌÌ_È_ËÂÌÚ_30-9);}.cls-25{fill:url(#_ÂÁ_Ï_ÌÌ_È_ËÂÌÚ_30-10);}.cls-26{opacity:0.13;fill:url(#_ÂÁ_Ï_ÌÌ_È_ËÂÌÚ_111-2);}.cls-27{opacity:0.95;}.cls-28{fill:url(#_ÂÁ_Ï_ÌÌ_È_ËÂÌÚ_119-3);}.cls-29{fill:url(#_ÂÁ_Ï_ÌÌ_È_ËÂÌÚ_111-3);}.cls-30{fill:url(#_ÂÁ_Ï_ÌÌ_È_ËÂÌÚ_111-4);}.cls-31{fill:url(#_ÂÁ_Ï_ÌÌ_È_ËÂÌÚ_111-5);}.cls-32{fill:url(#_ÂÁ_Ï_ÌÌ_È_ËÂÌÚ_111-6);}.cls-33{fill:#a7a5f9;}.cls-35{opacity:0.5;}.cls-37{fill:url(#_ÂÁ_Ï_ÌÌ_È_ËÂÌÚ_111-7);}.cls-38{fill:url(#_ÂÁ_Ï_ÌÌ_È_ËÂÌÚ_111-8);}.cls-39{fill:url(#_ÂÁ_Ï_ÌÌ_È_ËÂÌÚ_111-9);}.cls-40{fill:url(#_ÂÁ_Ï_ÌÌ_È_ËÂÌÚ_111-10);}.cls-41{fill:url(#_ÂÁ_Ï_ÌÌ_È_ËÂÌÚ_111-11);}.cls-42{fill:url(#_ÂÁ_Ï_ÌÌ_È_ËÂÌÚ_111-12);}.cls-43{opacity:0.83;fill:url(#_ÂÁ_Ï_ÌÌ_È_ËÂÌÚ_119-4);}.cls-44{fill:url(#_ÂÁ_Ï_ÌÌ_È_ËÂÌÚ_101-2);}.cls-45{fill:url(#_ÂÁ_Ï_ÌÌ_È_ËÂÌÚ_119-5);}.cls-46{fill:url(#_ÂÁ_Ï_ÌÌ_È_ËÂÌÚ_119-6);}.cls-47{fill:url(#_ÂÁ_Ï_ÌÌ_È_ËÂÌÚ_119-7);}</style>
    <linearGradient id="_ÂÁ_Ï_ÌÌ_È_ËÂÌÚ_111" x1="205.27" y1="589.44" x2="774.86" y2="589.44" gradientUnits="userSpaceOnUse">
      <stop offset="0" stop-color="#d9d5ff"></stop>
      <stop offset="1" stop-color="#f9f9ff"></stop>
    </linearGradient>
    <linearGradient id="_ÂÁ_Ï_ÌÌ_È_ËÂÌÚ_101" x1="647.91" y1="948.8" x2="201.25" y2="24.26" gradientUnits="userSpaceOnUse">
      <stop offset="0" stop-color="#5d2594"></stop>
      <stop offset="1" stop-color="#5351e1"></stop>
    </linearGradient>
    <linearGradient id="_ÂÁ_Ï_ÌÌ_È_ËÂÌÚ_119" x1="251.26" y1="915.46" x2="513.57" y2="735.63" gradientUnits="userSpaceOnUse">
      <stop offset="0" stop-color="#c1c0ff"></stop>
      <stop offset="1" stop-color="#d7d5ff"></stop>
    </linearGradient>
    <linearGradient id="_ÂÁ_Ï_ÌÌ_È_ËÂÌÚ_119-2" x1="256.86" y1="909.86" x2="519.17" y2="730.02" xlink:href="#_ÂÁ_Ï_ÌÌ_È_ËÂÌÚ_119"></linearGradient>
    <linearGradient id="_ÂÁ_Ï_ÌÌ_È_ËÂÌÚ_30" x1="248.46" y1="752.1" x2="510.77" y2="572.27" gradientUnits="userSpaceOnUse">
      <stop offset="0" stop-color="#008dc9"></stop>
      <stop offset="0.16" stop-color="#0694cb"></stop>
      <stop offset="0.4" stop-color="#17a7d1"></stop>
      <stop offset="0.68" stop-color="#32c6db"></stop>
      <stop offset="0.99" stop-color="#57f1e9"></stop>
      <stop offset="1" stop-color="#58f2e9"></stop>
    </linearGradient>
    <linearGradient id="_ÂÁ_Ï_ÌÌ_È_ËÂÌÚ_30-2" x1="254.06" y1="746.5" x2="516.37" y2="566.67" xlink:href="#_ÂÁ_Ï_ÌÌ_È_ËÂÌÚ_30"></linearGradient>
    <linearGradient id="_ÂÁ_Ï_ÌÌ_È_ËÂÌÚ_30-3" x1="403.74" y1="915.46" x2="666.05" y2="735.63" xlink:href="#_ÂÁ_Ï_ÌÌ_È_ËÂÌÚ_30"></linearGradient>
    <linearGradient id="_ÂÁ_Ï_ÌÌ_È_ËÂÌÚ_30-4" x1="409.34" y1="909.86" x2="671.65" y2="730.02" xlink:href="#_ÂÁ_Ï_ÌÌ_È_ËÂÌÚ_30"></linearGradient>
    <linearGradient id="_ÂÁ_Ï_ÌÌ_È_ËÂÌÚ_30-5" x1="569.84" y1="918.26" x2="832.15" y2="738.43" xlink:href="#_ÂÁ_Ï_ÌÌ_È_ËÂÌÚ_30"></linearGradient>
    <linearGradient id="_ÂÁ_Ï_ÌÌ_È_ËÂÌÚ_30-6" x1="575.44" y1="912.66" x2="837.75" y2="732.82" xlink:href="#_ÂÁ_Ï_ÌÌ_È_ËÂÌÚ_30"></linearGradient>
    <linearGradient id="_ÂÁ_Ï_ÌÌ_È_ËÂÌÚ_30-7" x1="558.14" y1="307.46" x2="820.45" y2="127.63" xlink:href="#_ÂÁ_Ï_ÌÌ_È_ËÂÌÚ_30"></linearGradient>
    <linearGradient id="_ÂÁ_Ï_ÌÌ_È_ËÂÌÚ_30-8" x1="563.74" y1="301.86" x2="826.05" y2="122.03" xlink:href="#_ÂÁ_Ï_ÌÌ_È_ËÂÌÚ_30"></linearGradient>
    <linearGradient id="_ÂÁ_Ï_ÌÌ_È_ËÂÌÚ_30-9" x1="403.74" y1="310.26" x2="666.05" y2="130.43" xlink:href="#_ÂÁ_Ï_ÌÌ_È_ËÂÌÚ_30"></linearGradient>
    <linearGradient id="_ÂÁ_Ï_ÌÌ_È_ËÂÌÚ_30-10" x1="409.34" y1="304.66" x2="671.65" y2="124.83" xlink:href="#_ÂÁ_Ï_ÌÌ_È_ËÂÌÚ_30"></linearGradient>
    <linearGradient id="_ÂÁ_Ï_ÌÌ_È_ËÂÌÚ_111-2" x1="490.06" y1="1063.01" x2="490.06" y2="953.35" gradientTransform="translate(1408.48 365.45) rotate(80.94)" xlink:href="#_ÂÁ_Ï_ÌÌ_È_ËÂÌÚ_111"></linearGradient>
    <linearGradient id="_ÂÁ_Ï_ÌÌ_È_ËÂÌÚ_119-3" x1="0" y1="375.81" x2="401.29" y2="375.81" xlink:href="#_ÂÁ_Ï_ÌÌ_È_ËÂÌÚ_119"></linearGradient>
    <linearGradient id="_ÂÁ_Ï_ÌÌ_È_ËÂÌÚ_111-3" x1="31.34" y1="256.9" x2="366.23" y2="256.9" xlink:href="#_ÂÁ_Ï_ÌÌ_È_ËÂÌÚ_111"></linearGradient>
    <linearGradient id="_ÂÁ_Ï_ÌÌ_È_ËÂÌÚ_111-4" x1="119.95" y1="452.67" x2="169.75" y2="452.67" xlink:href="#_ÂÁ_Ï_ÌÌ_È_ËÂÌÚ_111"></linearGradient>
    <linearGradient id="_ÂÁ_Ï_ÌÌ_È_ËÂÌÚ_111-5" x1="179.82" y1="452.67" x2="273.31" y2="452.67" xlink:href="#_ÂÁ_Ï_ÌÌ_È_ËÂÌÚ_111"></linearGradient>
    <linearGradient id="_ÂÁ_Ï_ÌÌ_È_ËÂÌÚ_111-6" x1="31.34" y1="328.26" x2="366.23" y2="328.26" xlink:href="#_ÂÁ_Ï_ÌÌ_È_ËÂÌÚ_111"></linearGradient>
    <linearGradient id="_ÂÁ_Ï_ÌÌ_È_ËÂÌÚ_111-7" x1="551.54" y1="536.08" x2="735.29" y2="536.08" xlink:href="#_ÂÁ_Ï_ÌÌ_È_ËÂÌÚ_111"></linearGradient>
    <linearGradient id="_ÂÁ_Ï_ÌÌ_È_ËÂÌÚ_111-8" x1="551.54" y1="553.3" x2="643.41" y2="553.3" xlink:href="#_ÂÁ_Ï_ÌÌ_È_ËÂÌÚ_111"></linearGradient>
    <linearGradient id="_ÂÁ_Ï_ÌÌ_È_ËÂÌÚ_111-9" x1="552.59" y1="632.02" x2="736.34" y2="632.02" xlink:href="#_ÂÁ_Ï_ÌÌ_È_ËÂÌÚ_111"></linearGradient>
    <linearGradient id="_ÂÁ_Ï_ÌÌ_È_ËÂÌÚ_111-10" x1="552.59" y1="649.24" x2="644.46" y2="649.24" xlink:href="#_ÂÁ_Ï_ÌÌ_È_ËÂÌÚ_111"></linearGradient>
    <linearGradient id="_ÂÁ_Ï_ÌÌ_È_ËÂÌÚ_111-11" x1="552.59" y1="727.97" x2="736.34" y2="727.97" xlink:href="#_ÂÁ_Ï_ÌÌ_È_ËÂÌÚ_111"></linearGradient>
    <linearGradient id="_ÂÁ_Ï_ÌÌ_È_ËÂÌÚ_111-12" x1="552.59" y1="745.19" x2="644.46" y2="745.19" xlink:href="#_ÂÁ_Ï_ÌÌ_È_ËÂÌÚ_111"></linearGradient>
    <linearGradient id="_ÂÁ_Ï_ÌÌ_È_ËÂÌÚ_119-4" x1="448.75" y1="341.89" x2="855.25" y2="341.89" xlink:href="#_ÂÁ_Ï_ÌÌ_È_ËÂÌÚ_119"></linearGradient>
    <linearGradient id="_ÂÁ_Ï_ÌÌ_È_ËÂÌÚ_101-2" x1="588.92" y1="341.89" x2="741.41" y2="341.89" xlink:href="#_ÂÁ_Ï_ÌÌ_È_ËÂÌÚ_101"></linearGradient>
    <linearGradient id="_ÂÁ_Ï_ÌÌ_È_ËÂÌÚ_119-5" x1="478.06" y1="544.73" x2="512.46" y2="544.73" xlink:href="#_ÂÁ_Ï_ÌÌ_È_ËÂÌÚ_119"></linearGradient>
    <linearGradient id="_ÂÁ_Ï_ÌÌ_È_ËÂÌÚ_119-6" x1="478.06" y1="639.39" x2="512.46" y2="639.39" xlink:href="#_ÂÁ_Ï_ÌÌ_È_ËÂÌÚ_119"></linearGradient>
    <linearGradient id="_ÂÁ_Ï_ÌÌ_È_ËÂÌÚ_119-7" x1="478.06" y1="736.58" x2="512.46" y2="736.58" gradientTransform="translate(315.83 -132.69) rotate(22.25)" xlink:href="#_ÂÁ_Ï_ÌÌ_È_ËÂÌÚ_119"></linearGradient>
  </defs>
  <g class="cls-1">
    <g id="Layer_2" data-name="Layer 2">
      <g id="_ÎÓÈ_1" data-name="—ÎÓÈ_1">
        <rect class="cls-2" x="95.53" y="639.39" width="242.06" height="387.27"></rect>
        <rect class="cls-2" x="119.53" y="613.36" width="242.06" height="387.27"></rect>
        <rect class="cls-2" x="580.22" y="3.53" width="242.06" height="387.27" transform="translate(898.42 -504.08) rotate(90)"></rect>
        <rect class="cls-2" x="606.25" y="27.54" width="242.06" height="387.27" transform="translate(948.45 -506.11) rotate(90)"></rect>
        <path class="cls-3" d="M930.79,881.92a102.94,102.94,0,0,0-28.45-30.09l3.19-12.91-31.59-14.14-7.5,11A103,103,0,0,0,825,834.6l-7-12.17-32.59,12.44,2.87,13.76a102.68,102.68,0,0,0-30.09,28.45l-12.91-3.19-14.14,31.58,11,7.51A103,103,0,0,0,741,954.37l-12.17,7L741.25,994,755,991.11a102.68,102.68,0,0,0,28.45,30.09l-3.2,12.92,31.59,14.13,7.51-11a102.81,102.81,0,0,0,41.39,1.16l7,12.17,32.58-12.43-2.87-13.76A102.94,102.94,0,0,0,927.58,996l12.92,3.19,14.13-31.59-11-7.5a102.81,102.81,0,0,0,1.16-41.39l12.17-7-12.44-32.59ZM858,976a42.3,42.3,0,1,1,24.43-54.61A42.3,42.3,0,0,1,858,976Z"></path>
        <path class="cls-4" d="M173.52,1094.22a2.79,2.79,0,0,1-2.79-2.79v-11.15a2.79,2.79,0,1,1,5.57,0v11.15A2.78,2.78,0,0,1,173.52,1094.22Zm0-33.46a2.78,2.78,0,0,1-2.79-2.78v-11.15a2.79,2.79,0,1,1,5.57,0V1058A2.77,2.77,0,0,1,173.52,1060.76Zm0-33.45a2.78,2.78,0,0,1-2.79-2.78v-11.15a2.79,2.79,0,1,1,5.57,0v11.15A2.77,2.77,0,0,1,173.52,1027.31Zm0-33.45a2.79,2.79,0,0,1-2.79-2.79V979.92a2.79,2.79,0,0,1,5.57,0v11.15A2.78,2.78,0,0,1,173.52,993.86Zm0-33.45a2.79,2.79,0,0,1-2.79-2.79V946.47a2.79,2.79,0,0,1,5.57,0v11.15A2.78,2.78,0,0,1,173.52,960.41Zm0-33.45a2.79,2.79,0,0,1-2.79-2.79V913a2.79,2.79,0,0,1,5.57,0v11.15A2.78,2.78,0,0,1,173.52,927Zm0-33.45a2.79,2.79,0,0,1-2.79-2.79V879.57a2.79,2.79,0,1,1,5.57,0v11.15A2.78,2.78,0,0,1,173.52,893.51Zm0-33.45a2.79,2.79,0,0,1-2.79-2.79V846.12a2.79,2.79,0,1,1,5.57,0v11.15A2.78,2.78,0,0,1,173.52,860.06Zm0-33.45a2.79,2.79,0,0,1-2.79-2.79V812.67a2.79,2.79,0,1,1,5.57,0v11.15A2.78,2.78,0,0,1,173.52,826.61Zm0-33.45a2.79,2.79,0,0,1-2.79-2.79V779.22a2.79,2.79,0,1,1,5.57,0v11.15A2.78,2.78,0,0,1,173.52,793.16Zm0-33.45a2.79,2.79,0,0,1-2.79-2.79V745.77a2.79,2.79,0,1,1,5.57,0v11.15A2.78,2.78,0,0,1,173.52,759.71Zm0-33.45a2.79,2.79,0,0,1-2.79-2.79V712.32a2.79,2.79,0,1,1,5.57,0v11.15A2.78,2.78,0,0,1,173.52,726.26Zm0-33.45a2.79,2.79,0,0,1-2.79-2.79V678.87a2.79,2.79,0,1,1,5.57,0V690A2.78,2.78,0,0,1,173.52,692.81Zm0-33.46a2.78,2.78,0,0,1-2.79-2.78V645.42a2.79,2.79,0,1,1,5.57,0v11.15A2.77,2.77,0,0,1,173.52,659.35Zm0-33.45a2.78,2.78,0,0,1-2.79-2.78V612a2.79,2.79,0,1,1,5.57,0v11.15A2.77,2.77,0,0,1,173.52,625.9Zm0-33.45a2.79,2.79,0,0,1-2.79-2.79V578.51a2.79,2.79,0,0,1,5.57,0v11.15A2.78,2.78,0,0,1,173.52,592.45Zm0-33.45a2.79,2.79,0,0,1-2.79-2.79V545.06a2.79,2.79,0,0,1,5.57,0v11.15A2.78,2.78,0,0,1,173.52,559Zm0-33.45a2.79,2.79,0,0,1-2.79-2.79V511.61a2.79,2.79,0,0,1,5.57,0v11.15A2.78,2.78,0,0,1,173.52,525.55Zm0-33.45a2.79,2.79,0,0,1-2.79-2.79V478.16a2.79,2.79,0,1,1,5.57,0v11.15A2.78,2.78,0,0,1,173.52,492.1Zm0-33.45a2.79,2.79,0,0,1-2.79-2.79V444.71a2.79,2.79,0,1,1,5.57,0v11.15A2.78,2.78,0,0,1,173.52,458.65Zm0-33.45a2.79,2.79,0,0,1-2.79-2.79V411.26a2.79,2.79,0,1,1,5.57,0v11.15A2.78,2.78,0,0,1,173.52,425.2Zm0-33.45a2.79,2.79,0,0,1-2.79-2.79V377.81a2.79,2.79,0,1,1,5.57,0V389A2.78,2.78,0,0,1,173.52,391.75Zm0-33.45a2.79,2.79,0,0,1-2.79-2.79V344.36a2.79,2.79,0,1,1,5.57,0v11.15A2.78,2.78,0,0,1,173.52,358.3Zm0-33.45a2.79,2.79,0,0,1-2.79-2.79V310.91a2.79,2.79,0,1,1,5.57,0v11.15A2.78,2.78,0,0,1,173.52,324.85Zm0-33.45a2.79,2.79,0,0,1-2.79-2.79V277.46a2.79,2.79,0,1,1,5.57,0v11.15A2.78,2.78,0,0,1,173.52,291.4Zm0-33.46a2.78,2.78,0,0,1-2.79-2.78V244a2.79,2.79,0,1,1,5.57,0v11.15A2.77,2.77,0,0,1,173.52,257.94Zm0-33.45a2.78,2.78,0,0,1-2.79-2.78V210.56a2.79,2.79,0,1,1,5.57,0v11.15A2.77,2.77,0,0,1,173.52,224.49Zm0-33.45a2.79,2.79,0,0,1-2.79-2.79V177.1a2.79,2.79,0,0,1,5.57,0v11.15A2.78,2.78,0,0,1,173.52,191Zm0-33.45a2.79,2.79,0,0,1-2.79-2.79V143.65a2.79,2.79,0,0,1,5.57,0V154.8A2.78,2.78,0,0,1,173.52,157.59Zm0-33.45a2.79,2.79,0,0,1-2.79-2.79V110.2a2.79,2.79,0,0,1,5.57,0v11.15A2.78,2.78,0,0,1,173.52,124.14Zm0-33.45a2.79,2.79,0,0,1-2.79-2.79V76.75a2.79,2.79,0,1,1,5.57,0V87.9A2.78,2.78,0,0,1,173.52,90.69Zm2.93-33.16A2.8,2.8,0,0,1,173.78,54a74.66,74.66,0,0,1,4.11-10.81,2.79,2.79,0,1,1,5,2.38,69.91,69.91,0,0,0-3.81,10A2.78,2.78,0,0,1,176.45,57.53Zm16.41-28.81A2.74,2.74,0,0,1,191,28a2.78,2.78,0,0,1-.15-3.94,76.09,76.09,0,0,1,8.5-7.85,2.79,2.79,0,0,1,3.45,4.38,69.21,69.21,0,0,0-7.86,7.26A2.8,2.8,0,0,1,192.86,28.72Zm27.51-18.5a2.79,2.79,0,0,1-1-5.4,75.13,75.13,0,0,1,11.11-3.23,2.79,2.79,0,0,1,1.14,5.46,69.12,69.12,0,0,0-10.28,3A2.78,2.78,0,0,1,220.37,10.22ZM755.11,5.58a2.83,2.83,0,0,1-2.84-2.79A2.75,2.75,0,0,1,755,0h.1a2.79,2.79,0,0,1,0,5.58Zm-22.4,0H721.56a2.79,2.79,0,1,1,0-5.58h11.15a2.79,2.79,0,0,1,0,5.58Zm-33.45,0H688.11a2.79,2.79,0,1,1,0-5.58h11.15a2.79,2.79,0,0,1,0,5.58Zm-33.45,0H654.66a2.79,2.79,0,1,1,0-5.58h11.15a2.79,2.79,0,1,1,0,5.58Zm-33.45,0H621.21a2.79,2.79,0,0,1,0-5.58h11.15a2.79,2.79,0,0,1,0,5.58Zm-33.45,0H587.76a2.79,2.79,0,1,1,0-5.58h11.15a2.79,2.79,0,0,1,0,5.58Zm-33.45,0H554.31a2.79,2.79,0,1,1,0-5.58h11.15a2.79,2.79,0,0,1,0,5.58ZM532,5.58H520.86a2.79,2.79,0,1,1,0-5.58H532a2.79,2.79,0,0,1,0,5.58Zm-33.45,0H487.4a2.79,2.79,0,0,1,0-5.58h11.16a2.79,2.79,0,0,1,0,5.58Zm-33.46,0H454A2.79,2.79,0,0,1,454,0H465.1a2.79,2.79,0,0,1,0,5.58Zm-33.45,0H420.5a2.79,2.79,0,0,1,0-5.58h11.15a2.79,2.79,0,1,1,0,5.58Zm-33.45,0H387.05a2.79,2.79,0,0,1,0-5.58H398.2a2.79,2.79,0,1,1,0,5.58Zm-33.45,0H353.6a2.79,2.79,0,0,1,0-5.58h11.15a2.79,2.79,0,1,1,0,5.58Zm-33.45,0H320.15a2.79,2.79,0,1,1,0-5.58H331.3a2.79,2.79,0,0,1,0,5.58Zm-33.45,0H286.7a2.79,2.79,0,1,1,0-5.58h11.15a2.79,2.79,0,0,1,0,5.58Zm-33.45,0H253.25a2.79,2.79,0,1,1,0-5.58H264.4a2.79,2.79,0,1,1,0,5.58Z"></path>
        <rect class="cls-5" x="205.27" y="33.58" width="569.59" height="1111.71" rx="53.63"></rect>
        <path class="cls-6" d="M216.36,145.47v946.19a42.54,42.54,0,0,0,42.54,42.54H721.22a42.54,42.54,0,0,0,42.54-42.54V145.47a12,12,0,0,0-12-12H228.38A12,12,0,0,0,216.36,145.47Z"></path>
        <rect class="cls-7" x="401.29" y="76.12" width="181.23" height="12.95" rx="6.47"></rect>
        <g class="cls-8">
          <rect class="cls-9" x="273.88" y="797.29" width="121.82" height="121.82" rx="7.45"></rect>
          <rect class="cls-10" x="279.48" y="791.69" width="121.82" height="121.82" rx="7.45"></rect>
        </g>
        <g class="cls-11">
          <path class="cls-4" d="M320.81,850.34l-15,5.49,15,5.45v5.62l-21.43-8.14V852.9l21.43-8.14Z"></path>
          <path class="cls-4" d="M342.33,833.68h6.26l-14.86,42.41h-6.26Z"></path>
          <path class="cls-4" d="M376.23,852.9v5.86L354.8,866.9v-5.62l15-5.45-15-5.49v-5.58Z"></path>
        </g>
        <g class="cls-12">
          <rect class="cls-13" x="271.08" y="633.93" width="121.82" height="121.82" rx="7.45"></rect>
          <rect class="cls-14" x="276.68" y="628.33" width="121.82" height="121.82" rx="7.45"></rect>
        </g>
        <g class="cls-15">
          <rect class="cls-16" x="426.35" y="797.29" width="121.82" height="121.82" rx="7.45"></rect>
          <rect class="cls-17" x="431.95" y="791.69" width="121.82" height="121.82" rx="7.45"></rect>
        </g>
        <g class="cls-18">
          <rect class="cls-19" x="592.45" y="800.09" width="121.82" height="121.82" rx="7.45"></rect>
          <rect class="cls-20" x="598.05" y="794.49" width="121.82" height="121.82" rx="7.45"></rect>
        </g>
        <g class="cls-21">
          <rect class="cls-22" x="580.75" y="189.29" width="121.82" height="121.82" rx="7.45"></rect>
          <rect class="cls-23" x="586.36" y="183.69" width="121.82" height="121.82" rx="7.45"></rect>
        </g>
        <g class="cls-21">
          <rect class="cls-24" x="426.35" y="192.09" width="121.82" height="121.82" rx="7.45"></rect>
          <rect class="cls-25" x="431.95" y="186.49" width="121.82" height="121.82" rx="7.45"></rect>
        </g>
        <circle class="cls-26" cx="490.06" cy="1008.18" r="54.83" transform="matrix(0.16, -0.99, 0.99, 0.16, -582.72, 1333.34)"></circle>
        <g class="cls-27">
          <rect class="cls-28" y="186.49" width="401.29" height="378.64"></rect>
          <rect class="cls-29" x="31.34" y="239.12" width="334.89" height="35.56"></rect>
          <rect class="cls-30" x="119.95" y="447.4" width="49.81" height="10.53"></rect>
          <rect class="cls-31" x="179.82" y="447.4" width="93.49" height="10.53"></rect>
          <rect class="cls-32" x="31.34" y="308.08" width="334.89" height="40.34"></rect>
          <rect class="cls-33" x="31.34" y="374.55" width="334.89" height="40.34" rx="10.72"></rect>
          <rect class="cls-34" x="31.34" y="477.03" width="334.89" height="40.34" rx="10.72"></rect>
        </g>
        <rect class="cls-35" x="534.04" y="515.78" width="321.21" height="57.81"></rect>
        <rect class="cls-35" x="534.04" y="611.73" width="321.21" height="57.81"></rect>
        <rect class="cls-35" x="534.04" y="707.67" width="321.21" height="57.81"></rect>
        <rect class="cls-34" x="456.48" y="515.78" width="77.57" height="57.89"></rect>
        <rect class="cls-36" x="456.48" y="611.69" width="77.57" height="57.89"></rect>
        <rect class="cls-33" x="456.48" y="707.59" width="77.57" height="57.89"></rect>
        <rect class="cls-37" x="551.54" y="532.38" width="183.75" height="7.38"></rect>
        <rect class="cls-38" x="551.54" y="549.61" width="91.87" height="7.38"></rect>
        <rect class="cls-39" x="552.59" y="628.33" width="183.75" height="7.38"></rect>
        <rect class="cls-40" x="552.59" y="645.55" width="91.87" height="7.38"></rect>
        <rect class="cls-41" x="552.59" y="724.28" width="183.75" height="7.38"></rect>
        <rect class="cls-42" x="552.59" y="741.5" width="91.87" height="7.38"></rect>
        <rect class="cls-43" x="448.75" y="250.96" width="406.5" height="181.86"></rect>
        <path class="cls-44" d="M640,320.57l29.41,17a5,5,0,0,1,0,8.7l-29.41,17a5,5,0,0,1-7.53-4.35V324.92A5,5,0,0,1,640,320.57Z"></path>
        <circle class="cls-45" cx="495.26" cy="544.73" r="17.2"></circle>
        <circle class="cls-46" cx="495.26" cy="639.39" r="17.2"></circle>
        <circle class="cls-47" cx="495.26" cy="736.58" r="17.2" transform="translate(-242.06 242.42) rotate(-22.25)"></circle>
      </g>
    </g>
  </g>
</svg>
