<?xml version="1.0" encoding="UTF-8"?>
<svg xmlns="http://www.w3.org/2000/svg" xmlns:xlink="http://www.w3.org/1999/xlink" viewBox="0 0 304.6 267.17">
  <defs>
    <style>.cls-1{isolation:isolate;}.cls-2,.cls-3,.cls-57{opacity:0.08;}.cls-107,.cls-108,.cls-109,.cls-12,.cls-13,.cls-15,.cls-16,.cls-19,.cls-2,.cls-20,.cls-22,.cls-24,.cls-26,.cls-27,.cls-29,.cls-3,.cls-31,.cls-33,.cls-34,.cls-36,.cls-37,.cls-48,.cls-5,.cls-50,.cls-53,.cls-57,.cls-6,.cls-87,.cls-88,.cls-89,.cls-9,.cls-90{mix-blend-mode:screen;}.cls-2{fill:url(#_ÂÁ_Ï_ÌÌ_È_ËÂÌÚ_111);}.cls-3{fill:url(#_ÂÁ_Ï_ÌÌ_È_ËÂÌÚ_111-2);}.cls-107,.cls-108,.cls-109,.cls-12,.cls-15,.cls-16,.cls-19,.cls-20,.cls-22,.cls-24,.cls-26,.cls-27,.cls-29,.cls-31,.cls-33,.cls-34,.cls-36,.cls-37,.cls-4,.cls-5,.cls-88,.cls-89,.cls-9,.cls-90{opacity:0.25;}.cls-5{fill:url(#_ÂÁ_Ï_ÌÌ_È_ËÂÌÚ_111-3);}.cls-50,.cls-6{opacity:0.48;}.cls-6{fill:url(#_ÂÁ_Ï_ÌÌ_È_ËÂÌÚ_111-4);}.cls-7{fill:url(#_ÂÁ_Ï_ÌÌ_È_ËÂÌÚ_119);}.cls-106,.cls-8{fill:#fff;}.cls-9{fill:url(#_ÂÁ_Ï_ÌÌ_È_ËÂÌÚ_111-5);}.cls-10{fill:url(#_ÂÁ_Ï_ÌÌ_È_ËÂÌÚ_119-2);}.cls-11{fill:url(#_ÂÁ_Ï_ÌÌ_È_ËÂÌÚ_119-3);}.cls-12{fill:url(#_ÂÁ_Ï_ÌÌ_È_ËÂÌÚ_111-6);}.cls-14{fill:url(#_ÂÁ_Ï_ÌÌ_È_ËÂÌÚ_119-4);}.cls-15{fill:url(#_ÂÁ_Ï_ÌÌ_È_ËÂÌÚ_111-7);}.cls-16{fill:url(#_ÂÁ_Ï_ÌÌ_È_ËÂÌÚ_111-8);}.cls-17{fill:url(#_ÂÁ_Ï_ÌÌ_È_ËÂÌÚ_119-5);}.cls-18{fill:url(#_ÂÁ_Ï_ÌÌ_È_ËÂÌÚ_119-6);}.cls-19{fill:url(#_ÂÁ_Ï_ÌÌ_È_ËÂÌÚ_111-9);}.cls-20{fill:url(#_ÂÁ_Ï_ÌÌ_È_ËÂÌÚ_111-10);}.cls-21{fill:url(#_ÂÁ_Ï_ÌÌ_È_ËÂÌÚ_119-7);}.cls-22{fill:url(#_ÂÁ_Ï_ÌÌ_È_ËÂÌÚ_111-11);}.cls-23{fill:url(#_ÂÁ_Ï_ÌÌ_È_ËÂÌÚ_119-8);}.cls-24{fill:url(#_ÂÁ_Ï_ÌÌ_È_ËÂÌÚ_111-12);}.cls-25{fill:url(#_ÂÁ_Ï_ÌÌ_È_ËÂÌÚ_119-9);}.cls-26{fill:url(#_ÂÁ_Ï_ÌÌ_È_ËÂÌÚ_111-13);}.cls-27{fill:url(#_ÂÁ_Ï_ÌÌ_È_ËÂÌÚ_111-14);}.cls-28{fill:url(#_ÂÁ_Ï_ÌÌ_È_ËÂÌÚ_119-10);}.cls-29{fill:url(#_ÂÁ_Ï_ÌÌ_È_ËÂÌÚ_111-15);}.cls-30{fill:url(#_ÂÁ_Ï_ÌÌ_È_ËÂÌÚ_119-11);}.cls-31{fill:url(#_ÂÁ_Ï_ÌÌ_È_ËÂÌÚ_111-16);}.cls-32{fill:url(#_ÂÁ_Ï_ÌÌ_È_ËÂÌÚ_119-12);}.cls-33{fill:url(#_ÂÁ_Ï_ÌÌ_È_ËÂÌÚ_111-17);}.cls-34{fill:url(#_ÂÁ_Ï_ÌÌ_È_ËÂÌÚ_111-18);}.cls-35{fill:url(#_ÂÁ_Ï_ÌÌ_È_ËÂÌÚ_119-13);}.cls-36{fill:url(#_ÂÁ_Ï_ÌÌ_È_ËÂÌÚ_111-19);}.cls-37{fill:url(#_ÂÁ_Ï_ÌÌ_È_ËÂÌÚ_111-20);}.cls-38{fill:url(#_ÂÁ_Ï_ÌÌ_È_ËÂÌÚ_119-14);}.cls-39{fill:url(#_ÂÁ_Ï_ÌÌ_È_ËÂÌÚ_119-15);}.cls-40{fill:#170c2a;}.cls-41{fill:url(#_ÂÁ_Ï_ÌÌ_È_ËÂÌÚ_111-21);}.cls-42{fill:url(#_ÂÁ_Ï_ÌÌ_È_ËÂÌÚ_58);}.cls-43{fill:url(#_ÂÁ_Ï_ÌÌ_È_ËÂÌÚ_111-22);}.cls-44{fill:#a7a5f9;}.cls-45{fill:url(#_ÂÁ_Ï_ÌÌ_È_ËÂÌÚ_111-23);}.cls-46{fill:#bebbf8;}.cls-47{fill:#5c49cc;opacity:0.09;mix-blend-mode:multiply;}.cls-48{opacity:0.24;fill:url(#_ÂÁ_Ï_ÌÌ_È_ËÂÌÚ_111-24);}.cls-49{fill:url(#_ÂÁ_Ï_ÌÌ_È_ËÂÌÚ_119-16);}.cls-50{fill:url(#_ÂÁ_Ï_ÌÌ_È_ËÂÌÚ_111-25);}.cls-51{fill:url(#_ÂÁ_Ï_ÌÌ_È_ËÂÌÚ_119-17);}.cls-52{fill:url(#_ÂÁ_Ï_ÌÌ_È_ËÂÌÚ_119-18);}.cls-53,.cls-87{opacity:0.6;}.cls-53{fill:url(#_ÂÁ_Ï_ÌÌ_È_ËÂÌÚ_119-19);}.cls-54{fill:url(#_ÂÁ_Ï_ÌÌ_È_ËÂÌÚ_119-20);}.cls-55{fill:url(#_ÂÁ_Ï_ÌÌ_È_ËÂÌÚ_119-21);}.cls-56{fill:url(#_ÂÁ_Ï_ÌÌ_È_ËÂÌÚ_119-22);}.cls-58{fill:url(#_ÂÁ_Ï_ÌÌ_È_ËÂÌÚ_111-26);}.cls-59{fill:url(#_ÂÁ_Ï_ÌÌ_È_ËÂÌÚ_111-27);}.cls-60{fill:url(#_ÂÁ_Ï_ÌÌ_È_ËÂÌÚ_111-28);}.cls-61{fill:#f0588d;}.cls-62{fill:url(#_ÂÁ_Ï_ÌÌ_È_ËÂÌÚ_111-29);}.cls-63{fill:url(#_ÂÁ_Ï_ÌÌ_È_ËÂÌÚ_111-30);}.cls-64{fill:url(#_ÂÁ_Ï_ÌÌ_È_ËÂÌÚ_111-31);}.cls-65{fill:url(#_ÂÁ_Ï_ÌÌ_È_ËÂÌÚ_111-32);}.cls-66{fill:url(#_ÂÁ_Ï_ÌÌ_È_ËÂÌÚ_111-33);}.cls-67{fill:url(#_ÂÁ_Ï_ÌÌ_È_ËÂÌÚ_111-34);}.cls-68{fill:url(#_ÂÁ_Ï_ÌÌ_È_ËÂÌÚ_111-35);}.cls-69{fill:url(#_ÂÁ_Ï_ÌÌ_È_ËÂÌÚ_111-36);}.cls-70{fill:url(#_ÂÁ_Ï_ÌÌ_È_ËÂÌÚ_111-37);}.cls-71{fill:url(#_ÂÁ_Ï_ÌÌ_È_ËÂÌÚ_111-38);}.cls-72{fill:url(#_ÂÁ_Ï_ÌÌ_È_ËÂÌÚ_111-39);}.cls-73{fill:url(#_ÂÁ_Ï_ÌÌ_È_ËÂÌÚ_111-40);}.cls-74{fill:url(#_ÂÁ_Ï_ÌÌ_È_ËÂÌÚ_111-41);}.cls-75{fill:url(#_ÂÁ_Ï_ÌÌ_È_ËÂÌÚ_111-42);}.cls-76{fill:url(#_ÂÁ_Ï_ÌÌ_È_ËÂÌÚ_111-43);}.cls-77{fill:url(#_ÂÁ_Ï_ÌÌ_È_ËÂÌÚ_111-44);}.cls-78{fill:url(#_ÂÁ_Ï_ÌÌ_È_ËÂÌÚ_111-45);}.cls-79{fill:url(#_ÂÁ_Ï_ÌÌ_È_ËÂÌÚ_111-46);}.cls-80{fill:url(#_ÂÁ_Ï_ÌÌ_È_ËÂÌÚ_111-47);}.cls-81{fill:url(#_ÂÁ_Ï_ÌÌ_È_ËÂÌÚ_111-48);}.cls-82{fill:url(#_ÂÁ_Ï_ÌÌ_È_ËÂÌÚ_111-49);}.cls-83{fill:url(#_ÂÁ_Ï_ÌÌ_È_ËÂÌÚ_111-50);}.cls-84{fill:url(#_ÂÁ_Ï_ÌÌ_È_ËÂÌÚ_111-51);}.cls-85{fill:url(#_ÂÁ_Ï_ÌÌ_È_ËÂÌÚ_111-52);}.cls-86{fill:url(#_ÂÁ_Ï_ÌÌ_È_ËÂÌÚ_111-53);}.cls-87{fill:url(#_ÂÁ_Ï_ÌÌ_È_ËÂÌÚ_119-23);}.cls-88{fill:url(#_ÂÁ_Ï_ÌÌ_È_ËÂÌÚ_111-54);}.cls-89{fill:url(#_ÂÁ_Ï_ÌÌ_È_ËÂÌÚ_111-55);}.cls-91{fill:url(#_ÂÁ_Ï_ÌÌ_È_ËÂÌÚ_111-56);}.cls-92{fill:url(#_ÂÁ_Ï_ÌÌ_È_ËÂÌÚ_111-57);}.cls-93{fill:url(#_ÂÁ_Ï_ÌÌ_È_ËÂÌÚ_111-58);}.cls-94{fill:url(#_ÂÁ_Ï_ÌÌ_È_ËÂÌÚ_111-59);}.cls-95{fill:url(#_ÂÁ_Ï_ÌÌ_È_ËÂÌÚ_111-60);}.cls-96{fill:url(#_ÂÁ_Ï_ÌÌ_È_ËÂÌÚ_111-61);}.cls-97{fill:url(#_ÂÁ_Ï_ÌÌ_È_ËÂÌÚ_111-62);}.cls-98{fill:url(#_ÂÁ_Ï_ÌÌ_È_ËÂÌÚ_111-63);}.cls-99{fill:url(#_ÂÁ_Ï_ÌÌ_È_ËÂÌÚ_111-64);}.cls-100{fill:url(#_ÂÁ_Ï_ÌÌ_È_ËÂÌÚ_111-65);}.cls-101{fill:url(#_ÂÁ_Ï_ÌÌ_È_ËÂÌÚ_111-66);}.cls-102{fill:url(#_ÂÁ_Ï_ÌÌ_È_ËÂÌÚ_111-67);}.cls-103{fill:url(#_ÂÁ_Ï_ÌÌ_È_ËÂÌÚ_111-68);}.cls-104{fill:url(#_ÂÁ_Ï_ÌÌ_È_ËÂÌÚ_111-69);}.cls-105{fill:url(#_ÂÁ_Ï_ÌÌ_È_ËÂÌÚ_111-70);}.cls-106{opacity:0.33;}.cls-107{fill:url(#_ÂÁ_Ï_ÌÌ_È_ËÂÌÚ_111-71);}.cls-108{fill:url(#_ÂÁ_Ï_ÌÌ_È_ËÂÌÚ_111-72);}.cls-109{fill:url(#_ÂÁ_Ï_ÌÌ_È_ËÂÌÚ_111-73);}</style>
    <linearGradient id="_ÂÁ_Ï_ÌÌ_È_ËÂÌÚ_111" y1="86.73" x2="152.02" y2="86.73" gradientUnits="userSpaceOnUse">
      <stop offset="0" stop-color="#d9d5ff"></stop>
      <stop offset="1" stop-color="#f9f9ff"></stop>
    </linearGradient>
    <linearGradient id="_ÂÁ_Ï_ÌÌ_È_ËÂÌÚ_111-2" x1="190.46" y1="240.57" x2="304.6" y2="240.57" xlink:href="#_ÂÁ_Ï_ÌÌ_È_ËÂÌÚ_111"></linearGradient>
    <linearGradient id="_ÂÁ_Ï_ÌÌ_È_ËÂÌÚ_111-3" x1="218.05" y1="50.15" x2="218.05" y2="36.88" xlink:href="#_ÂÁ_Ï_ÌÌ_È_ËÂÌÚ_111"></linearGradient>
    <linearGradient id="_ÂÁ_Ï_ÌÌ_È_ËÂÌÚ_111-4" x1="206.7" y1="108.37" x2="206.7" y2="10.79" xlink:href="#_ÂÁ_Ï_ÌÌ_È_ËÂÌÚ_111"></linearGradient>
    <linearGradient id="_ÂÁ_Ï_ÌÌ_È_ËÂÌÚ_119" x1="172.27" y1="1.38" x2="232.13" y2="1.38" gradientUnits="userSpaceOnUse">
      <stop offset="0" stop-color="#c1c0ff"></stop>
      <stop offset="1" stop-color="#d7d5ff"></stop>
    </linearGradient>
    <linearGradient id="_ÂÁ_Ï_ÌÌ_È_ËÂÌÚ_111-5" x1="195.18" y1="23.39" x2="195.18" y2="10.12" xlink:href="#_ÂÁ_Ï_ÌÌ_È_ËÂÌÚ_111"></linearGradient>
    <linearGradient id="_ÂÁ_Ï_ÌÌ_È_ËÂÌÚ_119-2" x1="229.81" y1="23.43" x2="229.81" y2="10.16" xlink:href="#_ÂÁ_Ï_ÌÌ_È_ËÂÌÚ_119"></linearGradient>
    <linearGradient id="_ÂÁ_Ï_ÌÌ_È_ËÂÌÚ_119-3" x1="183.41" y1="50.15" x2="183.41" y2="36.88" xlink:href="#_ÂÁ_Ï_ÌÌ_È_ËÂÌÚ_119"></linearGradient>
    <linearGradient id="_ÂÁ_Ï_ÌÌ_È_ËÂÌÚ_111-6" x1="206.61" y1="32.74" x2="206.61" y2="27.49" xlink:href="#_ÂÁ_Ï_ÌÌ_È_ËÂÌÚ_111"></linearGradient>
    <linearGradient id="_ÂÁ_Ï_ÌÌ_È_ËÂÌÚ_119-4" x1="195.18" y1="55.91" x2="195.18" y2="54.35" xlink:href="#_ÂÁ_Ï_ÌÌ_È_ËÂÌÚ_119"></linearGradient>
    <linearGradient id="_ÂÁ_Ï_ÌÌ_È_ËÂÌÚ_111-7" x1="195.18" y1="60.21" x2="195.18" y2="58.65" xlink:href="#_ÂÁ_Ï_ÌÌ_È_ËÂÌÚ_111"></linearGradient>
    <linearGradient id="_ÂÁ_Ï_ÌÌ_È_ËÂÌÚ_111-8" x1="195.18" y1="64.5" x2="195.18" y2="62.94" xlink:href="#_ÂÁ_Ï_ÌÌ_È_ËÂÌÚ_111"></linearGradient>
    <linearGradient id="_ÂÁ_Ï_ÌÌ_È_ËÂÌÚ_119-5" x1="195.18" y1="68.8" x2="195.18" y2="67.24" xlink:href="#_ÂÁ_Ï_ÌÌ_È_ËÂÌÚ_119"></linearGradient>
    <linearGradient id="_ÂÁ_Ï_ÌÌ_È_ËÂÌÚ_119-6" x1="195.18" y1="73.09" x2="195.18" y2="71.53" xlink:href="#_ÂÁ_Ï_ÌÌ_È_ËÂÌÚ_119"></linearGradient>
    <linearGradient id="_ÂÁ_Ï_ÌÌ_È_ËÂÌÚ_111-9" x1="195.18" y1="77.39" x2="195.18" y2="75.83" xlink:href="#_ÂÁ_Ï_ÌÌ_È_ËÂÌÚ_111"></linearGradient>
    <linearGradient id="_ÂÁ_Ï_ÌÌ_È_ËÂÌÚ_111-10" x1="195.18" y1="81.68" x2="195.18" y2="80.12" xlink:href="#_ÂÁ_Ï_ÌÌ_È_ËÂÌÚ_111"></linearGradient>
    <linearGradient id="_ÂÁ_Ï_ÌÌ_È_ËÂÌÚ_119-7" x1="195.18" y1="85.98" x2="195.18" y2="84.42" xlink:href="#_ÂÁ_Ï_ÌÌ_È_ËÂÌÚ_119"></linearGradient>
    <linearGradient id="_ÂÁ_Ï_ÌÌ_È_ËÂÌÚ_111-11" x1="195.18" y1="90.27" x2="195.18" y2="88.71" xlink:href="#_ÂÁ_Ï_ÌÌ_È_ËÂÌÚ_111"></linearGradient>
    <linearGradient id="_ÂÁ_Ï_ÌÌ_È_ËÂÌÚ_119-8" x1="195.18" y1="94.57" x2="195.18" y2="93.01" xlink:href="#_ÂÁ_Ï_ÌÌ_È_ËÂÌÚ_119"></linearGradient>
    <linearGradient id="_ÂÁ_Ï_ÌÌ_È_ËÂÌÚ_111-12" x1="195.18" y1="98.86" x2="195.18" y2="97.3" xlink:href="#_ÂÁ_Ï_ÌÌ_È_ËÂÌÚ_111"></linearGradient>
    <linearGradient id="_ÂÁ_Ï_ÌÌ_È_ËÂÌÚ_119-9" x1="195.18" y1="103.16" x2="195.18" y2="101.6" xlink:href="#_ÂÁ_Ï_ÌÌ_È_ËÂÌÚ_119"></linearGradient>
    <linearGradient id="_ÂÁ_Ï_ÌÌ_È_ËÂÌÚ_111-13" x1="195.18" y1="107.45" x2="195.18" y2="105.89" xlink:href="#_ÂÁ_Ï_ÌÌ_È_ËÂÌÚ_111"></linearGradient>
    <linearGradient id="_ÂÁ_Ï_ÌÌ_È_ËÂÌÚ_111-14" x1="229.81" y1="55.91" x2="229.81" y2="54.35" xlink:href="#_ÂÁ_Ï_ÌÌ_È_ËÂÌÚ_111"></linearGradient>
    <linearGradient id="_ÂÁ_Ï_ÌÌ_È_ËÂÌÚ_119-10" x1="229.81" y1="60.21" x2="229.81" y2="58.65" xlink:href="#_ÂÁ_Ï_ÌÌ_È_ËÂÌÚ_119"></linearGradient>
    <linearGradient id="_ÂÁ_Ï_ÌÌ_È_ËÂÌÚ_111-15" x1="229.81" y1="64.5" x2="229.81" y2="62.94" xlink:href="#_ÂÁ_Ï_ÌÌ_È_ËÂÌÚ_111"></linearGradient>
    <linearGradient id="_ÂÁ_Ï_ÌÌ_È_ËÂÌÚ_119-11" x1="229.81" y1="68.8" x2="229.81" y2="67.24" xlink:href="#_ÂÁ_Ï_ÌÌ_È_ËÂÌÚ_119"></linearGradient>
    <linearGradient id="_ÂÁ_Ï_ÌÌ_È_ËÂÌÚ_111-16" x1="229.81" y1="73.09" x2="229.81" y2="71.53" xlink:href="#_ÂÁ_Ï_ÌÌ_È_ËÂÌÚ_111"></linearGradient>
    <linearGradient id="_ÂÁ_Ï_ÌÌ_È_ËÂÌÚ_119-12" x1="229.81" y1="77.39" x2="229.81" y2="75.83" xlink:href="#_ÂÁ_Ï_ÌÌ_È_ËÂÌÚ_119"></linearGradient>
    <linearGradient id="_ÂÁ_Ï_ÌÌ_È_ËÂÌÚ_111-17" x1="229.81" y1="81.68" x2="229.81" y2="80.12" xlink:href="#_ÂÁ_Ï_ÌÌ_È_ËÂÌÚ_111"></linearGradient>
    <linearGradient id="_ÂÁ_Ï_ÌÌ_È_ËÂÌÚ_111-18" x1="229.81" y1="85.98" x2="229.81" y2="84.42" xlink:href="#_ÂÁ_Ï_ÌÌ_È_ËÂÌÚ_111"></linearGradient>
    <linearGradient id="_ÂÁ_Ï_ÌÌ_È_ËÂÌÚ_119-13" x1="229.81" y1="90.27" x2="229.81" y2="88.71" xlink:href="#_ÂÁ_Ï_ÌÌ_È_ËÂÌÚ_119"></linearGradient>
    <linearGradient id="_ÂÁ_Ï_ÌÌ_È_ËÂÌÚ_111-19" x1="229.81" y1="94.57" x2="229.81" y2="93.01" xlink:href="#_ÂÁ_Ï_ÌÌ_È_ËÂÌÚ_111"></linearGradient>
    <linearGradient id="_ÂÁ_Ï_ÌÌ_È_ËÂÌÚ_111-20" x1="229.81" y1="98.86" x2="229.81" y2="97.3" xlink:href="#_ÂÁ_Ï_ÌÌ_È_ËÂÌÚ_111"></linearGradient>
    <linearGradient id="_ÂÁ_Ï_ÌÌ_È_ËÂÌÚ_119-14" x1="229.81" y1="103.16" x2="229.81" y2="101.6" xlink:href="#_ÂÁ_Ï_ÌÌ_È_ËÂÌÚ_119"></linearGradient>
    <linearGradient id="_ÂÁ_Ï_ÌÌ_È_ËÂÌÚ_119-15" x1="229.81" y1="107.45" x2="229.81" y2="105.89" xlink:href="#_ÂÁ_Ï_ÌÌ_È_ËÂÌÚ_119"></linearGradient>
    <linearGradient id="_ÂÁ_Ï_ÌÌ_È_ËÂÌÚ_111-21" x1="15.97" y1="216.08" x2="286.5" y2="216.08" xlink:href="#_ÂÁ_Ï_ÌÌ_È_ËÂÌÚ_111"></linearGradient>
    <linearGradient id="_ÂÁ_Ï_ÌÌ_È_ËÂÌÚ_58" x1="248.85" y1="87.63" x2="15.85" y2="202.63" gradientUnits="userSpaceOnUse">
      <stop offset="0" stop-color="#fa5293"></stop>
      <stop offset="1" stop-color="#502870"></stop>
    </linearGradient>
    <linearGradient id="_ÂÁ_Ï_ÌÌ_È_ËÂÌÚ_111-22" x1="117.73" y1="244.24" x2="184.73" y2="244.24" xlink:href="#_ÂÁ_Ï_ÌÌ_È_ËÂÌÚ_111"></linearGradient>
    <linearGradient id="_ÂÁ_Ï_ÌÌ_È_ËÂÌÚ_111-23" x1="151.23" y1="258.43" x2="151.23" y2="345.11" xlink:href="#_ÂÁ_Ï_ÌÌ_È_ËÂÌÚ_111"></linearGradient>
    <linearGradient id="_ÂÁ_Ï_ÌÌ_È_ËÂÌÚ_111-24" x1="213.85" y1="175.91" x2="213.85" y2="98.62" xlink:href="#_ÂÁ_Ï_ÌÌ_È_ËÂÌÚ_111"></linearGradient>
    <linearGradient id="_ÂÁ_Ï_ÌÌ_È_ËÂÌÚ_119-16" x1="163.31" y1="91.01" x2="251.19" y2="91.01" xlink:href="#_ÂÁ_Ï_ÌÌ_È_ËÂÌÚ_119"></linearGradient>
    <linearGradient id="_ÂÁ_Ï_ÌÌ_È_ËÂÌÚ_111-25" x1="81.6" y1="185.92" x2="81.6" y2="63.63" xlink:href="#_ÂÁ_Ï_ÌÌ_È_ËÂÌÚ_111"></linearGradient>
    <linearGradient id="_ÂÁ_Ï_ÌÌ_È_ËÂÌÚ_119-17" x1="36.23" y1="51.75" x2="115.12" y2="51.75" xlink:href="#_ÂÁ_Ï_ÌÌ_È_ËÂÌÚ_119"></linearGradient>
    <linearGradient id="_ÂÁ_Ï_ÌÌ_È_ËÂÌÚ_119-18" x1="245.85" y1="106.94" x2="245.85" y2="108.6" xlink:href="#_ÂÁ_Ï_ÌÌ_È_ËÂÌÚ_119"></linearGradient>
    <linearGradient id="_ÂÁ_Ï_ÌÌ_È_ËÂÌÚ_119-19" x1="245.85" y1="95.89" x2="245.85" y2="70.92" xlink:href="#_ÂÁ_Ï_ÌÌ_È_ËÂÌÚ_119"></linearGradient>
    <linearGradient id="_ÂÁ_Ï_ÌÌ_È_ËÂÌÚ_119-20" x1="245.82" y1="98.56" x2="245.82" y2="99.15" xlink:href="#_ÂÁ_Ï_ÌÌ_È_ËÂÌÚ_119"></linearGradient>
    <linearGradient id="_ÂÁ_Ï_ÌÌ_È_ËÂÌÚ_119-21" x1="245.82" y1="101.07" x2="245.82" y2="101.65" xlink:href="#_ÂÁ_Ï_ÌÌ_È_ËÂÌÚ_119"></linearGradient>
    <linearGradient id="_ÂÁ_Ï_ÌÌ_È_ËÂÌÚ_119-22" x1="245.82" y1="103.75" x2="245.82" y2="104.33" xlink:href="#_ÂÁ_Ï_ÌÌ_È_ËÂÌÚ_119"></linearGradient>
    <linearGradient id="_ÂÁ_Ï_ÌÌ_È_ËÂÌÚ_111-26" x1="68.04" y1="249.81" x2="76.88" y2="249.81" xlink:href="#_ÂÁ_Ï_ÌÌ_È_ËÂÌÚ_111"></linearGradient>
    <linearGradient id="_ÂÁ_Ï_ÌÌ_È_ËÂÌÚ_111-27" x1="79.63" y1="249.42" x2="88.34" y2="249.42" xlink:href="#_ÂÁ_Ï_ÌÌ_È_ËÂÌÚ_111"></linearGradient>
    <linearGradient id="_ÂÁ_Ï_ÌÌ_È_ËÂÌÚ_111-28" x1="90.9" y1="249.81" x2="99.74" y2="249.81" xlink:href="#_ÂÁ_Ï_ÌÌ_È_ËÂÌÚ_111"></linearGradient>
    <linearGradient id="_ÂÁ_Ï_ÌÌ_È_ËÂÌÚ_111-29" x1="124.69" y1="96.03" x2="138.1" y2="96.03" xlink:href="#_ÂÁ_Ï_ÌÌ_È_ËÂÌÚ_111"></linearGradient>
    <linearGradient id="_ÂÁ_Ï_ÌÌ_È_ËÂÌÚ_111-30" x1="56.9" y1="89.16" x2="70.31" y2="89.16" xlink:href="#_ÂÁ_Ï_ÌÌ_È_ËÂÌÚ_111"></linearGradient>
    <linearGradient id="_ÂÁ_Ï_ÌÌ_È_ËÂÌÚ_111-31" x1="61.5" y1="151.75" x2="83.1" y2="151.75" xlink:href="#_ÂÁ_Ï_ÌÌ_È_ËÂÌÚ_111"></linearGradient>
    <linearGradient id="_ÂÁ_Ï_ÌÌ_È_ËÂÌÚ_111-32" x1="55.23" y1="156.91" x2="90.85" y2="156.91" xlink:href="#_ÂÁ_Ï_ÌÌ_È_ËÂÌÚ_111"></linearGradient>
    <linearGradient id="_ÂÁ_Ï_ÌÌ_È_ËÂÌÚ_111-33" x1="72.75" y1="108.43" x2="138.1" y2="108.43" xlink:href="#_ÂÁ_Ï_ÌÌ_È_ËÂÌÚ_111"></linearGradient>
    <linearGradient id="_ÂÁ_Ï_ÌÌ_È_ËÂÌÚ_111-34" x1="92.07" y1="135.27" x2="120.6" y2="135.27" xlink:href="#_ÂÁ_Ï_ÌÌ_È_ËÂÌÚ_111"></linearGradient>
    <linearGradient id="_ÂÁ_Ï_ÌÌ_È_ËÂÌÚ_111-35" x1="82.86" y1="96.03" x2="119.86" y2="96.03" xlink:href="#_ÂÁ_Ï_ÌÌ_È_ËÂÌÚ_111"></linearGradient>
    <linearGradient id="_ÂÁ_Ï_ÌÌ_È_ËÂÌÚ_111-36" x1="72.75" y1="114.39" x2="90.26" y2="114.39" xlink:href="#_ÂÁ_Ï_ÌÌ_È_ËÂÌÚ_111"></linearGradient>
    <linearGradient id="_ÂÁ_Ï_ÌÌ_È_ËÂÌÚ_111-37" x1="75.61" y1="89.16" x2="100.33" y2="89.16" xlink:href="#_ÂÁ_Ï_ÌÌ_È_ËÂÌÚ_111"></linearGradient>
    <linearGradient id="_ÂÁ_Ï_ÌÌ_È_ËÂÌÚ_111-38" x1="118.81" y1="146.41" x2="147.35" y2="146.41" xlink:href="#_ÂÁ_Ï_ÌÌ_È_ËÂÌÚ_111"></linearGradient>
    <linearGradient id="_ÂÁ_Ï_ÌÌ_È_ËÂÌÚ_111-39" x1="55.23" y1="162.03" x2="96.28" y2="162.03" xlink:href="#_ÂÁ_Ï_ÌÌ_È_ËÂÌÚ_111"></linearGradient>
    <linearGradient id="_ÂÁ_Ï_ÌÌ_È_ËÂÌÚ_111-40" x1="61.1" y1="135.27" x2="88.47" y2="135.27" xlink:href="#_ÂÁ_Ï_ÌÌ_È_ËÂÌÚ_111"></linearGradient>
    <linearGradient id="_ÂÁ_Ï_ÌÌ_È_ËÂÌÚ_111-41" x1="124.41" y1="135.27" x2="138.92" y2="135.27" xlink:href="#_ÂÁ_Ï_ÌÌ_È_ËÂÌÚ_111"></linearGradient>
    <linearGradient id="_ÂÁ_Ï_ÌÌ_È_ËÂÌÚ_111-42" x1="61.1" y1="140.52" x2="75.61" y2="140.52" xlink:href="#_ÂÁ_Ï_ÌÌ_È_ËÂÌÚ_111"></linearGradient>
    <linearGradient id="_ÂÁ_Ï_ÌÌ_È_ËÂÌÚ_111-43" x1="111.76" y1="156.91" x2="138.92" y2="156.91" xlink:href="#_ÂÁ_Ï_ÌÌ_È_ËÂÌÚ_111"></linearGradient>
    <linearGradient id="_ÂÁ_Ï_ÌÌ_È_ËÂÌÚ_111-44" x1="94.11" y1="156.91" x2="108.61" y2="156.91" xlink:href="#_ÂÁ_Ï_ÌÌ_È_ËÂÌÚ_111"></linearGradient>
    <linearGradient id="_ÂÁ_Ï_ÌÌ_È_ËÂÌÚ_111-45" x1="61.5" y1="166.66" x2="76.01" y2="166.66" xlink:href="#_ÂÁ_Ï_ÌÌ_È_ËÂÌÚ_111"></linearGradient>
    <linearGradient id="_ÂÁ_Ï_ÌÌ_È_ËÂÌÚ_111-46" x1="42.6" y1="177.7" x2="45.35" y2="177.7" xlink:href="#_ÂÁ_Ï_ÌÌ_È_ËÂÌÚ_111"></linearGradient>
    <linearGradient id="_ÂÁ_Ï_ÌÌ_È_ËÂÌÚ_111-47" x1="52.34" y1="123.41" x2="81.6" y2="123.41" xlink:href="#_ÂÁ_Ï_ÌÌ_È_ËÂÌÚ_111"></linearGradient>
    <linearGradient id="_ÂÁ_Ï_ÌÌ_È_ËÂÌÚ_111-48" x1="87.34" y1="151.75" x2="129.6" y2="151.75" xlink:href="#_ÂÁ_Ï_ÌÌ_È_ËÂÌÚ_111"></linearGradient>
    <linearGradient id="_ÂÁ_Ï_ÌÌ_È_ËÂÌÚ_111-49" x1="85.7" y1="123.41" x2="141.1" y2="123.41" xlink:href="#_ÂÁ_Ï_ÌÌ_È_ËÂÌÚ_111"></linearGradient>
    <linearGradient id="_ÂÁ_Ï_ÌÌ_È_ËÂÌÚ_111-50" x1="71.08" y1="146.41" x2="114.97" y2="146.41" xlink:href="#_ÂÁ_Ï_ÌÌ_È_ËÂÌÚ_111"></linearGradient>
    <linearGradient id="_ÂÁ_Ï_ÌÌ_È_ËÂÌÚ_111-51" x1="52.34" y1="128.74" x2="96.23" y2="128.74" xlink:href="#_ÂÁ_Ï_ÌÌ_È_ËÂÌÚ_111"></linearGradient>
    <linearGradient id="_ÂÁ_Ï_ÌÌ_È_ËÂÌÚ_111-52" x1="55.23" y1="103" x2="145.43" y2="103" xlink:href="#_ÂÁ_Ï_ÌÌ_È_ËÂÌÚ_111"></linearGradient>
    <linearGradient id="_ÂÁ_Ï_ÌÌ_È_ËÂÌÚ_111-53" x1="52.48" y1="82.86" x2="145.43" y2="82.86" xlink:href="#_ÂÁ_Ï_ÌÌ_È_ËÂÌÚ_111"></linearGradient>
    <linearGradient id="_ÂÁ_Ï_ÌÌ_È_ËÂÌÚ_119-23" x1="161.6" y1="182.46" x2="197.87" y2="182.46" xlink:href="#_ÂÁ_Ï_ÌÌ_È_ËÂÌÚ_119"></linearGradient>
    <linearGradient id="_ÂÁ_Ï_ÌÌ_È_ËÂÌÚ_111-54" x1="178.2" y1="123.97" x2="178.2" y2="105.56" xlink:href="#_ÂÁ_Ï_ÌÌ_È_ËÂÌÚ_111"></linearGradient>
    <linearGradient id="_ÂÁ_Ï_ÌÌ_È_ËÂÌÚ_111-55" x1="213.38" y1="123.97" x2="213.38" y2="105.56" xlink:href="#_ÂÁ_Ï_ÌÌ_È_ËÂÌÚ_111"></linearGradient>
    <linearGradient id="_ÂÁ_Ï_ÌÌ_È_ËÂÌÚ_111-56" x1="164.48" y1="129.99" x2="191.92" y2="129.99" xlink:href="#_ÂÁ_Ï_ÌÌ_È_ËÂÌÚ_111"></linearGradient>
    <linearGradient id="_ÂÁ_Ï_ÌÌ_È_ËÂÌÚ_111-57" x1="164.48" y1="131.34" x2="191.92" y2="131.34" xlink:href="#_ÂÁ_Ï_ÌÌ_È_ËÂÌÚ_111"></linearGradient>
    <linearGradient id="_ÂÁ_Ï_ÌÌ_È_ËÂÌÚ_111-58" x1="164.48" y1="132.73" x2="171.52" y2="132.73" xlink:href="#_ÂÁ_Ï_ÌÌ_È_ËÂÌÚ_111"></linearGradient>
    <linearGradient id="_ÂÁ_Ï_ÌÌ_È_ËÂÌÚ_111-59" x1="164.48" y1="139.76" x2="227.1" y2="139.76" xlink:href="#_ÂÁ_Ï_ÌÌ_È_ËÂÌÚ_111"></linearGradient>
    <linearGradient id="_ÂÁ_Ï_ÌÌ_È_ËÂÌÚ_111-60" x1="164.48" y1="141.93" x2="227.1" y2="141.93" xlink:href="#_ÂÁ_Ï_ÌÌ_È_ËÂÌÚ_111"></linearGradient>
    <linearGradient id="_ÂÁ_Ï_ÌÌ_È_ËÂÌÚ_111-61" x1="164.48" y1="144.17" x2="227.1" y2="144.17" xlink:href="#_ÂÁ_Ï_ÌÌ_È_ËÂÌÚ_111"></linearGradient>
    <linearGradient id="_ÂÁ_Ï_ÌÌ_È_ËÂÌÚ_111-62" x1="164.48" y1="146.25" x2="227.1" y2="146.25" xlink:href="#_ÂÁ_Ï_ÌÌ_È_ËÂÌÚ_111"></linearGradient>
    <linearGradient id="_ÂÁ_Ï_ÌÌ_È_ËÂÌÚ_111-63" x1="164.48" y1="148.68" x2="192.31" y2="148.68" xlink:href="#_ÂÁ_Ï_ÌÌ_È_ËÂÌÚ_111"></linearGradient>
    <linearGradient id="_ÂÁ_Ï_ÌÌ_È_ËÂÌÚ_111-64" x1="164.48" y1="153.33" x2="227.1" y2="153.33" xlink:href="#_ÂÁ_Ï_ÌÌ_È_ËÂÌÚ_111"></linearGradient>
    <linearGradient id="_ÂÁ_Ï_ÌÌ_È_ËÂÌÚ_111-65" x1="164.48" y1="155.58" x2="227.1" y2="155.58" xlink:href="#_ÂÁ_Ï_ÌÌ_È_ËÂÌÚ_111"></linearGradient>
    <linearGradient id="_ÂÁ_Ï_ÌÌ_È_ËÂÌÚ_111-66" x1="164.48" y1="157.65" x2="227.1" y2="157.65" xlink:href="#_ÂÁ_Ï_ÌÌ_È_ËÂÌÚ_111"></linearGradient>
    <linearGradient id="_ÂÁ_Ï_ÌÌ_È_ËÂÌÚ_111-67" x1="164.48" y1="160.08" x2="205.05" y2="160.08" xlink:href="#_ÂÁ_Ï_ÌÌ_È_ËÂÌÚ_111"></linearGradient>
    <linearGradient id="_ÂÁ_Ï_ÌÌ_È_ËÂÌÚ_111-68" x1="199.66" y1="129.97" x2="227.1" y2="129.97" xlink:href="#_ÂÁ_Ï_ÌÌ_È_ËÂÌÚ_111"></linearGradient>
    <linearGradient id="_ÂÁ_Ï_ÌÌ_È_ËÂÌÚ_111-69" x1="199.66" y1="131.31" x2="227.1" y2="131.31" xlink:href="#_ÂÁ_Ï_ÌÌ_È_ËÂÌÚ_111"></linearGradient>
    <linearGradient id="_ÂÁ_Ï_ÌÌ_È_ËÂÌÚ_111-70" x1="199.66" y1="132.71" x2="206.7" y2="132.71" xlink:href="#_ÂÁ_Ï_ÌÌ_È_ËÂÌÚ_111"></linearGradient>
    <linearGradient id="_ÂÁ_Ï_ÌÌ_È_ËÂÌÚ_111-71" x1="142.91" y1="36.95" x2="145.43" y2="36.95" xlink:href="#_ÂÁ_Ï_ÌÌ_È_ËÂÌÚ_111"></linearGradient>
    <linearGradient id="_ÂÁ_Ï_ÌÌ_È_ËÂÌÚ_111-72" x1="138.1" y1="36.95" x2="140.62" y2="36.95" xlink:href="#_ÂÁ_Ï_ÌÌ_È_ËÂÌÚ_111"></linearGradient>
    <linearGradient id="_ÂÁ_Ï_ÌÌ_È_ËÂÌÚ_111-73" x1="133.28" y1="36.95" x2="135.81" y2="36.95" xlink:href="#_ÂÁ_Ï_ÌÌ_È_ËÂÌÚ_111"></linearGradient>
  </defs>
  <g class="cls-1">
    <g id="Layer_2" data-name="Layer 2">
      <g id="_ÎÓÈ_1" data-name="—ÎÓÈ_1">
        <rect class="cls-2" y="36.95" width="152.02" height="99.54"></rect>
        <rect class="cls-3" x="190.46" y="236.87" width="114.13" height="7.39"></rect>
        <g class="cls-4">
          <rect class="cls-5" x="196.4" y="35.92" width="43.31" height="15.32"></rect>
          <rect class="cls-6" x="167.7" y="2.75" width="77.98" height="110.57"></rect>
          <path class="cls-7" d="M168.79,0H244.6a1.09,1.09,0,0,1,1.09,1.09V2.75a0,0,0,0,1,0,0h-78a0,0,0,0,1,0,0V1.09A1.09,1.09,0,0,1,168.79,0Z"></path>
          <path class="cls-8" d="M169.8,1.38a.47.47,0,0,1,.46-.46.46.46,0,0,1,.45.46.45.45,0,0,1-.45.45A.46.46,0,0,1,169.8,1.38Z"></path>
          <path class="cls-8" d="M171.21,1.38a.46.46,0,0,1,.45-.46.47.47,0,0,1,.46.46.46.46,0,0,1-.46.45A.45.45,0,0,1,171.21,1.38Z"></path>
          <path class="cls-8" d="M172.61,1.38a.47.47,0,0,1,.46-.46.46.46,0,0,1,.45.46.45.45,0,0,1-.45.45A.46.46,0,0,1,172.61,1.38Z"></path>
          <rect class="cls-9" x="173.52" y="9.16" width="43.31" height="15.32"></rect>
          <rect class="cls-10" x="219.92" y="9.2" width="19.78" height="15.32"></rect>
          <rect class="cls-11" x="173.52" y="35.92" width="19.78" height="15.32"></rect>
          <rect class="cls-12" x="173.52" y="27.11" width="66.18" height="6.06"></rect>
          <g class="cls-13">
            <rect class="cls-14" x="173.52" y="54.24" width="43.31" height="1.8"></rect>
            <rect class="cls-15" x="173.52" y="58.53" width="43.31" height="1.8"></rect>
            <rect class="cls-16" x="173.52" y="62.83" width="43.31" height="1.8"></rect>
            <rect class="cls-17" x="173.52" y="67.12" width="43.31" height="1.8"></rect>
            <rect class="cls-18" x="173.52" y="71.42" width="43.31" height="1.8"></rect>
            <rect class="cls-19" x="173.52" y="75.71" width="43.31" height="1.8"></rect>
            <rect class="cls-20" x="173.52" y="80.01" width="43.31" height="1.8"></rect>
            <rect class="cls-21" x="173.52" y="84.3" width="43.31" height="1.8"></rect>
            <rect class="cls-22" x="173.52" y="88.6" width="43.31" height="1.8"></rect>
            <rect class="cls-23" x="173.52" y="92.89" width="43.31" height="1.8"></rect>
            <rect class="cls-24" x="173.52" y="97.19" width="43.31" height="1.8"></rect>
            <rect class="cls-25" x="173.52" y="101.48" width="43.31" height="1.8"></rect>
            <rect class="cls-26" x="173.52" y="105.78" width="43.31" height="1.8"></rect>
          </g>
          <g class="cls-13">
            <rect class="cls-27" x="219.92" y="54.24" width="19.78" height="1.8"></rect>
            <rect class="cls-28" x="219.92" y="58.53" width="19.78" height="1.8"></rect>
            <rect class="cls-29" x="219.92" y="62.83" width="19.78" height="1.8"></rect>
            <rect class="cls-30" x="219.92" y="67.12" width="19.78" height="1.8"></rect>
            <rect class="cls-31" x="219.92" y="71.42" width="19.78" height="1.8"></rect>
            <rect class="cls-32" x="219.92" y="75.71" width="19.78" height="1.8"></rect>
            <rect class="cls-33" x="219.92" y="80.01" width="19.78" height="1.8"></rect>
            <rect class="cls-34" x="219.92" y="84.3" width="19.78" height="1.8"></rect>
            <rect class="cls-35" x="219.92" y="88.6" width="19.78" height="1.8"></rect>
            <rect class="cls-36" x="219.92" y="92.89" width="19.78" height="1.8"></rect>
            <rect class="cls-37" x="219.92" y="97.19" width="19.78" height="1.8"></rect>
            <rect class="cls-38" x="219.92" y="101.48" width="19.78" height="1.8"></rect>
            <rect class="cls-39" x="219.92" y="105.78" width="19.78" height="1.8"></rect>
          </g>
          <path class="cls-8" d="M186.62,19.47a2.84,2.84,0,0,1-1.13-1.07,3.13,3.13,0,0,1,0-3.1,2.93,2.93,0,0,1,1.13-1.08,3.46,3.46,0,0,1,1.62-.38,3.52,3.52,0,0,1,1.37.26,2.82,2.82,0,0,1,1,.77l-.87.8a1.83,1.83,0,0,0-1.46-.68,2,2,0,0,0-1,.23,1.74,1.74,0,0,0-.66.66,2,2,0,0,0-.24,1,1.9,1.9,0,0,0,.24,1,1.7,1.7,0,0,0,.66.67,2.07,2.07,0,0,0,1,.23,1.84,1.84,0,0,0,1.46-.69l.87.8a2.58,2.58,0,0,1-1,.77,3.56,3.56,0,0,1-3-.12Z"></path>
          <path class="cls-8" d="M193.07,19.67a3,3,0,0,1-1-.48l.46-1a3.22,3.22,0,0,0,.89.44,3.42,3.42,0,0,0,1,.17,1.67,1.67,0,0,0,.85-.17.54.54,0,0,0,.28-.46.44.44,0,0,0-.17-.34,1.06,1.06,0,0,0-.41-.22,5.52,5.52,0,0,0-.69-.18,10.1,10.1,0,0,1-1.09-.32,1.83,1.83,0,0,1-.73-.51,1.37,1.37,0,0,1-.3-.93,1.58,1.58,0,0,1,.28-.92,1.82,1.82,0,0,1,.82-.65,3.4,3.4,0,0,1,1.35-.24,4.34,4.34,0,0,1,1.09.13,3.49,3.49,0,0,1,.94.38l-.42,1a3.21,3.21,0,0,0-1.61-.46,1.54,1.54,0,0,0-.84.18.55.55,0,0,0-.27.48.48.48,0,0,0,.31.45,5.25,5.25,0,0,0,.95.29,9.11,9.11,0,0,1,1.09.31,1.77,1.77,0,0,1,.73.5,1.36,1.36,0,0,1,.31.92,1.66,1.66,0,0,1-.28.92,1.94,1.94,0,0,1-.84.65,3.41,3.41,0,0,1-1.36.24A4.55,4.55,0,0,1,193.07,19.67Z"></path>
          <path class="cls-8" d="M199.38,19.67a3,3,0,0,1-1-.48l.46-1a3.08,3.08,0,0,0,.89.44,3.37,3.37,0,0,0,1,.17,1.72,1.72,0,0,0,.85-.17.53.53,0,0,0,.27-.46.43.43,0,0,0-.16-.34,1.19,1.19,0,0,0-.42-.22,5.29,5.29,0,0,0-.68-.18,8.89,8.89,0,0,1-1.09-.32,1.7,1.7,0,0,1-.73-.51,1.37,1.37,0,0,1-.3-.93,1.65,1.65,0,0,1,.27-.92,1.85,1.85,0,0,1,.83-.65,3.4,3.4,0,0,1,1.35-.24A4.45,4.45,0,0,1,202,14a3.42,3.42,0,0,1,.93.38l-.41,1a3.22,3.22,0,0,0-1.62-.46,1.5,1.5,0,0,0-.83.18.55.55,0,0,0-.27.48.48.48,0,0,0,.31.45,5,5,0,0,0,.95.29,9.69,9.69,0,0,1,1.09.31,1.84,1.84,0,0,1,.73.5,1.36,1.36,0,0,1,.3.92,1.58,1.58,0,0,1-.28.92,1.85,1.85,0,0,1-.83.65,3.48,3.48,0,0,1-1.36.24A4.55,4.55,0,0,1,199.38,19.67Z"></path>
          <path class="cls-8" d="M212.18,41a2,2,0,0,1,0,3.7,3.27,3.27,0,0,1-1.34.26h-1.17v1.6h-1.35V40.7h2.52A3.27,3.27,0,0,1,212.18,41Zm-.49,2.6a.93.93,0,0,0,.31-.75.92.92,0,0,0-.31-.75,1.39,1.39,0,0,0-.93-.26h-1.09v2h1.09A1.45,1.45,0,0,0,211.69,43.56Z"></path>
          <path class="cls-8" d="M220.66,40.7v5.82h-1.34V44.14h-2.65v2.38h-1.35V40.7h1.35V43h2.65V40.7Z"></path>
          <path class="cls-8" d="M226.91,41a1.91,1.91,0,0,1,.87.73,2.18,2.18,0,0,1,0,2.24,1.91,1.91,0,0,1-.87.73,3.28,3.28,0,0,1-1.35.26h-1.17v1.6H223V40.7h2.52A3.28,3.28,0,0,1,226.91,41Zm-.5,2.6a.94.94,0,0,0,.32-.75.92.92,0,0,0-.32-.75,1.38,1.38,0,0,0-.92-.26h-1.1v2h1.1A1.44,1.44,0,0,0,226.41,43.56Z"></path>
        </g>
        <path class="cls-40" d="M286.5,205.84V67.61A6.53,6.53,0,0,0,280,61.08H22.5A6.53,6.53,0,0,0,16,67.61V205.84Z"></path>
        <path class="cls-41" d="M16,205.17v15.29A6.53,6.53,0,0,0,22.5,227H280a6.53,6.53,0,0,0,6.53-6.52V205.17Z"></path>
        <rect class="cls-42" x="21.47" y="66.45" width="259.52" height="138.72"></rect>
        <path class="cls-43" d="M184.73,261.5h-67a12.21,12.21,0,0,0,5-9.86V227h57v24.66A12.24,12.24,0,0,0,184.73,261.5Z"></path>
        <rect class="cls-44" x="122.73" y="226.98" width="57" height="9.89"></rect>
        <path class="cls-45" d="M195.07,267.17H107.4a5.67,5.67,0,0,1,5.67-5.67H189.4a5.67,5.67,0,0,1,5.67,5.67Z"></path>
        <path class="cls-46" d="M147.23,216.08a4,4,0,1,1,4,4A4,4,0,0,1,147.23,216.08Z"></path>
        <polygon class="cls-47" points="21.47 205.17 281 205.17 281 66.45 21.47 205.17 21.47 205.17"></polygon>
        <rect class="cls-48" x="156.61" y="93.03" width="114.49" height="89.26"></rect>
        <path class="cls-49" d="M158.2,89H269.5a1.59,1.59,0,0,1,1.59,1.59V93a0,0,0,0,1,0,0H156.61a0,0,0,0,1,0,0V90.59A1.59,1.59,0,0,1,158.2,89Z"></path>
        <circle class="cls-8" cx="160.36" cy="91.01" r="0.67"></circle>
        <circle class="cls-8" cx="162.42" cy="91.01" r="0.67"></circle>
        <circle class="cls-8" cx="164.48" cy="91.01" r="0.67"></circle>
        <rect class="cls-50" x="30.21" y="53.57" width="102.78" height="138.55"></rect>
        <path class="cls-51" d="M31.64,49.94h99.92A1.43,1.43,0,0,1,133,51.37v2.2a0,0,0,0,1,0,0H30.21a0,0,0,0,1,0,0v-2.2A1.43,1.43,0,0,1,31.64,49.94Z"></path>
        <path class="cls-8" d="M33,51.75a.6.6,0,1,1,.6.6A.6.6,0,0,1,33,51.75Z"></path>
        <path class="cls-8" d="M34.83,51.75a.6.6,0,1,1,.59.6A.59.59,0,0,1,34.83,51.75Z"></path>
        <path class="cls-8" d="M36.68,51.75a.6.6,0,0,1,.6-.6.6.6,0,0,1,0,1.2A.6.6,0,0,1,36.68,51.75Z"></path>
        <path class="cls-52" d="M239.64,105.39h12.41a0,0,0,0,1,0,0v.95A1.65,1.65,0,0,1,250.4,108h-9.11a1.65,1.65,0,0,1-1.65-1.65v-.95A0,0,0,0,1,239.64,105.39Z"></path>
        <path class="cls-53" d="M270,65.58a24.11,24.11,0,1,0-38.84,19.06,15,15,0,0,1,6,11.85v.45h17.38V96.5a14.88,14.88,0,0,1,6-11.79A24,24,0,0,0,270,65.58Z"></path>
        <path class="cls-8" d="M237.09,96.94h17.5a0,0,0,0,1,0,0v8.32a1,1,0,0,1-1,1H238.1a1,1,0,0,1-1-1V96.94A0,0,0,0,1,237.09,96.94Z"></path>
        <rect class="cls-54" x="236.47" y="98.23" width="18.71" height="1.14" rx="0.56"></rect>
        <rect class="cls-55" x="236.47" y="100.74" width="18.71" height="1.14" rx="0.56"></rect>
        <rect class="cls-56" x="236.47" y="103.42" width="18.71" height="1.14" rx="0.56"></rect>
        <g class="cls-57">
          <path class="cls-58" d="M76.88,247.55l-6.19,2.26,6.19,2.25v2.32L68,251v-2.41l8.84-3.36Z"></path>
          <path class="cls-59" d="M85.76,240.68h2.58l-6.13,17.49H79.63Z"></path>
          <path class="cls-60" d="M99.74,248.61V251l-8.84,3.36v-2.32l6.19-2.25-6.19-2.26v-2.3Z"></path>
        </g>
        <rect class="cls-61" x="42.6" y="94.83" width="37" height="2.41"></rect>
        <rect class="cls-61" x="96.28" y="113.19" width="22.74" height="2.41"></rect>
        <rect class="cls-61" x="42.6" y="122.21" width="5.5" height="2.41"></rect>
        <rect class="cls-61" x="42.6" y="81.66" width="5.5" height="2.41"></rect>
        <rect class="cls-61" x="52.48" y="145.2" width="15.24" height="2.41"></rect>
        <rect class="cls-61" x="99.22" y="127.54" width="5.5" height="2.41"></rect>
        <rect class="cls-61" x="42.6" y="155.7" width="9.74" height="2.41"></rect>
        <rect class="cls-62" x="124.69" y="94.83" width="13.41" height="2.41"></rect>
        <rect class="cls-63" x="56.9" y="87.96" width="13.41" height="2.41"></rect>
        <rect class="cls-64" x="61.5" y="150.54" width="21.59" height="2.41"></rect>
        <rect class="cls-65" x="55.23" y="155.7" width="35.61" height="2.41"></rect>
        <rect class="cls-66" x="72.75" y="107.23" width="65.35" height="2.41"></rect>
        <rect class="cls-67" x="92.07" y="134.06" width="28.53" height="2.41"></rect>
        <rect class="cls-68" x="82.86" y="94.83" width="37" height="2.41"></rect>
        <rect class="cls-69" x="72.75" y="113.19" width="17.51" height="2.41"></rect>
        <rect class="cls-70" x="75.61" y="87.96" width="24.73" height="2.41"></rect>
        <rect class="cls-71" x="118.81" y="145.2" width="28.54" height="2.41"></rect>
        <rect class="cls-72" x="55.23" y="160.83" width="41.05" height="2.41"></rect>
        <rect class="cls-73" x="61.1" y="134.06" width="27.38" height="2.41"></rect>
        <rect class="cls-74" x="124.41" y="134.06" width="14.51" height="2.41"></rect>
        <rect class="cls-75" x="61.1" y="139.31" width="14.51" height="2.41"></rect>
        <rect class="cls-76" x="111.76" y="155.7" width="27.15" height="2.41"></rect>
        <rect class="cls-77" x="94.11" y="155.7" width="14.51" height="2.41"></rect>
        <rect class="cls-78" x="61.5" y="165.45" width="14.51" height="2.41"></rect>
        <rect class="cls-79" x="42.6" y="176.5" width="2.75" height="2.41"></rect>
        <rect class="cls-80" x="52.34" y="122.21" width="29.26" height="2.41"></rect>
        <rect class="cls-81" x="87.34" y="150.54" width="42.25" height="2.41"></rect>
        <rect class="cls-82" x="85.7" y="122.21" width="55.39" height="2.41"></rect>
        <rect class="cls-83" x="71.08" y="145.2" width="43.89" height="2.41"></rect>
        <rect class="cls-84" x="52.34" y="127.54" width="43.89" height="2.41"></rect>
        <rect class="cls-85" x="55.23" y="101.79" width="90.2" height="2.41"></rect>
        <rect class="cls-86" x="52.48" y="81.66" width="92.95" height="2.41"></rect>
        <rect class="cls-8" x="36.68" y="81.66" width="1.2" height="97.25"></rect>
        <path class="cls-87" d="M195.69,179.37a16.31,16.31,0,0,0-2.49-6l1.19-1.71-3.84-3.85-1.72,1.2a16.07,16.07,0,0,0-6-2.49l-.35-2.18H177l-.35,2.18a16.07,16.07,0,0,0-6,2.49l-1.72-1.2-3.84,3.85,1.19,1.71a16.14,16.14,0,0,0-2.49,6l-2.18.35v5.48l2.18.35a16.14,16.14,0,0,0,2.49,6l-1.19,1.71,3.84,3.85,1.72-1.2a16.07,16.07,0,0,0,6,2.49l.35,2.18h5.47l.35-2.18a16.07,16.07,0,0,0,6-2.49l1.72,1.2,3.84-3.85-1.19-1.71a16.31,16.31,0,0,0,2.49-6l2.18-.35v-5.48Zm-16,9.73a6.64,6.64,0,1,1,6.65-6.64A6.64,6.64,0,0,1,179.73,189.1Z"></path>
        <polygon class="cls-8" points="246.1 182.71 203.62 182.71 203.62 182.21 245.6 182.21 245.6 112.03 246.1 112.03 246.1 182.71"></polygon>
        <path class="cls-8" d="M205.1,72.36h-2.62a.66.66,0,1,1,0-1.31h2.62a.66.66,0,0,1,0,1.31Zm-7.87,0h-2.62a.66.66,0,0,1,0-1.31h2.62a.66.66,0,1,1,0,1.31Zm-7.86,0h-2.63a.66.66,0,0,1,0-1.31h2.63a.66.66,0,0,1,0,1.31Zm-7.87,0h-2.62a.66.66,0,1,1,0-1.31h2.62a.66.66,0,0,1,0,1.31Zm-7.87,0H171a.66.66,0,1,1,0-1.31h2.62a.66.66,0,1,1,0,1.31Zm-7.86,0h-2.63a.66.66,0,0,1,0-1.31h2.63a.66.66,0,0,1,0,1.31Zm-7.87,0h-2.62a.66.66,0,1,1,0-1.31h2.62a.66.66,0,0,1,0,1.31Zm-7.87,0h-2.62a.66.66,0,1,1,0-1.31H150a.66.66,0,1,1,0,1.31Zm-7.86,0h-2.63a.66.66,0,0,1,0-1.31h2.63a.66.66,0,0,1,0,1.31Zm-7.87,0h-2.62a.66.66,0,1,1,0-1.31h2.62a.66.66,0,0,1,0,1.31Zm-7.87,0h-2.62a.66.66,0,1,1,0-1.31h2.62a.66.66,0,1,1,0,1.31Zm-7.86,0h-2.63a.66.66,0,0,1,0-1.31h2.63a.66.66,0,0,1,0,1.31Zm-7.87,0h-2.62a.66.66,0,1,1,0-1.31h2.62a.66.66,0,0,1,0,1.31Zm-7.87,0h-2.62a.66.66,0,1,1,0-1.31h2.62a.66.66,0,1,1,0,1.31Zm-7.86,0H92.34a.66.66,0,0,1,0-1.31H95a.66.66,0,0,1,0,1.31Zm-7.87,0H84.48a.66.66,0,1,1,0-1.31H87.1a.66.66,0,0,1,0,1.31Zm-7.87,0H76.61a.66.66,0,1,1,0-1.31h2.62a.66.66,0,1,1,0,1.31Zm-7.86,0H68.74a.66.66,0,0,1,0-1.31h2.63a.66.66,0,0,1,0,1.31Zm-7.87,0H60.88a.66.66,0,1,1,0-1.31H63.5a.66.66,0,0,1,0,1.31Zm-7.87,0H53a.66.66,0,1,1,0-1.31h2.62a.66.66,0,1,1,0,1.31Zm-7.86,0H45.14a.66.66,0,0,1,0-1.31h2.63a.66.66,0,0,1,0,1.31Zm-7.87,0H37.28a.66.66,0,1,1,0-1.31H39.9a.66.66,0,0,1,0,1.31Z"></path>
        <rect class="cls-88" x="164.48" y="104.23" width="27.44" height="21.26"></rect>
        <rect class="cls-89" x="199.66" y="104.23" width="27.44" height="21.26"></rect>
        <g class="cls-90">
          <rect class="cls-91" x="164.48" y="129.65" width="27.44" height="0.69"></rect>
          <rect class="cls-92" x="164.48" y="130.99" width="27.44" height="0.69"></rect>
          <rect class="cls-93" x="164.48" y="132.38" width="7.03" height="0.69"></rect>
        </g>
        <g class="cls-90">
          <rect class="cls-94" x="164.48" y="139.21" width="62.62" height="1.12"></rect>
          <rect class="cls-95" x="164.48" y="141.37" width="62.62" height="1.12"></rect>
          <rect class="cls-96" x="164.48" y="143.61" width="62.62" height="1.12"></rect>
          <rect class="cls-97" x="164.48" y="145.69" width="62.62" height="1.12"></rect>
          <rect class="cls-98" x="164.48" y="148.12" width="27.83" height="1.12"></rect>
        </g>
        <g class="cls-90">
          <rect class="cls-99" x="164.48" y="152.77" width="62.62" height="1.12"></rect>
          <rect class="cls-100" x="164.48" y="155.02" width="62.62" height="1.12"></rect>
          <rect class="cls-101" x="164.48" y="157.09" width="62.62" height="1.12"></rect>
          <rect class="cls-102" x="164.48" y="159.52" width="40.57" height="1.12"></rect>
        </g>
        <g class="cls-90">
          <rect class="cls-103" x="199.66" y="129.62" width="27.44" height="0.69"></rect>
          <rect class="cls-104" x="199.66" y="130.96" width="27.44" height="0.69"></rect>
          <rect class="cls-105" x="199.66" y="132.36" width="7.03" height="0.69"></rect>
        </g>
        <path class="cls-106" d="M164.44,104.16v21.4H192v-21.4ZM178,114.86l-13.31,10.32V104.54Zm-13.07-10.45h26.54L178.2,114.7ZM178.2,115l13.26,10.29H164.93Zm.2-.16,13.3-10.32v20.64Z"></path>
        <path class="cls-106" d="M199.62,104.16v21.4h27.51v-21.4Zm13.56,10.7-13.31,10.32V104.54Zm-13.07-10.45h26.53L213.38,114.7ZM213.38,115l13.26,10.29H200.11Zm.2-.16,13.3-10.32v20.64Z"></path>
        <rect class="cls-8" x="244.59" y="181.2" width="2.52" height="2.52"></rect>
        <rect class="cls-107" x="142.91" y="35.69" width="2.52" height="2.52"></rect>
        <rect class="cls-108" x="138.1" y="35.69" width="2.52" height="2.52"></rect>
        <rect class="cls-109" x="133.28" y="35.69" width="2.52" height="2.52"></rect>
        <rect class="cls-8" x="244.59" y="110.77" width="2.52" height="2.52"></rect>
        <rect class="cls-8" x="202.36" y="181.2" width="2.52" height="2.52"></rect>
      </g>
    </g>
  </g>
</svg>
