<?xml version="1.0" encoding="UTF-8"?>
<svg xmlns="http://www.w3.org/2000/svg" xmlns:xlink="http://www.w3.org/1999/xlink" viewBox="0 0 521.89 343.8">
  <defs>
    <style>.cls-1{isolation:isolate;}.cls-2,.cls-3{opacity:0.19;}.cls-2{fill:url(#_ÂÁ_Ï_ÌÌ_È_ËÂÌÚ_141);}.cls-15,.cls-3,.cls-31,.cls-5{mix-blend-mode:multiply;}.cls-3{fill:url(#_ÂÁ_Ï_ÌÌ_È_ËÂÌÚ_141-2);}.cls-32,.cls-4{fill:#d3deef;}.cls-15,.cls-5{opacity:0.33;}.cls-5{fill:url(#_ÂÁ_Ï_ÌÌ_È_ËÂÌÚ_7);}.cls-6{fill:#8d95b2;}.cls-7{fill:url(#_ÂÁ_Ï_ÌÌ_È_ËÂÌÚ_7-2);}.cls-8{fill:#f1f2f2;}.cls-9{fill:url(#_ÂÁ_Ï_ÌÌ_È_ËÂÌÚ_3);}.cls-10{fill:#fff;}.cls-11{fill:#fdfeff;}.cls-12{fill:#afb5c6;}.cls-13{fill:#727d96;}.cls-14{fill:url(#_ÂÁ_Ï_ÌÌ_È_ËÂÌÚ_7-3);}.cls-15{fill:url(#_ÂÁ_Ï_ÌÌ_È_ËÂÌÚ_7-4);}.cls-16{fill:url(#_ÂÁ_Ï_ÌÌ_È_ËÂÌÚ_91);}.cls-17{fill:url(#_ÂÁ_Ï_ÌÌ_È_ËÂÌÚ_91-2);}.cls-18{fill:#fcb17a;}.cls-19{fill:url(#_ÂÁ_Ï_ÌÌ_È_ËÂÌÚ_24);}.cls-20{fill:url(#_ÂÁ_Ï_ÌÌ_È_ËÂÌÚ_24-2);}.cls-21{fill:url(#_ÂÁ_Ï_ÌÌ_È_ËÂÌÚ_2);}.cls-22{fill:url(#_ÂÁ_Ï_ÌÌ_È_ËÂÌÚ_91-3);}.cls-23{fill:url(#_ÂÁ_Ï_ÌÌ_È_ËÂÌÚ_24-3);}.cls-24{fill:url(#_ÂÁ_Ï_ÌÌ_È_ËÂÌÚ_7-5);}.cls-25{fill:url(#_ÂÁ_Ï_ÌÌ_È_ËÂÌÚ_24-4);}.cls-26{fill:url(#_ÂÁ_Ï_ÌÌ_È_ËÂÌÚ_7-6);}.cls-27{fill:url(#_ÂÁ_Ï_ÌÌ_È_ËÂÌÚ_24-5);}.cls-28{fill:url(#_ÂÁ_Ï_ÌÌ_È_ËÂÌÚ_2-2);}.cls-29{fill:#99a7c2;}.cls-30{fill:url(#_ÂÁ_Ï_ÌÌ_È_ËÂÌÚ_7-7);}.cls-31{opacity:0.21;fill:url(#_ÂÁ_Ï_ÌÌ_È_ËÂÌÚ_7-8);}.cls-32{opacity:0.46;}</style>
    <linearGradient id="_ÂÁ_Ï_ÌÌ_È_ËÂÌÚ_141" x1="1262.47" y1="171.9" x2="1772.47" y2="171.9" gradientTransform="matrix(-1, 0, 0, 1, 1772.47, 0)" gradientUnits="userSpaceOnUse">
      <stop offset="0" stop-color="#dadaf6"></stop>
      <stop offset="1" stop-color="#ac92eb"></stop>
    </linearGradient>
    <linearGradient id="_ÂÁ_Ï_ÌÌ_È_ËÂÌÚ_141-2" x1="90.01" y1="240.82" x2="508.27" y2="104.23" gradientTransform="matrix(1, 0, 0, 1, 0, 0)" xlink:href="#_ÂÁ_Ï_ÌÌ_È_ËÂÌÚ_141"></linearGradient>
    <linearGradient id="_ÂÁ_Ï_ÌÌ_È_ËÂÌÚ_7" x1="48.21" y1="182.21" x2="127.04" y2="182.21" gradientUnits="userSpaceOnUse">
      <stop offset="0" stop-color="#66217c"></stop>
      <stop offset="1" stop-color="#d3417f"></stop>
    </linearGradient>
    <linearGradient id="_ÂÁ_Ï_ÌÌ_È_ËÂÌÚ_7-2" x1="300.63" y1="28.92" x2="484.84" y2="28.92" xlink:href="#_ÂÁ_Ï_ÌÌ_È_ËÂÌÚ_7"></linearGradient>
    <linearGradient id="_ÂÁ_Ï_ÌÌ_È_ËÂÌÚ_3" x1="424.59" y1="-55.21" x2="424.59" y2="248.07" gradientUnits="userSpaceOnUse">
      <stop offset="0" stop-color="#d9eefb"></stop>
      <stop offset="0.31" stop-color="#dff0fc"></stop>
      <stop offset="0.7" stop-color="#eef8fd"></stop>
      <stop offset="1" stop-color="#fff"></stop>
    </linearGradient>
    <linearGradient id="_ÂÁ_Ï_ÌÌ_È_ËÂÌÚ_7-3" x1="142.47" y1="114.75" x2="247.83" y2="114.75" xlink:href="#_ÂÁ_Ï_ÌÌ_È_ËÂÌÚ_7"></linearGradient>
    <linearGradient id="_ÂÁ_Ï_ÌÌ_È_ËÂÌÚ_7-4" x1="166.3" y1="100.36" x2="219.78" y2="100.36" xlink:href="#_ÂÁ_Ï_ÌÌ_È_ËÂÌÚ_7"></linearGradient>
    <linearGradient id="_ÂÁ_Ï_ÌÌ_È_ËÂÌÚ_91" x1="186.03" y1="262.36" x2="315.55" y2="262.36" gradientUnits="userSpaceOnUse">
      <stop offset="0" stop-color="#bbdefb"></stop>
      <stop offset="1" stop-color="#adcaea"></stop>
    </linearGradient>
    <linearGradient id="_ÂÁ_Ï_ÌÌ_È_ËÂÌÚ_91-2" x1="360.66" y1="262.36" x2="434.53" y2="262.36" xlink:href="#_ÂÁ_Ï_ÌÌ_È_ËÂÌÚ_91"></linearGradient>
    <linearGradient id="_ÂÁ_Ï_ÌÌ_È_ËÂÌÚ_24" x1="309.37" y1="181.31" x2="376.04" y2="282.31" gradientUnits="userSpaceOnUse">
      <stop offset="0" stop-color="#2d1c6a"></stop>
      <stop offset="1" stop-color="#52238d"></stop>
    </linearGradient>
    <linearGradient id="_ÂÁ_Ï_ÌÌ_È_ËÂÌÚ_24-2" x1="288.47" y1="54.08" x2="333.76" y2="54.08" xlink:href="#_ÂÁ_Ï_ÌÌ_È_ËÂÌÚ_24"></linearGradient>
    <linearGradient id="_ÂÁ_Ï_ÌÌ_È_ËÂÌÚ_2" x1="321.2" y1="103.4" x2="250.37" y2="101.57" gradientUnits="userSpaceOnUse">
      <stop offset="0" stop-color="#6e86f4"></stop>
      <stop offset="0.79" stop-color="#80aef5"></stop>
      <stop offset="1" stop-color="#85b9f5"></stop>
    </linearGradient>
    <linearGradient id="_ÂÁ_Ï_ÌÌ_È_ËÂÌÚ_91-3" x1="314.68" y1="129.24" x2="401.27" y2="129.24" xlink:href="#_ÂÁ_Ï_ÌÌ_È_ËÂÌÚ_91"></linearGradient>
    <linearGradient id="_ÂÁ_Ï_ÌÌ_È_ËÂÌÚ_24-3" x1="317.98" y1="270.73" x2="283.98" y2="178.4" xlink:href="#_ÂÁ_Ï_ÌÌ_È_ËÂÌÚ_24"></linearGradient>
    <linearGradient id="_ÂÁ_Ï_ÌÌ_È_ËÂÌÚ_7-5" x1="267.27" y1="295.89" x2="317.34" y2="295.89" xlink:href="#_ÂÁ_Ï_ÌÌ_È_ËÂÌÚ_7"></linearGradient>
    <linearGradient id="_ÂÁ_Ï_ÌÌ_È_ËÂÌÚ_24-4" x1="268.18" y1="305.87" x2="318.2" y2="305.87" xlink:href="#_ÂÁ_Ï_ÌÌ_È_ËÂÌÚ_24"></linearGradient>
    <linearGradient id="_ÂÁ_Ï_ÌÌ_È_ËÂÌÚ_7-6" x1="154.25" y1="259.75" x2="203.5" y2="259.75" xlink:href="#_ÂÁ_Ï_ÌÌ_È_ËÂÌÚ_7"></linearGradient>
    <linearGradient id="_ÂÁ_Ï_ÌÌ_È_ËÂÌÚ_24-5" x1="152.4" y1="263.18" x2="195.54" y2="263.18" xlink:href="#_ÂÁ_Ï_ÌÌ_È_ËÂÌÚ_24"></linearGradient>
    <linearGradient id="_ÂÁ_Ï_ÌÌ_È_ËÂÌÚ_2-2" x1="363.37" y1="117.89" x2="257.28" y2="116.07" xlink:href="#_ÂÁ_Ï_ÌÌ_È_ËÂÌÚ_2"></linearGradient>
    <linearGradient id="_ÂÁ_Ï_ÌÌ_È_ËÂÌÚ_7-7" x1="144.22" y1="236.45" x2="401.74" y2="236.45" xlink:href="#_ÂÁ_Ï_ÌÌ_È_ËÂÌÚ_7"></linearGradient>
    <linearGradient id="_ÂÁ_Ï_ÌÌ_È_ËÂÌÚ_7-8" x1="84.26" y1="35.46" x2="195.43" y2="35.46" xlink:href="#_ÂÁ_Ï_ÌÌ_È_ËÂÌÚ_7"></linearGradient>
  </defs>
  <g class="cls-1">
    <g id="Layer_2" data-name="Layer 2">
      <g id="_ÎÓÈ_1" data-name="—ÎÓÈ_1">
        <path class="cls-2" d="M507.3,270.47c8.19-24.48-2.49-64.76-28.79-86.77C450.27,160.08,411.72,156,374.67,143c-35.22-12.42-46.94-31.42-69.36-56.94s-44.18-52.57-76-70.11-77.18-23.07-107.5-3.82C101.65,24.9,91.91,45.89,87,66.41S81,108.1,73.54,128.1c-8,21.58-23.09,40.84-37.43,60.09S7.76,227.41,2.24,249.51,1,296.51,19.6,313.1c25.32,22.57,68.39,23.56,105,17.39s75.29-19.8,112.48-16.78c33.88,2.74,50.35,11.5,82.34,21.05s73.85,13.63,110.65,1.61C464.92,325,497.07,301,507.3,270.47Z"></path>
        <path class="cls-3" d="M196.39,324.13c-53-14.59-100-43.54-132.14-81.32C47.42,223,34.41,200.22,32.69,176.05c-2.68-37.61,22.85-73.8,58.07-97.7C145.85,41,225.88,30.62,292.14,52.28c22.48,7.35,43.35,18,66.52,23.75,29.76,7.32,62.18,6.1,91,15.58,38.27,12.58,65.63,44,71.09,77.72s-9.89,68.84-37.9,93.8c-27.52,24.53-65,39-101.94,51.21-16.84,5.57-29.39,13.21-47.6,16.32a320.81,320.81,0,0,1-65,4.34A313.06,313.06,0,0,1,196.39,324.13Z"></path>
        <path class="cls-4" d="M117.49,268.59a37.38,37.38,0,0,0,16.62-30.15c.32-19.47-14.53-36.28-16.47-55.65-1-10.21,1.63-20.36,3.47-30.45s2.83-20.87-1.25-30.27a20.1,20.1,0,0,0-6.54-8.56,12.15,12.15,0,0,0-10.34-2c-4.86,1.48-7.92,6.56-8.53,11.6s.75,10.1,2.18,15,3,9.85,2.65,14.92c-.82,14.27-15.39,24.73-16.73,38.95-.66,7,2,14.07,1,21-1.25,8.34-7.57,15-10.73,22.78-4.43,11-1.83,25.84,7.09,34C89.13,278.27,108,274.81,117.49,268.59Z"></path>
        <path class="cls-5" d="M52.48,263.63a27.68,27.68,0,0,1-2.62-24.18c2.42-6.56,7.23-11.89,11.49-17.44s8.19-11.86,8.33-18.85C70,189,55.12,178.91,52.07,165.07c-3.79-17.25,11.61-33.82,9.78-51.38-.41-3.88-1.65-7.63-2.14-11.5s-.09-8.11,2.37-11.13c3.68-4.51,10.9-4.68,16-1.82,9.24,5.22,12,17.37,11.25,28s-4.07,21-3.1,31.6c1.32,14.38,10.3,26.77,19.21,38.14s18.37,23.19,21,37.39a43.64,43.64,0,0,1-12.33,38.48c-10,9.64-19.23,12.94-32.28,14.18a38.07,38.07,0,0,1-15-2.22A27.92,27.92,0,0,1,52.48,263.63Z"></path>
        <polygon class="cls-6" points="99.47 317.61 72.13 317.61 65.55 285.3 104.88 285.3 99.47 317.61"></polygon>
        <path class="cls-6" d="M84.61,286.87C78,259.28,83,241.44,87,227.1c2.45-8.68,4.56-16.18,3.64-24-1.39-11.81-6.94-18.44-12.3-24.86-4.06-4.84-7.89-9.42-9.51-15.83-2.7-10.63,1-18.41,4.3-25.28a52.93,52.93,0,0,0,3.32-8c2.58-8.93-2.79-20.24-2.84-20.35l1.11-.54c.23.48,5.63,11.85,2.92,21.24a55.32,55.32,0,0,1-3.4,8.18c-3.19,6.68-6.8,14.25-4.21,24.44,1.55,6.14,5.29,10.61,9.25,15.35,5.23,6.25,11.16,13.33,12.59,25.51.94,8-1.2,15.64-3.68,24.44-4,14.2-9,31.87-2.41,59.15Z"></path>
        <path class="cls-7" d="M358.49,22.1h132.2A6.27,6.27,0,0,1,497,28.37v7.38a0,0,0,0,1,0,0H352.23a0,0,0,0,1,0,0V28.37A6.27,6.27,0,0,1,358.49,22.1Z"></path>
        <path class="cls-8" d="M368.71,29.23a1.88,1.88,0,1,1-1.88-1.88A1.88,1.88,0,0,1,368.71,29.23Z"></path>
        <path class="cls-8" d="M374.77,29.23a1.88,1.88,0,1,1-1.88-1.88A1.88,1.88,0,0,1,374.77,29.23Z"></path>
        <path class="cls-8" d="M380.83,29.23A1.88,1.88,0,1,1,379,27.35,1.88,1.88,0,0,1,380.83,29.23Z"></path>
        <rect class="cls-9" x="352.23" y="35.75" width="144.73" height="162.59"></rect>
        <rect class="cls-10" x="364.96" y="46.97" width="56.32" height="4.85"></rect>
        <rect class="cls-10" x="364.96" y="60.66" width="88.21" height="2.63"></rect>
        <rect class="cls-10" x="364.96" y="72.19" width="53.96" height="2.63"></rect>
        <rect class="cls-10" x="364.96" y="66.43" width="25.14" height="2.63"></rect>
        <rect class="cls-10" x="393.17" y="66.43" width="42.47" height="2.63"></rect>
        <rect class="cls-10" x="439.03" y="66.43" width="14.14" height="2.63"></rect>
        <rect class="cls-11" x="365.81" y="151.93" width="52.97" height="23.45"></rect>
        <rect class="cls-11" x="425.25" y="151.93" width="52.97" height="23.45"></rect>
        <rect class="cls-11" x="365.85" y="124.94" width="52.97" height="23.45"></rect>
        <rect class="cls-11" x="425.29" y="124.94" width="52.97" height="23.45"></rect>
        <rect class="cls-11" x="365.89" y="97.95" width="52.97" height="23.45"></rect>
        <rect class="cls-11" x="425.33" y="97.95" width="52.97" height="23.45"></rect>
        <path class="cls-12" d="M220.75,82.37H142.14a3.81,3.81,0,0,0-3.61,5l18.92,57a4,4,0,0,0,3.81,2.75h81Z"></path>
        <rect class="cls-13" x="163.95" y="147.12" width="117.54" height="6.93"></rect>
        <rect class="cls-12" x="163.95" y="147.12" width="44.15" height="6.93"></rect>
        <polygon class="cls-14" points="226.34 82.37 142.47 82.37 163.95 147.12 247.83 147.12 226.34 82.37"></polygon>
        <path class="cls-15" d="M195.53,68H169.74a3.44,3.44,0,0,0-3.26,4.52l19,57.34a4.2,4.2,0,0,0,4,2.88h28a2.29,2.29,0,0,0,2.18-3L200.32,71.45A5,5,0,0,0,195.53,68Z"></path>
        <rect class="cls-13" x="209.88" y="161.06" width="6" height="145.13"></rect>
        <rect class="cls-6" x="129.47" y="154.05" width="166.82" height="7.01"></rect>
        <rect class="cls-6" x="176" y="302.06" width="73.76" height="7.01"></rect>
        <rect class="cls-13" x="176" y="161.06" width="73.76" height="5.19"></rect>
        <rect class="cls-16" x="258.28" y="216.37" width="80.14" height="91.98"></rect>
        <rect class="cls-17" x="338.42" y="216.37" width="80.14" height="91.98"></rect>
        <path class="cls-18" d="M291.37,267.57s7.54,9.29,6.37,12.85-5.9,9.27-5.9,9.27,5.77,5,11.28,3.93S313.83,288,313.83,288s-7.05-18.34-9.05-26.13Z"></path>
        <path class="cls-18" d="M204.73,244.18s-3.53,5.82-9.19,6.41a31.21,31.21,0,0,1-8.54,0s.06,7.31,2.26,9.9,11.32,3.36,11.32,3.36a22.41,22.41,0,0,1,12.3-10.48Z"></path>
        <path class="cls-19" d="M293.25,277.61l18.44-5.3s-4.9-35.71-10.59-51-15.16-31-15.16-31,32.82,22.76,54.59,26.49,41-3.73,50.43-18.25-9.91-22.37-19.87-25.31S272.35,151.38,259,167.47c-12,14.46,6.51,55.59,12.27,67.76S293.25,277.61,293.25,277.61Z"></path>
        <path class="cls-18" d="M325.67,78.6S317.89,65.05,312,69.33c-8.24,6-13.55-6.67-14.53-12.95s-3.13-24.57,12.47-25.45S327.08,50,333.11,58.71a145.5,145.5,0,0,0,13.61,16.41S337.74,85.52,325.67,78.6Z"></path>
        <path class="cls-20" d="M289.13,38.23c-3.9-8.58,10.3-12.55,20.31-13.44s16.58-1.37,18.34,2.26,1.67,16.68,2.55,20.21,3.43,12.37,3.43,12.37a16.63,16.63,0,0,1-7.69,1.56c-3.93-.2-6.38-1.76-6.53-3.58s3.39-2.06,3.48-7.16-3-6-5.74-6c-4.12,0-4.21,6.77-3.72,11A38,38,0,0,1,312,69.33c-1.18,3.44-5.3,16.19-13.25,14.52s-1.35-27.91-1.35-27.91,3.32,5.74,8.32,3.88,5.3-8.34,4.22-12-1.87-7.65-6.67-6.77S291.09,42.55,289.13,38.23Z"></path>
        <path class="cls-18" d="M244.61,102.31l-3.11,9.77s-12.55-2.89-12.32-8.85S244.61,102.31,244.61,102.31Z"></path>
        <path class="cls-21" d="M293.42,110.5s-18.68-4.94-28.81-6.79S243,100,243,100l-3.11,13.74s37.48,14.73,50.92,18.29c20.57,5.46,44.83-20.39,52-27.3s8.39-30.58-8.17-30.91c-9.91-.21-23.13,17.77-28.78,23.61S293.42,110.5,293.42,110.5Z"></path>
        <path class="cls-22" d="M333.28,167.93s22.8,3.39,36.05,7.95,31.93,12.51,31.93,12.51.88-35.76-16.78-72-30.9-51.37-52.23-44.88c-18.39,5.59-20.61,42.92-14.57,59.2S333.28,167.93,333.28,167.93Z"></path>
        <path class="cls-23" d="M371.09,173.23c-25.18-8.33-78.62-14.13-97.26-6.28-4.22,1.78-30.81,24.72-44.74,42.18s-33.16,38.66-33.16,38.66l11.38,11.77S234.73,246,258.91,227s30.61-31.2,30.61-31.2,37.09,24.14,65.93,24.14c45.82,0,45.81-31.54,45.81-31.54S391.84,180.1,371.09,173.23Z"></path>
        <path class="cls-24" d="M312,283c-1.08-1.25-2.5,4.76-7.7,5.47s-8.26-2.92-10-2.92-4.31,6.48-10.15,9.42-14.59,5.72-16.15,8.3.27,5.61.27,5.61l49.15-9.24S314.78,286.31,312,283Z"></path>
        <path class="cls-25" d="M317.93,302.78c-.85,1.08-48.43,9.94-49.15,9.25s-.59-3.12-.59-3.12l49.15-9.24S318.78,301.7,317.93,302.78Z"></path>
        <path class="cls-26" d="M203.49,260.41c.13-1.66-5.13,1.59-9.31-1.58s-3.77-7.91-5-9.16-7.62,1.52-13.83-.52S161,242.87,158,243.6s-3.78,4.15-3.78,4.15L195.54,276S203.17,264.72,203.49,260.41Z"></path>
        <path class="cls-27" d="M193.75,278.6c-1.84,0-40.82-26.77-41.29-28.23s1.79-2.62,1.79-2.62L195.54,276S195.59,278.6,193.75,278.6Z"></path>
        <path class="cls-18" d="M282,141.9l.41,10.24s-12.78,1.57-14.6-4.11S282,141.9,282,141.9Z"></path>
        <path class="cls-28" d="M336,76.78c9.45-3,24.08,10.13,29.43,32.67,5.44,23,.16,42.34-7.07,44.6-11.1,3.48-27.53,4.8-40.5,4.09-25.27-1.39-37.86-4.09-37.86-4.09l-.21-12.71s9.19-4.09,24.78-6.27c16.71-2.34,31.15-3.75,31.15-3.75s-6.79-17.6-9.29-29.67S327.19,79.58,336,76.78Z"></path>
        <rect class="cls-10" x="352.23" y="251.91" width="53.5" height="15.3"></rect>
        <path class="cls-29" d="M387,259.75a5.55,5.55,0,1,1,5.55,5.55A5.55,5.55,0,0,1,387,259.75Z"></path>
        <circle class="cls-29" cx="377.65" cy="259.56" r="5.55"></circle>
        <path class="cls-29" d="M358,259.75a5.55,5.55,0,1,1,5.55,5.55A5.55,5.55,0,0,1,358,259.75Z"></path>
        <path class="cls-30" d="M401.74,322.36H144.22V150.54H164a.47.47,0,0,1,.46.46.46.46,0,0,1-.46.45H145.13v170H400.82V260.2h-8.27a.46.46,0,0,1-.46-.45.47.47,0,0,1,.46-.46h9.19Z"></path>
        <path class="cls-31" d="M127.7,22.09H84.26V19.74H127.7Zm26.57,2.19H84.42v2.35h69.85Zm-15,8.43H84.42v2.35h54.83Zm0,6H84.42v2.35h54.83Zm-.78,10.09H109.05v2.35h29.42Zm5.66-29.09H131.88v2.35h12.25Zm11.16,13H143v2.35h12.25Zm40.14,11.51H164.86v2.35h30.57ZM177.16,24.28H158v2.35h19.12Zm2-4.54H147.47v2.35H179.2Zm16.23,0H183.18v2.35h12.25Zm-89.21,8.77H84.35v2.35h21.87ZM157,48.83H141.36v2.35H157Zm-50.84,0H84.26v2.35h21.87Zm42.37-4.61H126.63v2.35H148.5Zm16.36-5.48H143v2.35h21.87Zm-1.68-10.23h-40v2.35h40ZM124.23,44.22h-40v2.35h40Zm-3.14-15.71h-12v2.35h12ZM163,44.22H151v2.35h12Z"></path>
        <ellipse class="cls-32" cx="190.09" cy="88.77" rx="7.84" ry="10.11" transform="translate(-18.58 67.04) rotate(-19.09)"></ellipse>
        <path class="cls-32" d="M204.88,104.64h-20.6l-.35-1.39h20.6Zm.38,1.56H184.67l.35,1.39h20.59Zm.74,3H185.41l.34,1.4h20.6Z"></path>
      </g>
    </g>
  </g>
</svg>
